<?xml version="1.0" encoding="UTF-8" standalone="no"?>
<?xml-stylesheet type="text/css" href="avatarpage_style.css" ?>
<svg
        id="1h"
        viewBox="0 0 200 200"
        preserveAspectRatio="xMinYMin"
        version="1.1"
        xmlns="http://www.w3.org/2000/svg">
    <defs
            id="SvgjsDefs1136"/>
    <g
            id="SvgjsG1511"
            transform="matrix(0.88490607,0,0,0.88490607,12.906803,16.994233)"
            class="black_hair">
        <path
                id="SvgjsPath1514"
                d="m 49.325,111.556 c -5.418,-3.127 -9.142,-6.627 -12.893,-15.151 -0.509,-1.289 -1.893,-5.586 -1.893,-6.583 -2.19,-1.805 -4.608,-7.14 -5.665,-9.781 -3.002,-10.296 -2.617,-22.5 -0.507,-28.338 l -0.355,-0.177 c -2.585,3.959 -3.283,7.628 -3.899,11.174 -2.751,-9.066 -1.237,-19.367 5.766,-28.261 -3.219,0.806 -4.477,1.441 -7.395,0.896 5.609,-2.923 22.364,-15.071 26.957,-23.31 -3.952,1.013 -8.211,3.096 -11.467,5.241 4.119,-12.97 20.856,-23.667 34.419,-22.489 -2.447,-2.174 -4.562,-4.95 -6.305,-7.631 3.691,1.212 10.025,3.686 16.204,5.204 21.252,4.455 15.286,2.485 34.942,-4.586 -0.811,2.912 -0.804,3.07 -2.543,7.203 14.207,-5.614 27.89,0.23 32.18,8.219 h 0.009 c 0.062,0.115 0.122,0.232 0.182,0.348 -1.924,-0.647 -3.58,-0.815 -5.581,-0.929 3.554,6.121 5.933,6.694 17.512,10.142 1.198,0.376 3.149,0.87 4.78,1.156 -2.419,1.728 -4.111,2.16 -7.047,2.539 4.662,1.984 7.377,5.559 9.431,10.264 2.974,7.095 3.489,12.801 2.96,19.332 -1.288,-1.974 -3.025,-4.896 -4.785,-7.3 l -0.343,0.202 c 4.382,9.461 2.86,17.286 19.494,28.646 -1.435,0.321 -3.059,0.489 -4.729,0.489 v 0 c -2.914,0 -5.43,-0.476 -7.888,-1.295 0.702,8.681 0.171,12.925 -0.7,16.66 -2.029,7.642 -6.055,13.108 -13.631,14.948 -4.42,5.776 -8.943,8.17 -12.081,8.709 2.207,-3.648 7.364,-13.608 8.248,-17.532 l -0.418,-0.743 c -9.509,-2.35 -16.209,-9.562 -17.565,-19.881 -1.947,2.924 -3.769,5.106 -9.482,9.489 -0.465,-11.558 -6.145,-26.409 -13.25,-35.719 -0.038,3.226 0.066,3.476 0.888,7.833 h 0.007 c 1.052,5.11 4.22,11.59 5.277,14.718 -3.106,-1.771 -5.685,-2.961 -9.079,-8.315 -1.651,-2.597 -3.648,-6.999 -4.548,-10.02 l -0.39,0.033 c -0.232,1.911 -0.205,3.113 -0.191,3.758 0,2.133 2.814,12.875 4.655,15.999 -6.57,-3.309 -9.514,-8.744 -11.7,-14.128 l -0.385,0.063 c -0.212,3.309 0.151,10.703 1.586,16.32 -5.281,-1.591 -8.449,-3.893 -11.229,-8.137 -1.839,-3.446 -1.922,-4.927 -2.316,-8.32 -5.93,7.875 -15.644,14.488 -22.28,16.559 -0.031,0.009 -0.094,0.027 -0.169,0.048 0.9,-1.781 1.845,-3.528 2.76,-5.222 2.511,-4.645 3.927,-7.333 5.656,-11.639 -16.04,11.084 -19.196,28.068 -15.051,46.874 -2.798,-1.794 -3.247,-2.156 -5.58,-4.629 0.542,3.657 0.365,9.122 -1.793,14.192 l -0.033,0.078 0.033,0.078 c 1.204,2.838 0.804,2.042 1.22,2.702 z"
                filter="brightness(0.8) saturate(2.5)"
                stroke-width="none"
                opacity="1"/>
        <path
                id="SvgjsPath1515"
                d="m 125.204,77.964 c -0.578,-11.19 -5.923,-25.294 -12.679,-34.51 14.042,3.831 17.75,26.168 12.679,34.51 z M 106.011,36.392 c -3.612,7.222 -0.428,21.701 12.146,28.871 -5.632,-6.689 -10.538,-13.404 -12.146,-28.871 z m 2.442,30.041 C 101.261,58.396 98.097,47.259 98.106,37.2 c -3.515,6.254 -2.14,23.155 10.499,29.518 -0.049,-0.083 -0.101,-0.192 -0.152,-0.285 z M 89,37 C 84.634,44.103 79.542,63.381 98.106,68.973 87.048,59.856 87,49.904 89,37 Z M 62.11,69.123 c 0.075,-0.021 0.138,-0.04 0.169,-0.048 6.428,-2.005 16.639,-9.568 22.606,-17.115 0.386,-2.524 0.36,-4.479 0.876,-6.959 C 81.137,53.507 67.663,65.263 62.11,69.123 Z M 52.691,89.147 C 45.784,78.324 51.501,57.719 54,55.575 49.975,58.052 41.291,80.894 52.691,89.147 Z m 110.312,-17.6 c -0.902,15.205 -9.329,25.748 -18.371,35.513 10.352,-1.977 21.403,-18.836 18.371,-35.513 z M 124.746,13.008 C 139.146,20.948 142.804,24.918 148,43 148,29.963 140.027,11.987 124.746,13.008 Z M 109.744,10 c -3.342,13.6 2.781,23 12.857,27.2 C 115.994,30.985 109.445,19.687 109.744,10 Z M 35.291,56.683 C 42.033,57.062 52.027,53.314 54,45 49.325,51.209 45.258,54.686 35.291,56.683 Z M 118.932,6.5 C 133.557,0.867 143.057,2.048 147.061,3.534 143.588,1.305 129.869,-2.515 118.932,6.5 Z M 38.819,16.035 C 48.945,9.823 53.474,10.756 59.072,10.429 51.421,7.273 45.744,9.378 38.819,16.035 Z m 99.604,-6.994 c 10.748,6.188 12.979,9.687 25.349,4.862 C 157,16.162 148,13.815 138.423,9.041 Z M 86.739,6.456 C 92.978,6.459 96.974,8.788 100,11.063 98.35,8.073 91.713,3.969 86.739,6.456 Z m 57.067,40.863 c -1.848,11.267 5.017,16.082 14.445,17.591 -5.972,-1.811 -12.597,-8.079 -14.445,-17.591 z M 60.555,44.103 C 69.357,39.674 80.916,29.361 80.916,19.899 76.744,28.11 70.447,37 60.555,44.103 Z M 183.241,67.417 C 171.046,68.508 164.456,58.388 157,50 c 2.801,7.468 8.217,12.322 14.619,17.002 2.223,0.672 4.515,1.073 7.134,1.073 1.67,0 3.294,-0.168 4.729,-0.489 -0.084,-0.057 -0.159,-0.112 -0.241,-0.169 z M 37.509,67.144 c -3.62,12.01 -6.057,30.855 11.816,44.412 C 39.134,100 35.743,81.271 37.509,67.144 Z M 84.497,11.687 C 72.32,11.938 62.5,13 56.397,28.11 69.522,15.608 75.298,14.736 84.497,11.687 Z M 24.119,57.719 c 1.73,-6.653 6.276,-11.247 13.078,-13.775 -8.591,0.159 -11.718,4.242 -13.078,13.775 z m 113.711,1.318 c -6.883,10.962 0.74,24.952 14.349,29.395 C 138.508,74.348 138.111,70.642 137.83,59.037 Z M 168.885,45.242 C 166.06,33 160.582,26.235 152.279,30.94 c 8.591,-2.83 10.483,6.26 16.606,14.302 z M 131.446,71.73 c 10.059,-10.14 6.667,-25.225 -1.631,-31.637 6.558,13.352 4.979,20.616 1.631,31.637 z"
                filter="saturate(0.9)"
                stroke-width="none"
                opacity="1"/>
        <path
                id="SvgjsPath1516"
                d="m 110.203,28.735 c -7.752,-5.34 -11.439,-9.634 -17,-16.667 5.304,4.803 11.901,11.474 17,16.667 z m 13.666,-5.333 c 12.675,2.771 10.384,1.424 18.667,9.333 -5.952,-8.52 -7.595,-8.779 -18.667,-9.333 z m 4,10 c 7.079,3.301 11.655,15.926 13,23.333 0.083,-8.8 -4.482,-20.998 -13,-23.333 z m 12.334,27.333 c -0.438,8.567 3.08,11.935 7.333,21.667 -2.085,-9.124 -6.134,-12.112 -7.333,-21.667 z m 18.666,7.334 c -0.707,8.421 0.23,14.627 -3.666,21.333 5.265,-6.235 4.413,-13.241 3.666,-21.333 z m 9,-0.334 c 2.15,5.972 -0.532,17.421 -3.666,22.667 5.013,-5.877 7.226,-16.392 3.666,-22.667 z m -15,-34 c 11.648,2.03 4.693,18.159 19.334,27.333 -12.787,-12.18 -6.96,-27.518 -19.334,-27.333 z m -6.333,-14.333 c 10.708,1.315 15.663,5.39 19.667,14 -2.496,-10.187 -9.627,-14.629 -19.667,-14 z m -31.333,21.667 c 9.562,6.386 13.174,17.608 13.333,29 2.284,-11.368 -1.665,-24.338 -13.333,-29 z m -0.334,-42.334 c 13.246,-1.465 13.697,-1.931 22.334,0.333 -6.088,-3.202 -10.744,-4.149 -22.334,-0.333 z m -40.333,-6 c 9.174,6.781 29.321,12.629 37.667,-1 -8.907,10.042 -25.635,6.942 -37.667,1 z M 91.869,4.402 c 5.054,-0.75 7.943,0.543 13.334,7.667 C 102.484,5.991 98.11,2.087 91.869,4.402 Z m -9.333,4 C 74.02,7.415 66.412,7.684 62.869,16.735 67.811,9.291 72.223,9.411 82.536,8.402 Z M 47.869,8.069 c 4.683,-4.046 14.198,-10.146 22.333,-9 -7.772,-2.868 -17.289,2.361 -22.333,9 z m -13,21.666 c 8.239,-2.621 16.719,-6.773 20.667,-14.333 -4.691,5.631 -12.222,9.43 -20.667,14.333 z m 15,-0.666 c -1.195,12.697 -8.067,16.114 -14,25.667 9.767,-9.818 15.31,-14.217 14,-25.667 z m 18.667,18 C 56.244,48.338 51.173,65.518 51.869,77.736 53.818,66.438 57.941,50.561 68.536,47.069 Z m 6.667,-7.334 c -1.015,7.647 -1.94,11.476 -5.333,21 4.901,-7.783 5.851,-13.793 5.333,-21 z m 21.333,-4 c -2.42,8.248 -4.131,16.801 -0.667,24.667 -1.513,-7.381 -0.244,-12.971 0.667,-24.667 z M 87.869,15.402 c -2.639,10.946 -4.018,15.103 -9,22.333 6.776,-6.444 8.68,-12.696 9,-22.333 z m 17.334,18.333 c -4.181,6.509 -4.464,12.145 -2.667,19.667 -0.156,-7.911 -0.064,-12.482 2.667,-19.667 z m 5.666,2.667 c -2.494,6.409 -2.027,11.348 0.667,16.667 -1.448,-5.476 -1.857,-8.872 -0.667,-16.667 z m -62,20.333 c -5.414,5.987 -4.846,14.654 -4,22.667 1.027,-9.385 0.2,-16.137 4,-22.667 z m -8.666,7.334 c -2.677,7.568 -3.156,17.894 1.333,25 -2.598,-7.11 -2.175,-17.934 -1.333,-25 z m -7.334,-16 C 28.558,58.031 27.589,66.037 32.202,78.402 30.584,67.67 30.145,61.234 32.869,48.069 Z m -6.666,0 C 37.259,30.471 44.045,36.17 48.536,27.402 41.92,35.084 33,29.641 26.203,48.069 Z m 46,-28.667 c 0.119,6.162 -2.69,10.826 -5,17.667 3.319,-5.566 6.455,-11.389 5,-17.667 z m 67.666,-15 c 2.816,5.948 9.814,9.055 16,9 -4.906,-1.016 -12.358,-4.216 -16,-9 z m 5.667,42.333 c -0.258,5.394 3.563,10.916 8,13.667 -2.889,-2.608 -7.209,-8.757 -8,-13.667 z"
                filter="brightness(1.5)"
                stroke-width="none"
                opacity="1"/>
        <path
                id="SvgjsPath1517"
                d="m 183.969,67.675 c -6.263,-4.256 -7.33,-5.468 -10.979,-9.56 0,0 -0.13,-0.15 -0.36,-0.41 -6.695,-9.373 -4.181,-9.611 -8.46,-18.85 1.892,2.585 3.736,5.738 5.101,7.78 0.21,-3.013 1.227,-10.089 -2.931,-20.01 -1.825,-4.18 -4.68,-8.3 -8.859,-10.08 4.107,-0.531 5.81,-2.099 6.81,-2.76 -1.729,-0.267 -3.954,-0.827 -5.24,-1.23 -11.193,-3.341 -13.854,-3.955 -17.21,-9.73 2.593,0.148 4.093,0.503 5.62,1.06 -0.14,-0.29 -0.3,-0.6 -0.46,-0.9 h -0.01 c -1.685,-3.134 -5.694,-6.731 -10.811,-8.71 -6.66,-2.164 -13.447,-2.699 -21.119,0.33 1.653,-3.92 1.639,-4.2 2.47,-7.16 -20.085,7.173 -13.869,9.179 -35.19,4.71 -6.461,-1.587 -13.197,-4.26 -16.72,-5.37 1.142,1.815 3.804,5.62 6.19,7.74 -12.222,-1.064 -30.117,9.186 -34.19,23.22 3.924,-2.671 8.58,-4.681 11.42,-5.41 -4.303,7.714 -21.63,20.432 -27.16,23.08 3.367,0.755 4.777,0.036 7.48,-0.64 -5.514,7 -8.194,16.316 -5.92,26.15 0,0.01 0,0.01 0,0.01 0.251,1.066 0.398,1.582 0.73,2.61 0.655,-3.762 1.25,-7.683 4.01,-11.91 -1.983,5.486 -2.645,17.666 0.51,28.48 1.14,2.849 3.531,8.031 5.65,9.8 0,0.398 0.873,3.943 1.91,6.57 3.745,8.508 7.459,12.167 13.64,15.62 -1.071,-1.842 -0.152,0.086 -1.6,-3.33 1.533,-3.602 2.02,-6.65 2.02,-10.25 0.024,-1.064 -0.082,-3.162 -0.12,-3.42 2.12,2.249 2.849,2.704 5.59,4.46 -6.552,-28.9 6.73,-41.52 14.314,-46.761 -2.402,5.989 -5.563,11.027 -8.364,16.631 0.16,-0.041 0.52,-0.145 0.6,-0.17 0,0 0,0 0.01,0 7.426,-2.316 17.112,-9.638 22.08,-16.23 0.347,2.986 0.478,4.515 2.29,7.91 2.991,4.564 6.373,6.777 11.68,8.32 -1.555,-5.824 -1.87,-13.481 -1.67,-16.6 2.399,5.909 5.43,11.094 12.06,14.34 h 0.01 c 0.14,0.07 0.29,0.14 0.42,0.21 -1.721,-1.734 -5.06,-14.067 -5.06,-16.5 -0.016,-0.705 -0.036,-1.87 0.189,-3.73 0.945,3.177 2.972,7.555 4.57,10.07 3.576,5.639 6.229,6.686 9.6,8.64 -1.11,-3.542 -3.387,-7.564 -5.149,-14.01 -0.221,-0.8 -0.311,-1.34 -0.32,-1.34 -0.69,-3.673 -0.889,-4.392 -0.86,-7.05 6.238,8.171 12.493,23.175 12.87,35.53 3.443,-2.632 6.896,-5.363 9.54,-9.33 1.357,10.283 8.577,17.26 17.561,19.5 0.109,0.2 0.229,0.4 0.34,0.6 -0.824,3.688 -6.054,13.94 -8.43,17.76 3.147,-0.36 7.957,-2.755 12.59,-8.79 7.616,-1.846 11.667,-7.385 13.71,-15.08 0.768,-3.291 1.446,-7.654 0.729,-16.42 4.59,1.531 9.511,1.46 12.878,0.61 z m -133.88,26.16 c -0.188,-2.277 -0.54,-4.608 -1.04,-6.9 0.877,1 1.603,1.796 3.63,3.4 0.161,2.242 0.458,4.618 0.96,6.97 -1,-0.872 -2.626,-2.068 -3.55,-3.47 z m 100.37,-13.25 c 1.277,2.101 2.995,3.706 2.311,7.61 -0.479,-1 -1.522,-3.99 -2.311,-7.61 z m 20.061,-13.76 c -0.455,12.426 -1.084,26.441 -13.381,31.09 7.956,-11.178 5.978,-16.145 6.301,-22.76 -0.814,4.577 -0.103,1.329 -0.99,8.41 -1.297,6.64 -8.454,19.527 -16.7,22.81 0.611,-0.858 1.893,-2.938 2.71,-4.229 4.354,-7.071 5.899,-11.333 6.04,-16.21 -0.02,-0.34 -0.06,-0.54 -0.06,-0.54 -0.336,-2.668 -2.538,-5.358 -4.44,-7.26 -0.239,-1.495 -1.114,-7.706 -1.52,-14.28 -0.269,3.7 -0.338,8.969 0.199,13 l 0.011,0.01 c 0.862,5.889 2.244,10.208 3.029,11.28 -1.551,-0.623 -1.77,-0.781 -2.77,-1.32 -8.722,-4.82 -11.62,-9.872 -13.46,-18.88 1.596,-2.724 1.738,-4.376 2.22,-6.48 0,-0.01 0,-0.01 0,-0.02 0.514,-1.567 -0.56,-9.591 -0.56,-10.61 0,-0.12 0.02,-0.2 0.029,-0.22 -0.085,0.087 -0.096,0.808 -0.1,0.93 -0.229,7.18 0.566,9.475 -2.78,16.01 -0.279,0.45 -0.52,0.96 -0.85,1.42 -2.167,2.786 -2.007,2.823 -7.78,8.24 0.679,-11.247 -5.389,-26.989 -13.479,-34.75 0.11,-3.74 -0.079,-4.97 -0.681,-5.97 0.706,1.733 0.238,3.75 0,5.96 -0.573,4.723 0.177,11.666 5.37,21.61 -6.189,-4.771 -10.123,-12.717 -12.12,-20.04 0.563,-3.521 0.906,-4.625 1.38,-8.68 -1.36,5.964 -3.1,9.308 -3.1,15.4 0.134,3.435 2.431,11.041 4.84,15.03 -4.119,-2.958 -8.768,-9.078 -10.95,-16.89 0.597,-7.936 1.488,-12.376 2.14,-16.61 -3.518,11.411 -3.571,15.709 -3.85,20.82 -0.02,1.28 0.01,2.57 0.01,3.53 0.01,0.48 0.01,0.88 0.02,1.17 0.03,0.28 0.04,0.44 0.04,0.44 0.545,5.442 1.496,8.688 2.04,10.04 -4.951,-2.176 -9.931,-6.937 -11.1,-12.87 -1.616,-7.53 2.373,-17.62 2.68,-18.62 -0.853,1.706 -4.395,7.961 -4.51,14.97 -2.026,2.257 -4.629,4.75 -5.63,5.64 -5.605,5.083 -10.98,8.705 -15.96,11.19 0.13,-0.2 0.27,-0.42 0.41,-0.64 l -0.01,0.03 c 6.144,-9.044 9.965,-16.674 10.18,-27.55 -0.58,4.238 -1.601,7.9 -2.866,11.256 -10.46,5.48 -18.753,18.57 -17.924,37.234 -0.15,-0.17 -0.31,-0.33 -0.47,-0.5 -7.064,-6.96 -4.696,-14.295 -2.67,-22.49 2.321,-9.233 3.71,-9.51 4.71,-10.51 -3.46,2.069 -5.596,8.819 -6.82,12.85 -2.729,8.793 -1.479,13.522 0.28,16.65 1.366,9.164 2.228,14.714 0.21,22.79 -1.216,-2.735 -2.888,-9.783 -3.12,-13.34 -0.673,-5.966 -0.763,-7.961 -1.25,-15.26 -0.494,7.405 -1.295,20.041 3.62,29.87 -10.349,-9.856 -14.864,-24.953 -9.27,-42.86 -3.354,7.285 -4.874,13.868 -3.84,21.76 -6.401,-11.16 -7.021,-26.98 -4.14,-38.48 2.612,-3.149 5.684,-4.568 7.68,-5.57 -6.141,2.238 -7.106,3.404 -9.64,6.19 -1.762,2.461 -2.938,4.705 -3.84,8.12 -0.536,-8.169 1.545,-16.16 7.4,-23.97 5.653,-1.508 10.804,-4.672 15.4,-8.12 -6.775,3.736 -10.945,5.852 -17.88,7.81 -0.886,0.262 -3.403,1.002 -4.34,1.12 7.457,-3.866 21.268,-13.739 25.05,-22.81 3.97,-1.186 6.349,-1.333 9.04,-1.66 -7.141,0 -12.19,0.606 -19.89,5.53 4.617,-9.06 19.642,-20.74 33.96,-20.74 2.847,2.213 6.718,3.623 10.19,5.6 -2.169,-1.853 -7.413,-4.64 -9.28,-6.11 0,-0.01 0,-0.01 -0.01,0 -1.191,-0.95 -1.73,-0.982 -5.89,-6.27 9.406,4.473 12.744,5.31 16.57,6.2 18.733,4.262 17.219,0.998 31.89,-5.82 -0.354,1.012 -2.504,6.973 -3.28,7.73 -2.076,3.669 -4.594,6.552 -8.51,8.51 4.48,-1.485 7.663,-4.723 9.87,-9.01 0.65,-0.325 4.727,-1.365 6.37,-1.54 8.218,-0.886 11.799,-0.144 17.64,2.5 1,0.555 4.702,2.439 7.261,5.41 -6.718,-2.101 -17.275,0.695 -23.921,2.92 1.711,-0.326 10.455,-2.156 15.62,-2.54 1.891,-0.16 3.761,-0.08 3.761,-0.09 0.09,0 0.18,0.01 0.27,0.01 2.622,5.451 4.2,7.416 17.53,10.66 1.372,0.318 2.838,0.494 3.83,0.62 -2.315,1.026 -3.594,1.278 -6.32,1.51 -10.533,0.214 -12.152,-4.801 -18.6,-6.76 6.802,3.031 6.574,7.8 18.97,7.8 3.643,1.355 6.84,6.796 8.439,10.49 2.288,5.485 3.317,11.582 3.57,17.52 -1.612,-2.944 -7.708,-12.381 -11.07,-13.57 -0.761,-0.297 -1.4,-0.304 -2.14,-0.23 2.067,0 3.499,1.242 4.71,2.93 h 0.01 c 2.547,3.711 3.938,9.101 5.25,13.6 0,0 0.061,0.2 0.16,0.54 2.532,8.814 8.096,15.083 15.771,19.33 -16.134,0.714 -17.671,-9.528 -25.601,-18.32 4.574,6.273 6.914,14.612 14.682,17.909 z m -13.291,-3.25 c -2.577,-6.236 -1.016,-3.791 -4.221,-10.15 3.521,4.422 3.78,7.85 5.73,11.77 -7.248,-1.936 -14.8,-9.364 -15,-17.58 -0.04,-0.78 -0.061,-1.26 -0.061,-1.26 1.422,8.511 6.287,13.613 13.552,17.22 z m -8.68,-16.869 c -1.18,-3.591 -8.053,-17.584 -14.279,-19.61 -1.982,-0.853 -4.928,-1.363 -7.24,-1.91 8.267,0.722 12.23,0.498 18.76,12.86 0.59,1.14 1.18,2.43 1.75,3.76 -1.69,-13.577 -6.567,-20.283 -12.76,-25.08 -4.292,-2.865 -7.618,-3.228 -10.29,-3.68 2.949,0.081 6.466,0.083 11,2.59 4.633,2.963 7.719,6.044 10.82,13.87 0.22,0.52 0.369,0.97 0.46,1.29 0.1,0.31 0.159,0.49 0.159,0.49 1.694,5.424 1.789,9.687 1.62,15.42 z m -27.85,-10.591 c -6.086,-6.25 -11.09,-14.396 -10.61,-23.07 0.697,9.229 7.345,18.064 13.82,25.01 -12.517,-1.666 -21.022,-10.063 -28.2,-19.91 10.698,11.797 17.767,15.435 24.99,17.97 z m -33.4,-30.24 c -0.01,0.01 -0.01,0.02 -0.02,0.03 3.177,-1.248 9.33,-0.122 12.08,4.32 -2.801,-3.547 -8.862,-5.14 -12.62,-3.77 1.205,-3.917 6.946,-4.981 10.93,-4.42 -2.532,0 -6.33,0.606 -8.54,2.03 -1.022,0.636 -1.22,1.03 -1.83,1.81 z m -28.39,39.68 c 5.625,-8.431 4.559,-4.042 8.75,-15.7 0.465,-1.342 1.924,-5.56 2.9,-7.75 -0.02,0.1 -0.14,0.53 -0.32,1.19 -3.206,12.822 -4.09,14.826 -8.8,20.32 8.872,-5.32 14.373,-10.241 19,-19.54 -3.091,10.387 -11.86,17.683 -21.53,21.48 z m -3.19,-16.76 c 0,0 0,0 0,-0.01 0,-12.914 7.494,-26.534 19.37,-25.05 -13.802,0 -18.42,19.599 -18.42,23.9 6.221,-7.458 17.108,-13.956 28.27,-15.99 -9.501,2.929 -21.763,9.859 -29.23,17.88 0.01,-0.24 0.01,-0.49 0.01,-0.73 z m -19.68,27.76 c 6.452,0.207 12.076,-2.905 16.42,-7.61 -3.988,6.273 -12.402,9.888 -18.82,7.76 9.583,-3.201 16.521,-12.126 18.58,-22.2 -0.775,9.675 -5.943,17.08 -14.12,21.24 -1.754,0.812 -1.06,0.381 -2.06,0.81 z"
                filter="brightness(-0.5)"
                stroke-width="none"
                opacity="1"/>
    </g>
</svg>