<?xml version="1.0" encoding="UTF-8" standalone="no"?>
<?xml-stylesheet type="text/css" href="avatarpage_style.css" ?>
<svg
        id="1h"
        viewBox="0 0 204.8632 247.21555"
        width="204.8632"
        height="247.21555"
        preserveAspectRatio="xMinYMin"
        version="1.1"
        xml:space="preserve"
        xmlns="http://www.w3.org/2000/svg">
    <defs
            id="SvgjsDefs1136"/>
    <g
            id="svga-group-hair-front"
            transform="translate(2.5699229,11.219994)"
            style="display:inline"
            class="black_hair">
        <path
                id="path2917"
                d="m 140.1887,192.8028 c 16.09547,8.53089 41.80331,-13.93514 42.01111,-13.73593 0.16561,0.15877 0.0914,-14.32155 0.0914,-14.32155 0,0 -46.6854,-39.3407 -53.75128,-8.91132 -0.605,-0.005 -2.59983,4.79526 -3.15483,4.86126 -3.58779,19.9052 4.64974,35.38464 6.64233,33.95244 z"
                stroke-width="0"
                filter="brightness(0.5)"
                opacity="1"
                style="display:inline"
                transform="translate(-108.03626,-12.757404)"/>
        <path
                id="SvgjsPath5515-5"
                d="m 428.5469,148.5264 c 3.18569,3.80778 27.98892,9.54237 41.19537,10.4382 14.60914,-32.87579 11.88659,-53.25292 5.43024,-70.554823 -5.448,-13.536 -5.042,-26.26 -6.357,-42.117 -1.84,1.797 -1.238,11.106 -3.489,28.325 17.078,53.526003 2.414,51.246003 -11.503,76.872003 -4.604,8.467 -8.295,17.095 -9.091,26.65 -22.673,-39.208 -16.05,-38.328 -6.981,-62.078 -1.56,2.201 -8.40605,12.18028 -13.84631,14.9081 -0.71677,7.74358 -1.86866,15.56624 4.6417,17.55652 z"
                filter="brightness(0.5)"
                stroke-width="0"
                opacity="1"
                style="display:inline"
                transform="translate(-298.15641,21.275038)"/>
        <path
                id="SvgjsPath5519"
                d="M 51.396,214.38 C 35.673,189.275 30.075,199.47 33.724,171.923 28.515,162.512 24.349,153.153 21.533,143.099 15.935,121.618 21.665,107.834 26.675,92.151 21.889,26.813 59.341,-9.001 100.71,-9.001 c 32.28,0 67.16,23.47 67.471,75.221 -0.514,9.459 -1.932,25.343 -3.003,32.165 17.769,55.029 2.501,50.649 -11.07,76.357 -3.681,6.968 -8.012,17.267 -8.919,27.573 -18.66,-33.246 -16.96,-38.325 -10.676,-53.39 7.504,-17.985 4.547,-4.07 -10.03,-2.422 13.563,-10.49 22.717,-10.462 23.003,-75.823 0.001,-0.039 -0.021,-0.075 -0.054,-0.091 -12.352,-5.881 -24.037,-17.006 -31.256,-29.76 -0.018,-0.031 -0.047,-0.05 -0.082,-0.05 -10e-4,0 -0.003,0 -0.003,0 -0.037,10e-4 -0.07,0.023 -0.085,0.057 C 107.671,58.623 93.38,68.21 69.67,71.92 c -4.629,2.417 -9.738,4.666 -16.104,7.085 -0.037,0.014 -0.063,0.051 -0.063,0.092 -0.428,25.658 5.466,43.881 20.327,65.193 -7.085,-3.254 -12.746,-12.711 -12.746,-12.711 -0.355,0 2.484,4.965 2.662,5.281 19.809,35.294 -12.119,46.623 -12.35,77.52 z"
                stroke-width="0"
                opacity="0.1"
                style="display:inline"/>
        <path
                id="SvgjsPath5520"
                d="m 50.101,212.286 c -16.177,-25.105 -21.937,-14.91 -18.182,-42.457 -5.36,-9.411 -9.647,-18.77 -12.543,-28.824 -5.76,-21.481 0.135,-35.265 5.29,-50.948 -4.925,-65.337 33.609,-101.152 76.175,-101.152 33.21,0 69.099,23.47 69.419,75.221 -0.527,9.459 -1.984,25.343 -3.089,32.165 18.283,55.029 2.573,50.649 -11.39,76.357 -3.789,6.968 -8.242,17.267 -9.175,27.573 -19.202,-33.246 -17.451,-38.325 -10.984,-53.39 7.718,-17.985 2.953,-4.116 -10.321,-1.223 13.954,-10.49 23.373,-11.661 23.668,-77.022 0.001,-0.039 -0.022,-0.075 -0.058,-0.091 -12.709,-5.881 -24.729,-17.006 -32.156,-29.76 -0.018,-0.031 -0.051,-0.05 -0.086,-0.05 -10e-4,0 -0.003,0 -0.004,0 -0.037,10e-4 -0.07,0.023 -0.086,0.057 -8.577,17.787 -23.281,27.374 -47.675,31.084 -4.764,2.417 -10.02,4.666 -16.569,7.085 -0.039,0.014 -0.064,0.051 -0.065,0.092 -0.441,25.657 5.624,44.881 20.914,66.193 -7.322,-5.419 -13.113,-13.711 -13.113,-13.711 -0.366,0 2.556,4.965 2.738,5.281 20.38,35.295 -12.471,46.624 -12.708,77.52 z"
                stroke-width="0"
                opacity="1"
                style="display:inline"/>
        <path
                id="SvgjsPath5521"
                d="M 27.34,109.853 C 26.589,102.124 14.664,52.402 44.121,15.991 30.129,43.148 26.056,79.801 27.34,109.853 Z M 167.521,94.041 c 4.414,-30.432 5.609,-63.063 -19.443,-86.74 12.375,24.191 21.013,41.89 19.443,86.74 z M 143.14,22.856 c -2.382,11.089 1.711,25.652 3.052,35.713 C 139.202,52.934 135.036,45 130.23,33.973 c 1.055,6.228 3.485,17.428 16.972,31.263 -21.798,-19.468 -26.475,-29.291 -22.914,-52.455 -0.198,0.877 -0.389,1.705 -0.573,2.49 C 124.192,12.729 124.628,9.983 125,7 121.799,25 97.883,57.049 77.939,63.902 c -3.01,3.013 -5.737,3.154 -8.993,5.917 27.231,-4.152 44.396,-19.706 48.078,-30.866 7.436,12.238 20.931,23.546 33.167,29.331 1.848,-16.192 -4,-26.142 -7.051,-45.428 z m -41.604,0.713 c -9,15 -14.354,24.5 -28.354,33.5 4.545,-3.637 7.687,-9.667 9.531,-14.927 C 77.203,50.297 68.565,55.381 61,62 68.516,53.732 78.645,42.142 85.036,31.069 78.594,39.651 68.223,46.406 59,54.069 66.256,48.04 72,40.402 76,32.402 73.225,36.102 68.138,38.861 62,45 70.972,33.034 71.88,27.516 74.419,22.595 68.203,33.069 62.764,36.701 56.625,41.89 52.404,59.592 52.164,67.278 51.369,77.003 51.33,77.472 68.482,70.04 68.904,69.826 c 0.014,-0.002 0.028,-0.005 0.042,-0.007 15.992,-13.57 22.556,-27.725 32.59,-46.25 z M 60,137 c 2.788,11.151 1.226,21.095 -2.464,32.735 -0.488,-10.761 -8.475,-21.806 -14.417,-31.462 1.364,20.726 3.566,30.364 0.083,46.129 -1.866,-28.597 -7.833,-38.269 -16.583,-59.417 -3.527,13.393 -2.659,30.866 5.299,44.844 -3.755,27.547 2.005,17.352 18.182,42.457 0.238,-30.896 33.088,-42.226 12.707,-77.52 -0.183,-0.316 -3.104,-5.281 -2.738,-5.281 0,0 5.792,8.292 13.113,13.711 C 50.949,118.985 45.119,88.485 44.482,55.485 39.495,95.233 54,117 60,137 Z m 109.126,-35.544 c 0.865,16.928 5.439,38.169 -9.257,51.947 6,-10 3.131,-23.403 0.131,-33.403 0.376,26.762 -10.812,42.834 -13.809,60.402 -0.456,-8.086 -2.304,-17.859 1.473,-31.015 -3.663,6.402 -7.795,13.848 -9.388,22.723 -5.241,-9.827 -2.367,-17.266 -0.533,-26.834 7.778,-8.19 13.157,-23.839 14.294,-33.894 -0.935,8.266 -6.287,20.703 -12.478,25.897 -0.001,0.009 -0.536,1.809 -1.124,3.782 0.044,-0.333 0.086,-0.668 0.125,-1.008 -8.928,21.01 -13.345,23.131 8.046,60.166 0.845,-9.357 4.724,-19.388 9.175,-27.573 13.455,-24.772 28.62,-22.169 13.345,-71.19 z"
                filter="brightness(0.5)"
                stroke-width="0"
                opacity="1"
                style="display:inline"/>
        <path
                id="SvgjsPath5522"
                d="m 155.339,79.777 c 4.269,-17.414 -2.295,-44.215 -5.664,-49.444 5.253,8.148 12.299,30.132 5.664,49.444 z m 4.102,7.922 c 0.458,-2.363 14.095,-28.735 -8.994,-65.914 20.885,38.017 9.458,63.518 8.994,65.914 z M 34.086,55.382 c 1,-0.447 7.361,-47.259 48.429,-56.088 C 39.446,6.883 35.086,54.937 34.086,55.382 Z m 5.67,44.385 C 39.732,98.764 31.604,52.384 54.447,22.663 27.996,53.967 39.732,98.767 39.756,99.767 Z m 3.257,31.389 c -1.428,-1.897 -13.106,-33.317 -7.671,-69.134 -10.056,37.562 6.919,68.134 7.671,69.134 z M 153.395,30.807 c -1,-0.295 -13.057,-35.017 -37.847,-31.593 21.684,-1.229 36.847,31.295 37.847,31.593 z m -20.632,17.99 c 0,0 -9.419,-14.771 -6.004,-39.082 -3.152,14.84 -2.821,25.098 6.004,39.082 z m 2.661,-11.495 c 2.568,7.16 8.104,14.888 9.026,15.499 -1.001,-0.663 -9.66,-13.341 -11.684,-34.227 0.18,6.269 0.518,12.76 2.658,18.728 z M 88.142,57.415 C 96.135,49.645 113.978,42.012 124.115,5.041 113.238,39.193 96.597,49.196 88.142,57.415 Z m 0.025,-30.406 c 6.991,-6.677 9.494,-13.522 9.407,-19.946 -0.716,6.447 -4.207,14.98 -9.407,19.946 z m -10.021,3.329 c 0.377,-0.013 1.333,-1.137 1.603,-1.373 C 87.726,22.006 91.374,16.384 92.137,6.729 90.966,17.738 79.148,30.304 78.146,30.338 Z m -1.343,-1.979 c 0,0 8.23,-9.662 11.186,-23.308 -3.13,10.887 -11.186,23.308 -11.186,23.308 z m -20.4,125.376 c 0.581,-1 1.925,-20.274 -7.62,-28.24 6.005,6.094 8.2,27.239 7.62,28.24 z m 0.017,-0.01 c -0.46,-7.765 -7.55,-13.918 -8.99,-23.647 0.536,12.408 8.195,16.828 8.99,23.647 z m -15.325,6.677 c -0.959,-2.241 3.723,-12.528 -10.313,-34.283 11.433,20.579 9.851,33.203 10.313,34.283 z m 0.02,-1.321 c -1.186,-4.379 0.906,-13.748 -4.325,-28.989 2.734,10.111 2.791,23.317 4.325,28.989 z m 108.909,-27.792 c -4.108,8.074 -12.523,13.667 -10.338,33.775 -0.201,-1.853 0.16,-3.941 0.305,-5.79 1.957,-24.953 8.672,-5.729 16.046,-52.242 -1.784,7.138 -3.142,18.616 -6.013,24.257 z m -2.295,36.44 c 0.371,-1.456 0.345,-3.097 0.603,-4.586 2.182,-12.614 6.991,-19.381 7.411,-39.744 -0.962,16.481 -8.222,30.106 -8.014,44.33 z m 17.378,-26.702 c 0.469,-3.128 6.825,-7.942 1.996,-32.945 2.746,25.659 -1.535,29.869 -1.996,32.945 z m 0.001,0.031 c 0.438,-1 3.109,-17.928 -3.651,-30.616 4.719,10.273 4.09,29.616 3.651,30.616 z"
                filter="brightness(1.5)"
                stroke-width="0"
                style="display:inline"/>
        <path
                id="SvgjsPath5523"
                d="m 23.814538,181.9295 c -5.985186,-7.63575 -7.147183,-29.20385 -3.368056,-36.49452 2.5,7.838 5.195518,13.57502 11.372518,24.38102 -3.773,27.679 2.116,17.422 18.38,42.81 0,-22.267 17.058,-34.558 19.03,-51.87 1.784,-15.764 -4.759,-22.359 -9.16,-31.17 3.666,5.108 8.469,10.416 13.56,14.061 -14.507,-20.062 -21.735,-38.961 -21.26,-66.64 5.63,-2.08 11.2,-4.36 16.55,-7.08 21.469,-3.266 38.274,-11.49 47.75,-31.14 7.314,12.562 19.169,23.77 32.2,29.8 -0.298,65.876 -9.77,66.413 -23.98,77.209 5.811,-1.109 12.751,-5.729 14.311,-7.93 -9.068,23.75 -15.193,23.472 7.479,62.68 0.796,-9.556 4.586,-19.383 9.19,-27.85 13.917,-25.626 29.741,-22.284 11.45,-77.29 1.544,-9.539 3.15313,-14.989815 3.32613,-24.133815 1.22897,10.319405 0.72363,29.529225 7.83838,48.895985 7.05149,19.19455 2.31829,40.72115 -7.85507,59.9651 l 1.07905,0.19783 C 194.22156,136.58506 182.99225,142.29795 170.359,64.126 169.702,-42.282 14.894,-38.053 24.569,90.026 c -5.227,15.913 -11.063,29.484 -5.29,50.95 -0.926,3.002 -1.492979,4.6461 -2.24938,7.55365 -3.379555,16.03629 2.481413,33.36596 3.454829,34.11165 0.833823,0.63875 0.784092,0.11292 3.330089,-0.7118 z M 24.959,94.285 c 0.095,1 3.72,27.654 1.32,8.13 -17.743,-144.346 166.257,-154.346 139.86,-0.519 -1.794,10.454 -0.768,5.549 0.961,-5.12 17.259,58.25 -3.75,45.563 -18.32,87.37 -1.37,3.939 -2.34,9 -2.74,13.13 -21.623,-38.089 -11.207,-41.533 -5.64,-60.7 6.599,-7.292 10.615,-15.871 11.71,-26.52 -2.591,17.989 -14.384,30.05 -24.181,34.06 5.116,-3.371 10.438,-6.975 13.601,-12.39 2.034,-2.136 11.762,-26.173 8.12,-72.03 -1.673,-20.141 -8.437,-26.107 -6.931,-34.66 -1.396,6.717 2.429,11.257 4.71,25.08 1.055,6.458 1.431,15.847 1.431,17.57 -10.923,-5.965 -24.91,-18.89 -31.76,-29.79 4.461,-9.145 6.782,-23.075 8.6,-31.87 -5.416,22.088 -9.213,52.515 -53.76,62.3 7.232,-3.953 22.987,-12.243 39.25,-45.36 0.02,-0.01 0.029,-0.02 0.029,-0.04 8.711,-17.095 0.602,-2.034 -0.09,-0.8 -0.013,-0.026 -0.01,-0.103 -0.01,0.01 -20.156,36.093 -36.387,45.333 -58.75,54.6 0.01,-0.68 0.02,-1.36 0.05,-2.04 27.481,-8.941 44.618,-41.674 39.07,-33.58 -8.877,13.02 -24.155,28.015 -39.06,33.34 0.017,-1 0.183,-4.32 0.46,-7.14 19.215,-13.644 23.448,-20.838 30.89,-33.8 0.556,-0.979 1.037,-1.813 1.454,-2.526 -4.483,6.824 -16.303,23.2 -32.294,35.725 0.44,-4.62 1.1,-9.22 1.89,-13.79 0.921,-1.218 8.834,-7.552 15.32,-20.74 3.094,-6.249 4.27,-9.59 4.27,-9.59 -0.871,1.578 -6.035,13.404 -19.31,28.78 2.19,-12.138 5.188,-23.076 8.57,-35.03 -5.756,17.895 -11.357,37.272 -13.01,56.8 -0.488,1 -1.416,37.987 17.235,63.969 -28.77,-30.95 -24.066,-68.987 -23.885,-81.719 -0.09,0 -0.75,10.35 -0.8,11.05 -3.867,51.415 25.597,63.853 24,90.61 -1.172,19.548 -17.347,30.422 -17.49,53.89 -12.637,-21.956 -19.809,-15.55 -16.85,-39.3 0.077,-1 1.134,-8.253 0.08,-15.33 -1.696,-11.256 -4.121,-14.498 -3.766,-16.86 -0.269,1.428 0.351,2.886 1.417,6.7 1.909,6.668 2.163,15.704 1.33,22.73 -16.523,-32.548 -14.211,-49.843 -6.981,-74.6 z"
                filter="brightness(0.2)"
                stroke-width="0"
                opacity="1"
                style="display:inline"/>
    </g>
</svg>