<?xml version="1.0" encoding="UTF-8" standalone="no"?>
<?xml-stylesheet type="text/css" href="avatarpage_style.css" ?>
<svg
        id="2h"
        viewBox="0 0 200 200"
        preserveAspectRatio="xMinYMin"
        version="1.1"
        xmlns="http://www.w3.org/2000/svg">
    <defs
            id="SvgjsDefs1136"/>
    <g
            id="g410"
            transform="translate(0.21111831,18.638749)"
            style="display:inline"
            class="black_hair">
        <path
                id="SvgjsPath1479"
                style="display:inline"
                opacity="0.8"
                filter="brightness(0.5)"
                d="m 148.30124,117.07262 c -8.07756,19.46127 -7.92125,3.32802 -10.71095,14.24439 -3.61899,11.10952 -7.2473,16.10221 -14.5223,21.11821 -0.87399,7.58199 -1.39335,11.47429 -1.31335,14.81529 0.186,7.69899 16.28348,12.10822 23.14347,13.48122 5.70632,1.14239 15.27808,2.05273 22.08254,3.43711 -3.62683,-34.37898 -1.19413,-76.74084 -18.67941,-67.09622 z m -96.755252,-0.71923 c -18.246608,-14.82148 -15.22959,35.85231 -19.486604,68.16594 6.841446,-1.50994 16.221232,-2.51501 22.242297,-3.72024 6.860993,-1.373 23.113363,-4.99755 23.297363,-12.69654 0.08,-3.35799 -0.242187,-8.00287 -1.122186,-15.62686 -7.720313,-6.78251 -10.336039,-12.35737 -13.320385,-20.40345 -2.061223,-5.83035 -2.151102,-5.23884 -5.450388,-4.82793 -1.342971,0.16726 -2.227907,-1.12521 -6.160097,-10.89092 z"
                transform="translate(-0.21111831,-18.638749)"/>
        <path
                id="SvgjsPath1480"
                style="display:inline;stroke-width:0.961999"
                filter="saturate(0.5)"
                d="m 63.282496,137.4562 c -0.838897,3.00684 -2.874844,8.0264 -2.863188,11.20539 0.125835,7.0457 0.473577,9.55796 0.267573,12.54641 -0.05277,0.7323 -0.101195,1.36552 -0.138741,1.88624 -0.409454,6.14101 1.242222,8.14669 2.519151,15.02935 0.502015,-0.14536 0.994631,-0.27602 1.500392,-0.4346 -0.756867,-5.33067 -2.100945,-6.90265 -2.100945,-13.57058 -0.01218,0.19789 -0.004,0.0533 -0.006,0.0962 0,-7.23175 0.622988,3.53955 -0.630284,-14.83164 -0.243359,-3.13648 2.195599,-8.8549 2.839571,-11.83736 -0.274993,-0.27612 -0.802262,-2.09083 -1.057675,-2.36213 z m 72.449474,-0.47195 c -0.14745,0.14515 -0.29173,0.76208 -0.4441,0.90826 -1.91109,10.31532 -5.10795,19.69902 -2.15607,30.20142 1.08476,3.99602 1.6562,6.68784 1.78581,9.41516 0.34229,0.11088 0.67473,0.19977 1.01677,0.30458 0.0211,-0.50104 0.0645,-0.99315 0.0634,-1.50329 0.0659,-3.17529 -1.92487,-10.11957 -2.41411,-13.17161 -0.61011,-7.78893 2.04521,-24.95499 2.08739,-25.44584 z m -65.186505,9.92468 c -0.43089,2.74257 -0.851653,5.53923 -0.967227,8.4765 0.105539,5.65863 1.950627,13.03565 2.148512,17.20235 0.05408,0.65514 0.09569,1.39809 0.114959,2.20862 0.59719,-0.30885 1.165733,-0.63124 1.702557,-0.96538 -0.0091,-1.67938 -0.1164,-3.15199 -0.31316,-4.63812 0.0015,0.0137 0.0044,0.0237 0.006,0.0374 -10e-4,-0.007 -0.0028,-0.014 -0.0079,-0.0624 -0.894001,-7.87106 -3.099021,-9.45225 -2.035537,-20.04863 0.05747,-0.54096 0.108935,-1.0657 0.168471,-1.60659 -0.279516,-0.19993 -0.542126,-0.40275 -0.816593,-0.60381 z m 56.689465,2.25751 c -0.13594,0.31695 -0.24165,0.29489 -0.3546,0.37115 0.73227,2.49531 0.77865,3.85994 1.04669,5.95827 0.65781,7.25855 -3.1466,11.53626 -2.48151,17.59954 0.2346,0.1705 0.45549,0.34486 0.70759,0.50941 -0.7658,-9.10008 6.28236,-9.56968 1.08183,-24.43837 z"
                transform="translate(-0.21111831,-18.638749)"/>
        <path
                id="SvgjsPath1483"
                d="M 169.869,60.508 C 169.507,47.819 166.816,36.964 161.86,28.214 160.626,21.845 158.112,13.727 149.559,7.425 145.05,4.104 135.904,0.563 127.271,-1.212 115.613,-11.984 114.899,-2.414 102.589,-7.379 99.697,-8.546 97.68,-9.342 93.084,-6.268 86.8,-7.859 79.736,-8.007 75.268,-7.146 70.404,-6.21 64.016,-3.028 59.325,0.792 51.357,2.942 45.68,6.501 42.452,11.371 c -2.887,4.356 -4.261,9.144 -4.094,14.279 -1.49,3.06 -2.376,6.316 -2.809,10.294 -2.715,3.779 -5.582,8.563 -7.648,12.626 -1.816,3.554 -4.911,20.048 -3.206,27.254 -11.978,21.314 -3.928,31.087 0.975,48.8 -3.591,8.407 -3.569,16.054 0.075,24.855 -4.106,16.166 -8.669,18.491 -4.531,58.299 2.25,21.647 1.324,22.279 1.324,28.127 l 0.099,-0.1 c 11.194,-0.084 16.572,-3.733 22.877,-2.95 0.961,0.058 9.621,0.832 9.902,0.86 79.66,6.379 73.197,-1.353 117.21,-2.088 -0.826,-8.102 -1.776,-30.404 -0.356,-39.298 2.088,-13.115 0.093,-28.495 -3.729,-39.602 4.314,-8.119 3.907,-12.246 1.163,-20.445 5.543,-16.211 7.897,-24.442 4.45,-39.741 3.846,-11.099 1.638,-21.763 -4.285,-32.033 z m -25.42,51.095 c -0.368,5.307 0.889,10.623 0.5,15.949 -0.439,6.104 -2.762,9.407 -5.924,14.784 -9.617,16.422 -0.494,22.32 1.763,34.271 2.469,12.793 -8.264,33.33 -6.999,46.509 0.24,2.47 1.669,8.576 2.203,10.877 -20.207,2.284 -69.317,0.086 -80.78,-0.753 -2.633,-17.772 1.835,-33.757 2.538,-38.538 0.814,-8.465 -4.608,-14.97 -1.628,-28.118 3.006,-13.198 -1.294,-20.579 -1.802,-27.29 -0.995,-13.187 15.039,-13.541 3.982,-29.412 C 48.4,95.656 61.674,97.668 57.066,81.137 55.253,74.628 52.218,63.734 71.247,51.852 c 15.132,-9.456 29.464,-9.046 35.386,-20.671 6.172,32.455 28.681,22.744 23.63,59.46 -1.484,10.782 1.529,12.874 3.435,21.885 1.966,9.198 -4.088,16.658 -3.958,25.865 2.464,-7.486 8.896,-14.549 9.09,-22.357 0.149,-6.206 -2.432,-12.186 -2.38,-18.408 0.039,-4.968 1.508,-9.806 2.281,-14.635 3.709,-23.063 -15.682,-23.835 -20.418,-41.599 l 0.181,-0.08 c 11.219,17.313 20.093,22.563 26.204,33.756 8.157,14.975 0.618,23.65 -0.249,36.535 z"
                filter="brightness(0.8) saturate(2.5)"
                stroke-width="none"
                opacity="1"
                style="display:inline"/>
        <path
                id="SvgjsPath1484"
                d="m 143.389,232.876 c -2.452,0.381 -4.644,0.709 -7.109,0.989 -2.531,-12.35 -3.045,-13.858 2.05,-31.18 7.57,-25.69 4.73,-26.74 0.65,-38.74 -5.181,-15.21 4.37,-19.42 7.64,-29.62 1.85,-5.8 1.13,-11.689 0.49,-17.62 -1.48,-13.91 6.319,-22.229 2.01,-35.6 -4.74,-14.729 -16.45,-19.648 -31.05,-41.09 -0.447,-1.921 -0.756,-3.948 -0.994,-5.991 12.929,20.478 35.727,30.946 36.127,46.41 0.281,10.899 -5.847,33.666 -3.203,48.566 1.61,9.078 -7,15 -9,24 -3,12 9,22 5,33 -5.912,14.357 -7.072,30.401 -2.611,46.876 z M 48,58 c -9,11 1,25 -5,38 -6,11 6,25 -1,38 -3,7 4.152,14.053 2,20 -9.725,26.87 -4.821,52.515 -4.118,78.772 2.261,-0.43 3.779,-0.542 5.427,-0.478 0.711,-14.813 -4.411,-25.97 -4.76,-32.6 -0.36,-7.04 2.95,-11.53 4.16,-17.45 1.71,-8.41 -0.38,-18.63 2.66,-26.58 1.9,-5.42 -1.33,-11.069 -1.99,-16.26 -0.88,-6.85 2.81,-13.13 2.82,-17.51 -0.61,-7.38 -4.41,-11.37 -3.86,-17.52 0.32,-3.68 1.82,-6.93 3.18,-10.31 4.1,-10.23 -0.47,-12.2 -1.03,-21.02 C 45.355,55.356 75.463,36.333 98.925,31.472 78.902,29.774 58.916,43.446 48,58 Z M 46.397,36 c -8.96,9.083 -8.372,19.86 -9.284,32.735 -0.721,10.172 -12.931,19.243 -10.958,29.098 3.909,19.52 9.418,32.397 4.963,53.628 -1.105,5.27 1.279,11.539 1.279,16.539 -3.14,9.376 -3.573,18.985 -3.567,29.406 -0.07,10.373 0.408,20.797 2.567,31.594 0.362,2.175 0.196,4.218 -0.159,6.225 1.085,-0.164 2.188,-0.383 3.448,-0.68 3.02,-15.189 -3.05,-39.63 -1.45,-47.81 1.745,-9.261 4.592,-10.646 3.81,-20.88 -0.4,-4.93 -1.25,-11.351 -1.31,-15.92 -0.203,-14.404 7.428,-20.775 2.43,-33.32 -1.01,-2.54 -2.12,-5.03 -3.12,-7.58 -5.219,-13.284 1.624,-20.396 5.8,-30.74 2.32,-5.73 2.25,-7.87 1.55,-14.79 -0.86,-8.55 -2.01,-20.78 20.57,-35.22 13.107,-8.382 25.148,-8.831 34.88,-8.774 C 76.992,15.055 59.202,23.021 46.397,36 Z M 97.211,6.536 C 90.157,4.879 82.981,3.854 75.699,4.456 57.487,5.947 38.816,16.979 37.113,36.63 45.702,11.883 69.947,0.867 97.211,6.536 Z m 29.623,53.172 C 120.96,53.07 106.071,39.267 108.93,23.145 c -0.251,2.617 -1.317,6.185 -2.091,7.821 5.657,26.844 24.4,25.05 26.021,46.982 0.707,-3.902 -3.253,-15.107 -6.026,-18.24 z M 101.876,33.946 c 0.041,0.02 0.083,0.035 0.124,0.054 -0.041,-0.02 -0.083,-0.035 -0.124,-0.054 C 84.761,44.678 55.85,46.235 51,70 c -1.266,6.203 5.054,18.03 0,27 -3.958,7.024 4,17 4,23 0,6 -4,11 -5,18 -1,5 2,9 3,14 1,6 -3,12 -2,17 4.173,33.465 -7.631,24.573 0.82,63.868 0.959,0.086 2.033,0.173 3.259,0.257 -0.94,-5.08 -1.69,-12.63 -0.83,-22.75 1.54,-18.06 4.07,-11.92 0.51,-27.25 -2.9,-12.489 -0.23,-14.09 0.31,-22.02 0.5,-7.36 -1.8,-13.96 -2.73,-18.4 -3.18,-15.12 9.72,-17.31 6.69,-26.25 -0.85,-2.5 -2.52,-4.67 -3.95,-6.85 -7.58,-11.968 1.421,-13.924 0.8,-23.23 -0.46,-7.12 -7,-16.73 5.86,-28.91 17.35,-16.43 39.143,-11.955 46.267,-28.633 -1.609,1.462 -4.35,3.998 -6.13,5.114 z M 158,190 c 1,-9 -1.131,-17.628 -4.131,-26.628 -2,-10 6.6,-15.637 8.115,-25.099 1.807,-11.278 -6.729,-20.634 0.034,-36.93 7.657,-18.449 3.6,-35.793 -8.482,-43.848 -14.671,-10.086 -23.385,-20.865 -30.952,-37.156 6.736,35.057 29.35,37.938 35.255,56.606 3.95,12.48 -3.89,22.5 -2.939,36.31 0.405,5.96 2.941,11.623 2.12,17.69 -1.49,10.87 -12.12,17.31 -9.79,30.95 1.029,6.05 3.39,11.72 3.92,17.88 0.83,9.51 -0.96,19.1 -0.15,29.01 0.68,8.32 2.12,6.311 0.061,22.931 2.061,-0.275 7.131,-0.378 9.207,-0.4 C 157.498,217.629 155.476,203.462 158,190 Z M 114.267,8.481 c 10.364,3.309 12.499,13.877 25.333,24.504 5.42,4.5 15.6,9.53 23.989,18.8 C 150.646,34.024 125.583,8.481 114.267,8.481 Z m 3.95,-4.218 c 10.112,-0.064 16.552,1.334 26.813,7.022 6.78,3.76 11.77,8.8 15.439,14.44 -3.228,-10.158 -22.998,-27.04 -42.252,-21.462 z m 51.032,126.423 c 4.75,-16.351 6.351,-25.88 4.51,-36.75 -4.489,11.931 -10.524,18.954 -4.51,36.75 z M 35.299,37.855 c -5.1,8.58 -7.65,19.96 -8.21,23.7 -0.6,4.08 -2.06,8.23 -1.4,12.31 10.944,-18.987 8.437,-19.193 9.61,-36.01 z M 29,229 c -10.555,-46.603 5.569,-64.086 -1.815,-77.539 -5.86,19.443 -7.903,20.479 -4.996,59.664 0.79,10.69 0.7,19.11 0.46,24.561 2.485,-0.057 4.312,-0.176 6.192,-0.461 C 29.196,233.218 29.487,231.15 29,229 Z M 25.959,125.936 c -1.901,6.5 -1.314,13.373 0.51,19.979 1.64,-7.93 1.29,-13.22 -0.51,-19.979 z m 145.38,53.089 c -0.239,-11.98 -1.58,-19.57 -3.31,-25.15 -3.13,5.67 -6.88,11.181 -5.88,17.811 0.37,2.439 1.16,4.75 1.67,7.149 1.76,8.311 -1.98,13.41 -0.58,26.7 0.524,4.947 2.555,9.557 1.95,25.931 4.36,0.118 5.382,0.02 6.93,0.02 -4.672,-36.841 -0.559,-41.296 -0.78,-52.461 z"
                stroke-width="none"
                opacity="1"
                style="display:inline"/>
        <path
                id="SvgjsPath1485"
                d="m 41.174,37.035 c 2.742,-4.962 5.685,-9.62 9.504,-13.836 C 68.75,3.245 94.287,10.679 98.519,10.509 96.066,10.608 81.182,7.605 66.801,13.291 52.353,19.005 46.163,28.773 41.174,37.035 Z m 40.93,-21.54 c 9.209,-0.041 19.252,3.171 20.252,3.641 -1.345,-0.632 -11.848,-4.331 -19.82,-4.332 -7.33,-10e-4 -14.298,2.961 -20.784,6.078 6.456,-2.829 13.202,-5.355 20.352,-5.387 z m 12.399,8.903 c 0.243,-0.031 6.921,-0.762 7.033,-0.548 -0.046,-0.089 -1.342,0.007 -1.454,0.007 C 75.188,23.911 50.574,37.095 43.97,57.105 51.898,36.451 78.067,26.495 94.503,24.398 Z m -8.788,5.114 c -4.868,1.411 -9.764,3.261 -14.134,5.861 1.722,-1.024 3.72,-1.784 5.575,-2.521 14.368,-5.716 22.167,-4.655 23.782,-4.583 -5.106,-0.42 -10.265,-0.194 -15.223,1.243 z M 55.795,57.449 C 63.452,46.871 86.596,40.751 98.504,34.342 85.168,40.917 64.906,44.861 55.795,57.449 Z M 23.802,90.407 c -1.925,6.5 1.442,17.037 3.641,23.509 -1.452,-4.276 -4.294,-16.879 -2.45,-22.924 2.54,-8.321 8.077,-15.33 10.361,-23.765 -3.109,9.427 -9.416,15.977 -11.552,23.18 z m 25.543,44.969 c -0.227,0.832 -0.669,1.795 -0.712,2.659 0.033,-0.666 0.549,-1.511 0.779,-2.123 4.786,-12.716 5.62,-16.075 -0.64,-28.802 3.695,9.414 4.907,12.38 0.573,28.266 z M 37.69,168.502 c -10e-4,0.172 0.073,3.122 0.156,3.272 -0.137,-0.247 0.005,-0.952 0.01,-1.22 0.255,-13.385 6.896,-18.12 1.553,-32.456 4.048,13.903 -1.611,15.065 -1.719,30.404 z m 11.963,15.962 c -0.634,5.103 -3.229,12.69 -3.403,22.732 -0.023,1.294 0.233,2.588 0.209,3.877 0.028,-1.552 -0.07,-3.089 0.032,-4.643 0.482,-7.301 2.122,-11.081 3.062,-16.426 2,-10.691 0.184,-12.236 -0.424,-23.268 0.032,6.847 1.165,12.575 0.524,17.728 z M 40.77,114.267 c 2.006,7.65 1.53,8.484 1.664,12.785 -0.051,-1.65 0.944,-3.732 -1.023,-13.009 C 36.52,91.005 45.092,99.204 43.108,76.408 44.065,99.736 34.9,91.875 40.77,114.267 Z m 85.121,-55.852 c 15.459,19.39 2.691,37.278 8.563,47.381 -4.495,-7.73 3.611,-22.904 -2.03,-38.349 -3.499,-9.572 -12.808,-15.293 -17.928,-25.886 -2.552,-5.281 -4.697,-10.585 -5.044,-16.489 0.526,16.639 13.282,29.386 16.439,33.343 z m 3.442,-10.359 c 2.588,2.805 5.433,5.618 8.623,7.742 -1.244,-0.828 -2.352,-1.974 -3.421,-3.006 -15.846,-15.29 -16.277,-27.594 -17.245,-34.801 1.243,14.059 3.304,20.592 12.043,30.065 z m 5.23,-13.433 c 9.546,12.754 41.372,29.817 34.61,53.113 0,10e-4 -2.097,6.627 -2.097,6.627 4.98,-11.852 5.456,-20.782 -3.651,-33.489 -8.378,-11.687 -21.297,-17.214 -29.644,-27.799 -1.334,-1.69 -2.464,-3.507 -3.701,-5.264 1.411,2.344 2.842,4.62 4.483,6.812 z m 26.22,0.819 c -4.209,-14.69 -21.029,-26.19 -38.988,-26.627 19.273,1.478 36.003,16.207 38.988,26.627 z m -58.596,-3.74 c 4.048,-3.483 6.929,-6.043 8.311,-19.639 -1.057,7.612 -2.734,14.84 -8.311,19.639 z m 61.865,107.092 c -0.281,7.611 -3.443,11.155 -5.54,16.217 -4.702,11.349 0.976,19.192 2.015,28.62 0.008,0.071 0.301,3.063 0.243,3.104 0.022,-0.017 -0.018,-0.352 -0.019,-0.381 -0.194,-12.388 -6.224,-19.056 -1.091,-31.181 4.217,-9.965 7.672,-12.175 2.237,-32.578 0.781,3.903 2.385,9.993 2.155,16.199 z m -19.858,27.427 c 4.157,11.405 3.104,10.781 3.585,13.183 -0.029,-0.145 -0.092,-2.743 -0.735,-5.67 -1.496,-6.817 -4.767,-12.746 -3.954,-20.787 0.792,-7.821 6.467,-13.167 6.969,-20.287 0.159,-2.253 -0.13,-4.347 -0.534,-6.555 2.578,18.178 -13.41,17.97 -5.331,40.116 z m 7.03,-66.866 c -0.246,1.197 -0.356,2.542 -0.758,3.696 0.989,-2.848 1.554,-5.983 2.193,-8.922 3.32,-15.236 -0.084,-20.154 -9.51,-32.352 8.178,12.031 12.582,15.685 8.075,37.578 z"
                filter="saturate(0.7) brightness(2)"
                stroke-width="none"
                opacity="1"
                style="display:inline"/>
        <path
                id="SvgjsPath1486"
                d="m 174.649,71.396 c -1.21,-4.07 -2.811,-7.67 -4.681,-10.89 -0.279,-9.79 -2.09,-21.87 -8.01,-32.31 -1.32,-6.81 -3.939,-14.66 -12.34,-20.85 -4.44,-3.27 -13.45,-6.83 -22.28,-8.63 -6.33,-5.85 -8.89,-5.88 -14.489,-4.94 -11.091,1.85 -11.421,-5.86 -19.74,-0.14 -6.2,-1.57 -13.29,-1.76 -17.86,-0.88 -4.94,0.95 -11.31,4.15 -15.94,7.94 -0.01,0 -0.01,0 -0.01,0 -7.19,1.94 -13.41,5.31 -16.93,10.62 -3.32,5.01 -4.25,9.98 -4.1,14.29 -1.68,3.45 -2.44,6.86 -2.8,10.28 -3.09,4.3 -5.94,9.27 -7.57,12.47 -1.923,3.763 -5.022,20.157 -3.29,27.42 -1.72,3.06 -3.26,6.03 -4.22,8.93 -0.93,2.81 -1.52,5.59 -1.86,8.53 -0.59,5.27 0.36,10.87 2.01,15.87 2.12,6.41 3.84,11.26 5.04,15.479 -3.87,9.061 -3.32,16.73 0.07,24.87 -0.76,2.99 -1.76,6.351 -3.02,10.25 -7.25,22.391 0.01,48.86 -0.01,69.08 0,1.9 -0.08,4.48 -0.17,6.91 -0.01,0.07 -0.01,0.14 -0.01,0.21 0.07,0.01 0.13,0.01 0.2,0 4.06,-0.03 6.17,-0.24 9.56,-0.96 0.09,-0.02 0.18,-0.04 0.28,-0.06 1.15,-0.25 2.46,-0.561 4.04,-0.931 4.12,-0.97 5.87,-1.189 8.76,-1.02 0.07,0 0.15,0.01 0.23,0.02 2.14,0.13 4.93,0.46 9.7,0.84 0.07,0.011 0.13,0.011 0.2,0.021 3.24,0.26 7.38,0.55 12.83,0.81 6.13,0.261 12.24,0.7 18.37,1.021 10.01,0.52 20.029,0.84 30.05,0.49 6.38,-0.221 12.91,-0.631 19.41,-1.41 0.12,-0.01 0.24,-0.03 0.37,-0.04 2.92,-0.36 5.83,-0.78 8.72,-1.311 2.06,-0.37 3.82,-0.659 5.35,-0.89 0.16,-0.02 0.311,-0.04 0.46,-0.06 6,-0.851 8.65,-0.7 13.65,-0.641 0.18,0 0.37,0.01 0.56,0.01 1.9,0.011 4.131,0.011 6.98,-0.06 0.19,0 0.38,-0.01 0.58,-0.01 -0.01,-0.08 -0.021,-0.16 -0.021,-0.25 -1.149,-13.17 -1.54,-31.67 -0.35,-39.13 1.79,-11.24 0.66,-22.971 -2.06,-33.99 -0.521,-2.101 -1.08,-3.93 -1.681,-5.58 1.17,-2.2 2.19,-4.43 2.76,-6.78 1.221,-5.02 -0.06,-9.17 -1.59,-13.68 2.94,-8.6 5.91,-18.49 6.051,-23.85 0.17,-6.48 -0.74,-12.141 -1.601,-15.891 2.032,-5.858 3.023,-12.358 0.402,-21.177 z M 27.089,61.555 c 0.56,-3.74 3.11,-15.12 8.21,-23.7 -0.5,7.17 0.26,14.42 -2.62,22.28 -1.74,4.77 -4.46,9.34 -6.99,13.73 -0.66,-4.08 0.8,-8.23 1.4,-12.31 z m -1.63,66.371 c 0.14,-0.681 0.31,-1.341 0.5,-1.99 1.8,6.76 2.15,12.05 0.51,19.979 -1.51,-5.47 -2.35,-11.71 -1.01,-17.989 z m 87.811,107.109 c -10.65,0.22 -21.41,-0.25 -32.05,-0.79 -6.38,-0.319 -12.75,-0.54 -19.13,-0.76 -2.69,-0.09 -4.92,-0.21 -6.79,-0.34 -2.69,-17.61 1.98,-34.561 2.55,-38.43 0.82,-8.521 -4.61,-14.961 -1.63,-28.11 3.02,-13.26 -1.29,-20.58 -1.8,-27.32 -0.79,-10.47 9,-12.41 7.78,-21.569 -0.83,-6.33 -7.67,-10.351 -7.67,-16.9 0.9,-6.27 5.1,-8.33 3.23,-17.38 -1.23,-5.98 -7.92,-18.1 13.54,-31.5 14.98,-9.36 29.52,-9.16 35.29,-20.45 1.33,7.07 3.63,13.89 8.96,20.24 3.82,4.51 8.45,8.44 11.53,13.55 6.62,11.01 2.94,23.7 2.63,29.3 -0.359,6.38 2.601,11.88 3.891,17.97 1.329,6.221 -1.101,11.99 -2.79,17.87 -0.801,2.79 -1.131,5.24 -1.16,7.33 -0.021,0.42 -0.011,0.82 0.01,1.2 0.07,-0.2 0.13,-0.4 0.2,-0.6 2.92,-8.19 8.88,-14.63 9.069,-22.311 0.15,-6.24 -2.43,-12.18 -2.38,-18.41 0.04,-4.97 1.5,-9.75 2.28,-14.62 3.42,-21.26 -12.75,-23.67 -19.05,-37.72 -0.55,-1.22 -1,-2.53 -1.37,-3.92 1.03,1.59 2.09,3.15 3.18,4.7 9.32,13.23 17.49,18.92 23.021,29.05 8.14,14.94 0.609,23.57 -0.26,36.48 -0.37,5.34 0.89,10.62 0.5,15.949 -0.44,6.11 -2.83,9.49 -5.91,14.74 -8.48,14.48 -2.551,20.44 1.149,31.681 0,0.01 0,0.01 0.011,0.02 0,0.01 0,0.02 0.01,0.04 0.06,0.29 0.399,1.64 0.58,2.6 2.47,12.801 -8.271,33.25 -7,46.5 0.189,1.95 1.149,6.391 2.18,10.78 -4.942,0.54 -11.082,0.901 -22.601,1.13 z m 58.069,-56.01 c 0.23,11.67 -3.779,13.76 0.62,51.21 0.05,0.36 0.101,0.78 0.16,1.25 -0.48,0 -0.95,0.01 -1.42,0.02 -1.84,0.04 -3.67,0.011 -5.51,-0.039 0.1,-2.7 0.12,-5.761 0.01,-9.211 -0.37,-11.609 -1.271,-10.21 -1.96,-16.72 -1.4,-13.29 2.34,-18.39 0.58,-26.7 -0.51,-2.399 -1.3,-4.71 -1.67,-7.149 -1,-6.63 2.75,-12.141 5.88,-17.811 1.73,5.58 3.071,13.17 3.31,25.15 z m -3.27,-32.889 c -0.3,0.93 -0.641,1.85 -1.03,2.75 -0.13,0.33 -0.28,0.67 -0.43,1 -1.91,4.26 -4.44,8.229 -5.99,12.649 -2.75,7.811 0.18,13.36 0.98,16.62 1.52,6.19 -0.32,12.65 -0.351,18.9 -0.04,11 3.44,12.34 3.37,33.39 -4.53,-0.13 -9.07,-0.33 -13.56,0.271 2.06,-16.62 0.619,-14.61 -0.061,-22.931 -0.81,-9.91 0.98,-19.5 0.15,-29.01 -0.53,-6.16 -2.891,-11.83 -3.92,-17.88 -2.33,-13.641 8.3,-20.08 9.79,-30.95 0.13,-0.96 0.18,-1.92 0.159,-2.87 -0.09,-4.99 -1.939,-9.82 -2.279,-14.82 -0.95,-13.81 6.89,-23.83 2.939,-36.31 -6.029,-19.06 -29.489,-21.64 -35.67,-58.84 3.47,25.44 14.351,33.64 24.71,45 20,21.96 3.63,30.33 5.391,51.55 0.47,5.57 2.88,11.29 1.52,16.89 -2.63,9.311 -10.47,16.801 -9.56,27.45 0.54,6.36 3.43,12.23 4.51,18.49 2.16,12.51 -1.101,19.68 1.97,37.56 0.851,4.91 0.49,10.801 -0.13,16.73 -6.11,0.89 -9.729,1.57 -14.3,2.09 -0.5,-2.439 -1,-5 -1.44,-7.399 -1.46,-7.98 1.261,-16.2 3.49,-23.78 7.57,-25.69 4.73,-26.74 0.65,-38.74 -5.181,-15.21 4.37,-19.42 7.64,-29.62 1.85,-5.8 1.13,-11.689 0.49,-17.62 -1.48,-13.91 6.319,-22.229 2.01,-35.6 -3.73,-11.59 -13.66,-19.41 -21.34,-28.31 -3.51,-4.06 -6.7,-8.36 -9.71,-12.78 -1.5,-6.45 -1.561,-14.06 -1.95,-19.64 0.21,5.86 -0.04,12.16 0.94,18.12 0.05,0.35 0.109,0.7 0.18,1.05 0.58,3.08 1.52,6.07 3.06,8.84 4.49,8.07 13.801,14.1 16.28,22.24 2.65,10 -2.31,18.25 -1.78,27.66 0.351,6.24 3.13,12.181 2.96,18.47 -0.17,6.2 -5.109,12.65 -7.8,20.061 0.75,-7.42 5.58,-14.46 5,-22.16 -0.46,-6.08 -3.56,-11.66 -3.689,-17.79 -0.12,-5.9 4.8,-18.29 -1.62,-30.31 -5.641,-10.57 -16.391,-14.29 -21.19,-29.38 -0.649,-2.04 -1.18,-4.12 -1.62,-6.21 0.771,-1.63 1.37,-3.5 1.771,-5.66 0.22,-1.21 0.39,-2.52 0.479,-3.93 -0.319,3.73 -1.13,6.74 -2.319,9.21 -0.091,0.17 -0.17,0.34 -0.25,0.5 -7.3,13.98 -27.811,10.31 -44.78,26.38 -12.86,12.18 -6.32,21.79 -5.86,28.91 0.08,1.2 -0.02,3 -0.2,3.81 -2.05,6.79 -6.75,9.71 -0.6,19.42 1.43,2.18 3.1,4.35 3.95,6.85 3.03,8.94 -9.87,11.13 -6.69,26.25 0.93,4.44 3.23,11.04 2.73,18.4 -0.54,7.93 -3.21,9.53 -0.31,22.02 3.56,15.33 1.03,9.19 -0.51,27.25 -0.86,10.12 -0.11,17.67 0.83,22.75 -4.84,-0.33 -7.34,-0.72 -9.52,-0.819 0.37,-4.88 0.21,-11.96 -1.82,-21.521 -0.66,-3.08 -1.59,-6.14 -1.94,-9.28 -0.97,-8.659 3.67,-13.3 4.8,-20.64 1.32,-8.6 0.35,-18.29 2.66,-23.939 2.54,-6.2 -0.1,-10.631 -1.05,-16.011 -2.17,-12.26 6.13,-12.58 0.27,-27.8 -2.74,-7.11 -2.45,-9.54 -0.31,-15.15 1.21,-3.2 2.41,-6.25 2.91,-9.66 1.23,-8.52 -9.8,-15.96 4.03,-32.5 12.27,-14.69 33.52,-22.52 44.06,-24.38 -24.02,3.87 -53.765,23.204 -52.68,41.62 0.718,12.194 5.194,8.275 1.03,21.02 -1.131,3.463 -2.86,6.63 -3.18,10.31 -0.55,6.15 3.25,10.14 3.86,17.52 -0.01,4.38 -3.7,10.66 -2.82,17.51 0.66,5.19 3.89,10.84 1.99,16.26 -3.04,7.95 -0.95,18.17 -2.66,26.58 -1.21,5.92 -4.52,10.41 -4.16,17.45 0.16,3.03 1,5.96 1.76,8.88 2.81,10.771 3.25,18.51 3,23.72 -2.79,-0.109 -5.19,0.28 -11.5,1.881 -0.43,0.109 -0.84,0.21 -1.23,0.3 2.96,-13.15 -0.74,-34.23 -0.48,-44.141 0.15,-5.68 3.55,-12.09 4.53,-17.199 1.13,-5.94 -1.18,-16.721 -0.53,-25.051 0.68,-8.58 2.6,-11.8 3.97,-17.83 2.89,-12.81 -4.81,-18.869 -6.25,-28.049 -1.51,-9.55 6.76,-18.69 8.54,-28.86 1.84,-10.54 -6.38,-20.18 7.73,-35.03 17.72,-18.67 37.6,-18.53 48.35,-18.78 -10.2,-0.09 -23.39,-0.51 -37.87,8.75 -22.58,14.44 -21.43,26.67 -20.57,35.22 0.7,6.92 0.77,9.06 -1.55,14.79 -2.14,5.3 -4.97,9.74 -6.53,14.59 -1.49,4.64 -1.82,9.66 0.73,16.15 1,2.55 2.11,5.04 3.12,7.58 0.45,1.13 0.9,2.33 1.16,3.521 0.07,0.33 0.37,1.79 0.43,1.939 0.9,10.36 -4.19,15.76 -4.02,27.86 0.06,4.569 0.91,10.99 1.31,15.92 0.17,2.229 0.25,4.149 0.13,5.46 -0.46,4.89 -2.83,9.53 -3.94,15.42 -1.6,8.18 4.47,32.62 1.45,47.81 -3.44,0.811 -5.72,1.051 -9.64,1.141 0.24,-5.45 0.33,-13.87 -0.46,-24.561 -1.34,-18.06 -3.03,-33.71 1.85,-49.5 1.09,-3.52 2.06,-6.569 2.89,-9.319 0.27,-0.87 0.52,-1.721 0.75,-2.53 2.76,-9.7 3.33,-16.01 -0.12,-28.17 -0.06,-0.23 -0.13,-0.47 -0.2,-0.71 -0.47,-1.63 -1.01,-3.36 -1.63,-5.22 -4.55,-13.67 -7.18,-21.67 -0.22,-36.021 0.26,-0.55 0.54,-1.11 0.84,-1.68 0.17,-0.33 0.34,-0.66 0.52,-0.99 3.78,-7.04 8.31,-14.3 9.43,-22.38 0.96,-6.91 0.15,-13.47 1.02,-19.95 0.06,-0.51 0.14,-1.02 0.23,-1.53 0.25,-1.39 0.59,-2.78 1.05,-4.17 0.16,-0.47 0.33,-0.94 0.52,-1.41 0.96,-2.44 2.34,-4.87 4.32,-7.32 7.68,-9.49 20.29,-14.79 32.26,-15.77 11.01,-0.91 21.78,1.89 32.25,4.99 -10.66,-3.41 -21.62,-6.44 -32.93,-5.63 -7.45,0.52 -15.12,2.74 -21.75,6.57 -3.76,2.16 -7.19,4.84 -10.06,8.02 -1.62,1.79 -2.91,3.56 -3.94,5.32 0.54,-4.66 2.35,-9.17 5.52,-12.66 2.55,-2.82 6.34,-5.05 10.81,-6.74 0.42,-0.16 0.85,-0.32 1.29,-0.47 13.39,-4.65 32.04,-4.78 41.79,-1.59 2.5,0.82 4.86,1.79 7.25,2.86 -2.229,-1.17 -4.449,-2.22 -6.79,-3.15 -3.11,-1.24 -7.39,-2.23 -12.24,-2.82 -0.04,-0.01 -0.08,-0.02 -0.12,-0.02 -7.49,-0.9 -16.34,-0.83 -24.35,0.82 2.52,-1.47 5.18,-2.7 7.48,-3.53 7.47,-2.51 13.74,-2.78 20.5,-2.07 0.48,0.06 0.97,0.12 1.46,0.19 0.3,0.04 0.6,0.09 0.9,0.13 4.33,0.67 8.91,1.97 11.68,5.44 -1.94,-2.92 -5.87,-4.96 -10.4,-6.23 3.57,-2.06 5.04,-1.4 10.57,1.07 2.54,1.13 5.06,1.4 7.81,1.03 5.351,-0.74 6.75,-1.85 12.471,2.27 -8.311,-1.38 -16.07,-1.02 -19.28,2.82 -0.14,0.17 -0.28,0.35 -0.4,0.53 3.7,-4.46 12.721,-4.07 21.931,-1.63 0.7,0.18 1.41,0.38 2.12,0.59 8.18,2.41 16.189,6.28 20.439,9.62 6.351,5.01 9.08,10.24 10.76,15.54 -3.67,-5.64 -8.659,-10.68 -15.439,-14.44 -3.68,-2.04 -6.87,-3.54 -9.94,-4.61 -0.08,-0.03 -0.17,-0.06 -0.25,-0.08 -5.77,-1.99 -11.13,-2.48 -18.54,-2.31 2.971,0.11 5.86,0.28 8.811,0.68 10.81,1.46 19.54,7.1 27.17,14.37 3.81,3.63 8.13,10.5 11.479,18.97 2.431,6.18 4.351,13.22 5.17,20.47 -1.149,-1.81 -2.39,-3.5 -3.689,-5.07 -1.08,-8.84 -3.66,-17.23 -12.851,-25.45 -3.68,-3.3 -7.829,-5.56 -12.22,-7.75 4.25,2.46 8.33,5.1 11.71,8.72 6.63,7.1 9.91,15.51 11.71,22.56 -8.39,-9.27 -18.569,-14.3 -23.989,-18.8 -8.9,-7.37 -13.9,-15.68 -18.7,-20.12 -2.05,-1.88 -4.28,-3.27 -6.78,-4.46 1.87,0.97 3.62,2.01 5.24,3.38 1.63,1.38 3.06,3.02 4.41,4.69 0.189,0.24 0.38,0.48 0.569,0.72 6.3,7.97 10.65,14.53 22.521,22.64 6.859,4.69 13.01,9.95 17.72,16.41 0.37,0.51 0.72,1.02 1.07,1.54 1.38,2.04 2.609,4.2 3.68,6.49 0.23,0.49 0.45,0.98 0.66,1.48 0.16,0.38 0.32,0.76 0.47,1.15 1.521,3.84 2.73,8.06 3.05,12.21 0.091,3.32 -0.189,5.9 -0.83,8.38 -0.05,0.22 -0.109,0.44 -0.17,0.66 -0.83,2.91 -2.14,5.78 -3.899,9.66 -10.221,22.42 -3.7,29.99 -1.07,38.59 0.13,0.43 0.25,0.86 0.36,1.3 0.636,2.527 0.856,5.207 0.166,8.428 z m 1.18,-15.45 c -1.439,-4.26 -2.86,-8.94 -2.49,-15.03 0.511,-8.49 4.37,-14.73 7,-21.72 1.841,10.869 0.24,20.399 -4.51,36.75 z"
                filter="saturate(0.8)"
                stroke-width="none"
                opacity="1"
                style="display:inline"/>
    </g>
</svg>