<?xml version="1.0" encoding="UTF-8" standalone="no"?>
<?xml-stylesheet type="text/css" href="avatarpage_style.css" ?>
<svg
        id="bodyavatar"
        viewBox="0 0 205 247"
        preserveAspectRatio="xMinYMin"
        version="1.1"
        xmlns:xlink="http://www.w3.org/1999/xlink"
        xmlns="http://www.w3.org/2000/svg">
    <defs
            id="SvgjsDefs1136">
        <linearGradient
                id="linearGradient3474">
            <stop
                    style="stop-color:#8c8c8c;stop-opacity:0;"
                    offset="0"
                    id="stop3472"/>
            <stop
                    style="stop-color:#ffffff;stop-opacity:1;"
                    offset="1"
                    id="stop3470"/>
        </linearGradient>
        <linearGradient
                id="linearGradient2728">
            <stop
                    style="stop-color:#000000;stop-opacity:0.47183096;"
                    offset="0"
                    id="stop2726"/>
            <stop
                    style="stop-color:#ffffff;stop-opacity:1;"
                    offset="1"
                    id="stop2724"/>
        </linearGradient>
        <linearGradient
                id="linearGradient2720">
            <stop
                    style="stop-color:#ffffff;stop-opacity:1;"
                    offset="0"
                    id="stop2716"/>
            <stop
                    style="stop-color:#ffffff;stop-opacity:0;"
                    offset="1"
                    id="stop2718"/>
        </linearGradient>
        <linearGradient
                id="linearGradient2338">
            <stop
                    style="stop-color:#d55d1c;stop-opacity:0.82394373;"
                    offset="0.07289294"
                    id="stop2334"/>
            <stop
                    style="stop-color:#e8b9a0;stop-opacity:0;"
                    offset="1"
                    id="stop2336"/>
        </linearGradient>
        <linearGradient
                id="linearGradient917">
            <stop
                    style="stop-color:#868686;stop-opacity:0;"
                    offset="0.91116172"
                    id="stop915"/>
            <stop
                    style="stop-color:#ababab;stop-opacity:0.37676057;"
                    offset="1"
                    id="stop913"/>
        </linearGradient>
        <radialGradient
                xlink:href="#linearGradient917"
                id="radialGradient925"
                cx="125.45289"
                cy="84.715355"
                fx="125.45289"
                fy="84.715355"
                r="12.427374"
                gradientTransform="matrix(1,0,0,0.44257467,0,47.222484)"
                gradientUnits="userSpaceOnUse"/>
        <radialGradient
                xlink:href="#linearGradient2338"
                id="radialGradient2340"
                cx="121.66898"
                cy="82.999496"
                fx="121.66898"
                fy="82.999496"
                r="16.134024"
                gradientTransform="matrix(1,0,0,0.79544196,0,16.978215)"
                gradientUnits="userSpaceOnUse"/>
        <linearGradient
                xlink:href="#linearGradient2720"
                id="linearGradient2722"
                x1="122.28342"
                y1="87.562637"
                x2="124.24384"
                y2="87.562637"
                gradientUnits="userSpaceOnUse"/>
        <linearGradient
                xlink:href="#linearGradient2728"
                id="linearGradient2730"
                x1="125.46779"
                y1="82.898048"
                x2="127.94576"
                y2="82.898048"
                gradientUnits="userSpaceOnUse"/>
        <linearGradient
                xlink:href="#linearGradient3474"
                id="linearGradient3476"
                x1="126.00047"
                y1="81.210373"
                x2="130.94148"
                y2="81.210373"
                gradientUnits="userSpaceOnUse"/>
        <radialGradient
                xlink:href="#linearGradient2338"
                id="radialGradient3668"
                gradientUnits="userSpaceOnUse"
                gradientTransform="matrix(-1,0,0,0.79544196,199.04356,16.978215)"
                cx="121.66898"
                cy="82.999496"
                fx="121.66898"
                fy="82.999496"
                r="16.134024"/>
        <radialGradient
                xlink:href="#linearGradient917"
                id="radialGradient3670"
                gradientUnits="userSpaceOnUse"
                gradientTransform="matrix(-1,0,0,0.44257467,199.04356,47.222484)"
                cx="125.45289"
                cy="84.715355"
                fx="125.45289"
                fy="84.715355"
                r="12.427374"/>
        <linearGradient
                xlink:href="#linearGradient2720"
                id="linearGradient3684"
                gradientUnits="userSpaceOnUse"
                x1="122.28342"
                y1="87.562637"
                x2="124.24384"
                y2="87.562637"
                gradientTransform="translate(-52.550486,0.25)"/>
        <linearGradient
                xlink:href="#linearGradient2728"
                id="linearGradient3686"
                gradientUnits="userSpaceOnUse"
                x1="125.46779"
                y1="82.898048"
                x2="127.94576"
                y2="82.898048"
                gradientTransform="translate(-52.550486,0.25)"/>
        <linearGradient
                xlink:href="#linearGradient3474"
                id="linearGradient3688"
                gradientUnits="userSpaceOnUse"
                x1="126.00047"
                y1="81.210373"
                x2="130.94148"
                y2="81.210373"
                gradientTransform="translate(-52.550486,0.25)"/>
    </defs>
    <g id="body"
       transform="translate(2.5699229,11.219994)">

        <g
                id="sameskin"
                class="skin1">
            <g
                    id="ears">
                <path
                        id="SvgjsPath3390"
                        d="m 47.001,83.231 c -1.376,-2.453 -5.638,-8.48 -9.98,-7.003 -2.749,0.935 -3.293,3.993 -3.735,6.693 -0.588,3.591 0.471,10.694 1.389,13.26 0.881,2.467 3.533,7.23 5.264,9.045 2.13,2.225 4.775,9.324 5.194,10.061 0.66,1.162 1.536,2.911 4.122,2.692 2.853,-0.244 4.584,-1.85 5.856,-2.121 3.142,-0.666 -4.529,-26.242 -8.11,-32.627 z"
                        stroke-width="1.5"
                        opacity="1"/>
                <path
                        id="SvgjsPath3392"
                        d="m 152.736,83.231 c 1.377,-2.453 5.639,-8.48 9.98,-7.003 2.75,0.935 3.293,3.993 3.736,6.693 0.588,3.591 -0.471,10.694 -1.389,13.26 -0.881,2.467 -3.533,7.23 -5.266,9.045 -2.129,2.225 -4.775,9.324 -5.193,10.061 -0.658,1.162 -1.535,2.911 -4.121,2.692 -2.854,-0.244 -4.584,-1.85 -5.857,-2.121 -3.142,-0.666 4.53,-26.242 8.11,-32.627 z"
                        stroke-width="1.5"
                        opacity="1"/>
            </g>
            <g
                    id="humanbody">
                <path
                        id="SvgjsPath2914"
                        d="m 195.417,199.778 c -2.196,-4.746 -8.195,-11.779 -14.86,-13.722 -8.239,-2.403 -26.837,-5.308 -33.733,-6.923 -5.528,-1.296 -16.97295,-8.24674 -20.87495,-11.60274 -0.7,-0.6 -0.96205,-4.88626 -0.97605,-5.80726 -0.139,-10.864 4.195,-39.724 4.195,-39.724 H 100 70.833 c 0,0 4.334,28.859 4.193,39.724 -0.011,0.921 -0.0273,4.39881 -0.725299,4.99881 -3.902,3.356 -15.595701,11.11519 -21.123701,12.41119 -6.897,1.615 -25.495,4.619 -33.733,7.022 -6.667,1.942 -12.664,8.876 -14.86,13.622 -3.708,8.008 -4.584,22.5 -4.584,35 h 100 100 c 0,-12.499 -0.877,-26.991 -4.583,-34.999 z"
                        stroke-width="none"
                        opacity="1"
                        stroke="none"/>
                <path
                        id="SvgjsPath2915"
                        d="m 159.156,184.058 c 24.342,3.542 34.586,8.708 37.794,50.721 H 200 c 0,-12.5 -0.877,-26.992 -4.583,-35 -2.196,-4.746 -8.195,-11.779 -14.86,-13.722 -8.239,-2.403 -26.837,-5.308 -33.733,-6.923 -5.528,-1.296 -16.87384,-6.72074 -20.27484,-11.00174 3.36,4.704 11.42284,10.25674 19.68584,13.11174 3.953,1.366 7.245,1.988 12.921,2.814 z m -105.39,-2.814 c 8.263,-2.854 16.200463,-8.46993 19.561463,-13.17393 -3.4,4.28 -14.621463,9.76793 -20.150463,11.06393 -6.896,1.615 -25.494,4.619 -33.733,7.022 -6.665,1.942 -12.664,8.876 -14.86,13.622 -3.706,8.008 -4.583,22.5 -4.583,35 h 3.05 c 3.188,-41.744 13.475,-47.183 37.794,-50.721 5.675,-0.825 8.968,-1.447 12.921,-2.813 z"
                        filter="brightness(1.1)"
                        stroke-width="none"
                        opacity="1"
                        stroke="none"/>
                <path
                        id="SvgjsPath2916"
                        d="m 95.646,197.62 c 0,0 -5.074,-1.609 -7.083,-2.379 -10.449,-4.009 -44.395,-6.607 -44.395,-6.607 0,0 35.754,1.419 43.644,2.779 -0.458,-4.767 -3.017,-20.004 -3.017,-20.004 0,0 5.149,16.815 6.409,21.057 0.674,2.268 4.442,5.154 4.442,5.154 z m 10.799,-1.342 c -0.089,0.073 -0.191,0.168 -0.302,0.268 0.113,-0.085 0.215,-0.174 0.302,-0.268 z m -10.799,1.342 c 0,0 2.893,2.992 4.347,3.03 1.91,0.051 4.828,-2.899 6.151,-4.104 -1.265,0.957 -4.159,1.391 -5.31,1.436 -1.33,0.051 -5.188,-0.362 -5.188,-0.362 z m 21.018,-7.519 c -1.545,0.248 -4.386,0.789 -4.386,0.789 L 114.565,176 c -0.646,3.071 -4.474,16.211 -8.12,20.278 1.91,-1.616 6.158,-2.391 8.324,-2.704 10.236,-1.484 10.232,-1.483 41.062,-4.94 0,0 -29.071,-0.155 -39.167,1.467 z"
                        filter="brightness(0.95)"
                        stroke-width="none"
                        opacity="1"
                        stroke="none"/>
                <path
                        id="SvgjsPath2917"
                        d="m 195.417,199.778 c -2.196,-4.746 -8.195,-11.779 -14.86,-13.722 -8.239,-2.403 -26.837,-5.308 -33.733,-6.923 -5.528,-1.296 -16.78638,-8.24674 -20.68838,-11.60274 -0.7,-0.6 -1.14862,-4.88626 -1.16262,-5.80726 -0.139,-10.864 4.195,-39.724 4.195,-39.724 H 100 70.833 c 0,0 4.334,28.859 4.193,39.724 -0.011,0.921 -0.524811,5.14507 -1.222811,5.74507 -3.902,3.356 -15.098189,10.36893 -20.626189,11.66493 -6.897,1.615 -25.495,4.619 -33.733,7.022 -6.667,1.942 -12.664,8.876 -14.86,13.622 -3.708,8.008 -4.584,22.5 -4.584,35 h 100 100 c 0,-12.499 -0.877,-26.991 -4.583,-34.999 z"
                        fill="none"
                        stroke-width="1.5"
                        opacity="1"/>
            </g>
            <g
                    id="chinshadow">
                <path
                        id="SvgjsPath3441"
                        d="m 75.664189,162.84119 c 7.126,5.302 15.434811,9.02481 24.338811,9.02481 8.902,0 17.20682,-3.74991 24.33182,-9.04891 -0.104,-0.358 -0.10782,-0.74909 -0.11282,-1.08409 -0.088,-6.862 1.561,-20.607 2.82,-30.025 -15.654,-1.97 -38.431,-1.97 -54.084,0 1.26,9.419 2.908,23.163 2.819,30.024 -0.004,0.331 -0.0078,0.75019 -0.112811,1.10919 z"
                        filter="brightness(0.95)"
                        stroke-width="0"
                        opacity="1"/>
            </g>
            <g
                    id="faceshape">
                <path
                        id="SvgjsPath3334"
                        d="M 100.002,0.867 C 66.381,0.813 39.186,28.343 39.134,62.366 c -0.008,5.403 0.669,10.645 1.953,15.641 h 0.004 c 0.011,0.054 8.713,39.241 14.519,51.175 6.073,12.487 23.814,32.685 44.392,32.685 20.582,0 38.32,-20.197 44.392,-32.685 5.805,-11.935 14.507,-51.122 14.519,-51.175 h 0.005 C 160.201,73.01 160.879,67.769 160.87,62.366 160.819,28.343 133.623,0.813 100.002,0.867 Z"
                        stroke-width="0"
                        opacity="1"/>
                <path
                        id="SvgjsPath3335"
                        d="m 120.754,4.512 c 21.441,9.489 36.411,31.135 36.45,56.363 0.008,5.403 -0.669,10.645 -1.953,15.641 h -0.005 c -0.011,0.054 -8.713,39.24 -14.519,51.177 -5.709,11.738 -21.608,32.469 -40.725,32.469 -19.117,0 -35.016,-20.73 -40.725,-32.469 C 53.471,115.756 44.77,76.57 44.758,76.516 H 44.754 C 43.47,71.519 42.792,66.278 42.801,60.875 42.839,35.646 57.809,14.001 79.251,4.512 55.865,13.062 39.175,35.72 39.134,62.366 c -0.008,5.403 0.669,10.645 1.953,15.641 h 0.004 c 0.011,0.054 8.713,39.241 14.519,51.175 6.073,12.487 23.814,32.685 44.392,32.685 20.579,0 38.319,-20.197 44.392,-32.685 5.805,-11.935 14.507,-51.122 14.519,-51.175 h 0.005 C 160.201,73.01 160.879,67.769 160.87,62.366 160.83,35.72 144.14,13.062 120.754,4.512 Z"
                        filter="brightness(0.95)"
                        stroke-width="0"
                        opacity="0.8"/>
                <path
                        id="SvgjsPath3336"
                        d="M 100.002,0.867 C 66.381,0.813 39.186,28.343 39.134,62.366 c -0.008,5.403 0.669,10.645 1.953,15.641 h 0.004 c 0.011,0.054 8.713,39.241 14.519,51.175 6.073,12.487 23.814,32.685 44.392,32.685 20.582,0 38.32,-20.197 44.392,-32.685 5.805,-11.935 14.507,-51.122 14.519,-51.175 h 0.005 C 160.201,73.01 160.879,67.769 160.87,62.366 160.819,28.343 133.623,0.813 100.002,0.867 Z"
                        fill="none"
                        stroke-width="1.5"
                        opacity="1"/>
            </g>
            <g
                    id="nose">

                <path
                        id="SvgjsPath3437"
                        d="m 100.089,111.999 c 0.607,0 1.742,-0.74 1.792,-2.23 0.201,-6.008 -0.956,-23.833 -1.792,-23.77 -0.78,0.059 -2.267,17.637 -1.948,23.77 0.079,1.502 1.263,2.23 1.948,2.23 z"
                        filter="brightness(1.3)"
                        stroke-width="0"
                        opacity="0.2"/>
            </g>
        </g>
        <g
                id="sameskin1"
                class="skin11">
            <g
                    id="ears">

                <path
                        id="SvgjsPath3391"
                        d="m 44.197,98.104 c -0.132,-0.581 0.007,-1.56 0.142,-2.504 0.124,-0.861 0.24,-1.675 0.169,-2.251 -0.267,-2.154 -1.773,-6.249 -2.757,-8.467 -1.132,-2.554 -2.963,-5.77 -5.262,-6.599 -0.95,-0.343 -1.575,0.067 -1.938,0.484 -0.266,0.305 -0.325,0.665 -0.238,0.707 0.086,0.042 0.285,-0.254 0.572,-0.535 0.235,-0.229 0.579,-0.426 1.051,-0.385 -0.19,1.073 -1.167,6.883 -0.744,10.845 0.333,3.115 1.593,5.442 1.79,5.791 0.029,0.367 0.077,0.726 0.148,1.075 0.929,4.547 4.971,9.717 6.378,11.409 0.259,0.313 0.531,0.497 0.598,0.423 0.066,-0.076 -0.094,-0.387 -0.353,-0.7 -1.388,-1.679 -5.391,-6.831 -6.289,-11.218 -0.952,-4.656 2.318,-11.556 3.048,-13.017 0.371,0.685 0.687,1.344 0.93,1.893 0.19,0.431 0.402,0.936 0.619,1.479 -0.429,0.762 -3.434,6.32 -2.338,10.767 0.406,1.641 2.235,3.755 3.447,4.333 0.667,0.32 0.919,0.797 1.209,1.349 0.336,0.64 0.718,1.365 1.828,1.892 0.225,0.108 0.429,0.151 0.61,0.151 0.313,0 0.551,-0.135 0.725,-0.293 0.018,0.28 0.017,0.64 0.009,0.97 -0.012,0.431 0.042,0.783 0.137,0.791 0.094,0.008 0.196,-0.332 0.207,-0.76 0.016,-0.526 0.013,-1.177 -0.072,-1.488 -0.248,-0.917 -1.008,-1.953 -1.813,-3.048 -0.789,-1.082 -1.607,-2.195 -1.813,-3.094 z M 36.95,94.073 c -2.177,-7.139 0.656,-13.3 1.144,-14.28 0.85,0.822 1.6,1.919 2.21,2.995 -0.444,0.858 -3.263,6.483 -3.354,11.285 z m 9.391,10.442 c -1.004,-0.475 -1.339,-1.115 -1.666,-1.733 -0.293,-0.559 -0.598,-1.136 -1.369,-1.505 -0.168,-0.081 -0.352,-0.203 -0.542,-0.343 -2.486,-6.263 0.272,-9.001 0.963,-9.562 0.211,0.766 0.369,1.468 0.439,2.031 0.063,0.517 -0.052,1.339 -0.167,2.134 -0.142,0.985 -0.286,2.004 -0.137,2.664 0.226,0.982 1.069,2.131 1.884,3.242 0.723,0.986 1.466,2.003 1.721,2.832 -0.108,0.164 -0.45,0.561 -1.126,0.24 z"
                        stroke-width="1"
                        opacity="1"/>

                <path
                        id="SvgjsPath3393"
                        d="m 153.727,101.196 c -0.805,1.096 -1.564,2.131 -1.813,3.048 -0.086,0.311 -0.088,0.962 -0.072,1.488 0.012,0.428 0.113,0.768 0.207,0.76 0.094,-0.008 0.148,-0.36 0.137,-0.791 -0.008,-0.331 -0.008,-0.69 0.01,-0.97 0.174,0.158 0.412,0.293 0.725,0.293 0.182,0 0.385,-0.043 0.609,-0.151 1.109,-0.526 1.492,-1.252 1.828,-1.892 0.289,-0.552 0.543,-1.028 1.209,-1.349 1.213,-0.578 3.041,-2.692 3.447,-4.333 1.096,-4.447 -1.908,-10.005 -2.338,-10.767 0.217,-0.544 0.43,-1.049 0.619,-1.479 0.244,-0.549 0.559,-1.208 0.93,-1.893 0.73,1.46 4,8.361 3.049,13.017 -0.896,4.387 -4.9,9.539 -6.289,11.218 -0.258,0.313 -0.418,0.624 -0.352,0.7 0.066,0.074 0.338,-0.109 0.598,-0.423 1.406,-1.692 5.449,-6.862 6.379,-11.409 0.07,-0.35 0.117,-0.708 0.146,-1.075 0.197,-0.349 1.459,-2.676 1.791,-5.791 0.422,-3.961 -0.555,-9.772 -0.744,-10.845 0.473,-0.042 0.814,0.156 1.051,0.385 0.287,0.281 0.486,0.577 0.572,0.535 0.086,-0.042 0.027,-0.402 -0.238,-0.707 -0.363,-0.417 -0.988,-0.827 -1.938,-0.484 -2.299,0.83 -4.131,4.045 -5.262,6.599 -0.984,2.218 -2.49,6.313 -2.758,8.467 -0.072,0.576 0.045,1.39 0.17,2.251 0.135,0.945 0.273,1.924 0.141,2.504 -0.205,0.901 -1.023,2.014 -1.814,3.094 z m 5.707,-18.409 c 0.611,-1.075 1.361,-2.173 2.211,-2.995 0.488,0.98 3.32,7.141 1.145,14.28 -0.093,-4.801 -2.911,-10.426 -3.356,-11.285 z m -7.164,21.488 c 0.254,-0.829 0.998,-1.846 1.721,-2.832 0.816,-1.111 1.658,-2.26 1.885,-3.242 0.148,-0.66 0.004,-1.679 -0.137,-2.664 -0.115,-0.795 -0.23,-1.617 -0.166,-2.134 0.068,-0.563 0.227,-1.266 0.438,-2.031 0.691,0.561 3.449,3.299 0.965,9.562 -0.191,0.14 -0.375,0.263 -0.543,0.343 -0.771,0.369 -1.074,0.946 -1.369,1.505 -0.326,0.618 -0.662,1.258 -1.666,1.733 -0.677,0.321 -1.019,-0.076 -1.128,-0.24 z"
                        stroke-width="none"
                        opacity="1"/>
            </g>
            <g
                    id="nose">
                <path
                        id="SvgjsPath3435"
                        d="m 91.115,115.499 c -0.878,2.064 5.934,4.292 8.519,4.429 2.8,0.147 10.646,-2.9 9.316,-4.992 -1.399,-2.195 -6.643,-0.286 -8.906,-0.286 -2.252,-0.001 -7.753,-1.905 -8.929,0.849 z"
                        stroke-width="0"
                        opacity="0.5"/>
                <path
                        id="SvgjsPath3436"
                        d="m 101.857,117.058 c -0.23,-0.759 1.876,-1.584 2.657,-1.694 1.101,-0.16 3.36,0.802 3.158,1.592 -0.184,0.698 -2.148,-0.533 -2.86,-0.429 -0.734,0.107 -2.737,1.242 -2.955,0.531 z m -6.883,-0.247 c 0.968,0 2.404,0.623 2.668,0.074 0.315,-0.655 -2.139,-1.461 -2.86,-1.372 -0.596,0.07 -2.733,1.315 -2.439,1.839 0.274,0.481 1.355,-0.541 2.631,-0.541 z"
                        stroke-width="0"
                        opacity="1"/>
            </g>
            <g
                    id="mouth"
                    transform="matrix(0.9499999,0,0,0.9499999,5.0001506,6.8585926)">
                <path
                        id="SvgjsPath3820"
                        d="m 96.227,139.237 8.297,-0.207 c -0.961,4.47 -7.64,3.828 -8.297,0.207 z"
                        opacity="0.3"/>
                <path
                        id="SvgjsPath3824"
                        d="m 96.343,139.52 c -0.371,-0.05 -0.315,-0.579 0.08,-0.542 0.043,0.006 4.308,0.546 7.878,-0.215 0.386,-0.075 0.5,0.455 0.13,0.534 -2.797,0.598 -6.416,0.458 -8.088,0.223 z m 3.74,-3.57 c -1.503,0 -2.96,-0.521 -4.424,-0.776 -1.64,-0.287 -3.274,-0.041 -4.915,0.104 -1.676,0.149 -5.333,-0.013 -6.365,-0.666 -0.578,-0.367 -0.47,-1.221 0.181,-1.449 0.614,-0.22 1.571,0.236 2.191,0.347 2.872,0.515 4.384,-0.034 6.902,-0.118 3.851,-0.116 4.26,1.501 9.064,0.53 5.165,-1.044 7.491,-0.254 11.197,-1.37 0.508,-0.154 1.112,-0.56 1.645,-0.286 0.615,0.318 0.585,1.185 -0.049,1.464 -3.406,1.502 -7.174,0.895 -10.955,1.526 -1.482,0.246 -2.959,0.694 -4.472,0.694 z"
                        stroke-width="0"
                        opacity="1"/>
            </g>
            <g id="eye">
                <path
                        id="SvgjsPath5558"
                        d="m 137.452,77.417 c -4.208,-1.978 -9.35,-2.16 -13.838,-1.005 -2.404,0.561 -4.965,1.285 -7.063,2.638 -1.945,1.135 -3.525,2.5 -5.002,4.19 1.342,-1.701 2.773,-3.118 4.623,-4.27 2.276,-1.416 4.769,-2.294 7.364,-2.916 4.587,-1.126 9.723,-0.87 13.916,1.363 z"
                        stroke-width="0"
                        opacity="1"
                        style="display:inline"/>
                <path
                        id="path3658"
                        d="m 61.59156,77.417 c 4.208,-1.978 9.35,-2.16 13.838,-1.005 2.404,0.561 4.965,1.285 7.063,2.638 1.945,1.135 3.525,2.5 5.002,4.19 -1.342,-1.701 -2.773,-3.118 -4.623,-4.27 -2.276,-1.416 -4.769,-2.294 -7.364,-2.916 -4.587,-1.126 -9.723,-0.87 -13.916,1.363 z"
                        stroke-width="0"
                        opacity="1"
                        style="display:inline"/>
                <!--<path
                        id="path3654"
                        d="m 71.70456,90.163 c 3.614,0.398 13.873,-1.561 14.253,-2.847 0.687,-2.32 -4.534,-6.921 -12.052,-7.844 -6.46,-0.792 -11.563,0.345 -12.556,2.128 0.898,-6.4 7.7,-11.397 15.987,-11.434 8.911,-0.037 16.148,5.676 16.172,12.765 0.021,7.088 -7.185,12.862 -16.095,12.902 -8.913,0.037 -16.149,-5.676 -16.173,-12.764 0,-0.105 0.016,-0.208 0.019,-0.313 1.331,5.327 6.835,7.008 10.445,7.407 z"
                        opacity="1"
                        style="display:inline;fill:url(#radialGradient3668);fill-opacity:1"/>
                <path
                        id="SvgjsPath5549"
                        d="m 127.339,90.163 c -3.614,0.398 -13.873,-1.561 -14.253,-2.847 -0.687,-2.32 4.534,-6.921 12.052,-7.844 6.46,-0.792 11.563,0.345 12.556,2.128 -0.898,-6.4 -7.7,-11.397 -15.987,-11.434 -8.911,-0.037 -16.148,5.676 -16.172,12.765 -0.021,7.088 7.185,12.862 16.095,12.902 8.913,0.037 16.149,-5.676 16.173,-12.764 0,-0.105 -0.016,-0.208 -0.019,-0.313 -1.331,5.327 -6.835,7.008 -10.445,7.407 z"
                        fill="#ffffff"
                        opacity="1"
                        style="display:inline;fill:url(#radialGradient2340);fill-opacity:1"/>-->
            </g>
        </g>


        <!--<g id="nose" transform="matrix(1,0,0,1,0,0)"> &lt;!&ndash;!!!!!!!!!!!!!alternative nose!!!!!!!!&ndash;&gt;
                    <path id="SvgjsPath3616"
                          d="M105.07 117.886c1.053 0 1.338 0.28 1.338 0.625 0 0.347-0.328 0.879-1.338 0.624 -1.109-0.276-3.046-0.148-3.046-0.148S104.018 117.886 105.07 117.886zM95.017 117.886c-1.054 0.001-1.337 0.282-1.337 0.628 -0.001 0.345 0.317 0.842 1.337 0.624 1.125-0.241 3.046-0.149 3.046-0.149S96.071 117.89 95.017 117.886zM108.609 114.148c0 0 1.458 1.654 1.154 3.403 -0.294 1.699-3.238 2.447-3.238 2.447s2.044-1.297 2.292-2.873C108.933 116.39 108.609 114.148 108.609 114.148zM90.617 112.446c0 0-1.063 2.316-0.755 3.727 0.558 2.547 3.625 3.565 3.625 3.565s-1.914-1.747-2.594-3.291C90.149 114.763 90.617 112.446 90.617 112.446z"
                          fill="#c27b55"
                          stroke-width="none" opacity="1"/>
                    <path id="SvgjsPath3617"
                          d="M105.019 115.38c1.021-0.761 1.124-1.195 0.912-1.479 -0.21-0.284-0.823-0.464-1.678 0.453 -0.942 1.012-2.991 1.758-2.991 1.758S103.997 116.143 105.019 115.38z"
                          fill="#ffe4d6"
                          stroke-width="none" opacity="1"/>
                </g>-->

        <g
                id="clothes">
            <path
                    id="SvgjsPath3219"
                    d="m 111.806,235.888 c -19.135,0 -41.455,-0.074 -68.233,-0.229 L 19.894,235.531 C 5.596,235.453 4.753,235.437 3.007,235.437 l -4.899,0.007 c -4.571,-41.875 14.41,-52.87 43.762,-56.708 7.789,-1.097 15.449,-3.097 21.459,-6.972 16.327,22.243 64.811,17.562 73.103,-0.629 1.39,0.53 2.539,1.215 3.977,1.734 4.666,3.433 11.072,5.836 17.628,6.199 26.008,1.441 44.419,12.996 44.057,54.64 0.003,0.165 0.004,1.175 -0.013,1.49 -12.513,0 -17.206,0.121 -27.034,0.262 -13.331,0.19 -29.923,0.427 -63.229,0.427 -0.005,0.001 -0.008,0.001 -0.012,0.001 z"
                    fill="#8e2f48"
                    stroke-width="none"
                    opacity="1"/>
            <path
                    id="SvgjsPath3220"
                    d="m 201.055,234.64 c -0.41,-7.385 -4.064,-28.058 -10.36,-37.541 -12.482,-18.805 -42.26,-12.206 -49.132,-19.693 -4.986,10.159 -24.975,16.595 -31.594,17.54 19.181,-6.36 27.237,-10.959 30.42,-21.87 6.405,8.33 41.074,1.971 54.717,24.331 3.995,6.547 7.794,27.386 5.949,37.233 z M 55.811,177.628 c 1.357,-0.315 2.034,-1.249 3.381,-1.614 l -1.426,-1.891 c -9.049,7.052 -42.909,2.645 -54.519,24.036 -3.659,6.741 -6.127,22.788 -4.192,36.439 0.537,-8.384 0.799,-26.314 7.095,-35.798 11.324,-17.06 31.974,-12.553 47.619,-19.775 6.983,8.6 17.888,12.828 28.984,14.577 C 68.832,189.971 60.85,183.84 55.811,177.628 Z"
                    fill="#9d445b"
                    stroke-width="none"
                    opacity="1"/>
            <path
                    id="SvgjsPath3221"
                    d="m 135.31,173.244 c -5.532,11.514 -47.35,24.923 -70.93,0.879 -1.466,0.622 -5.852,2.112 -5.852,2.112 17.176,23.386 67.511,23.534 80.909,-0.114 -0.059,-0.023 -2.765,-2.185 -4.127,-2.877 z"
                    fill="#7f1d37"
                    stroke-width="none"
                    opacity="1"/>
            <path
                    id="SvgjsPath3222"
                    d="m 136.38,171.002 c -9.413,18.822 -58.397,21.485 -73.012,0.632 -5.337,1.578 -10.469,4.941 -15.636,5.782 -30.92,4.605 -53.778,6.919 -49.732,58.136 9.94,0 -6.611,-0.065 45.571,0.215 123.59,0.71 119.562,-0.461 158.606,-0.461 0.029,-0.14 0.015,-1.452 0.021,-1.596 2.096,-56.436 -30.852,-53.104 -53.12,-56.995 -3.144,-0.718 -6.066,-2.773 -8.635,-3.945 -1.419,-0.649 -2.625,-1.232 -4.063,-1.768 z m -73.366,1.263 c 12.974,23.392 64.219,18.699 74.113,0.101 1.2,0.504 1.507,0.704 2.898,1.197 -10.248,21.489 -60.942,28.337 -81.677,1.163 0.146,-0.041 3.204,-1.913 4.666,-2.461 z m -63.859,62.513 c -2.421,-26.431 1.797,-48.043 32.78,-53.345 10.276,-1.896 16.557,-1.962 25.384,-5.794 16.763,27.405 72.098,23.158 83.598,-1.305 1.652,1.409 4.228,3.03 7.405,3.785 18.098,4.299 54.838,-0.894 52.898,56.658 -54.057,-0.702 -98.865,-2.344 -202.065,0.001 z"
                    fill="#60031b"
                    stroke-width="none"
                    opacity="1"/>
        </g>
        <g
                id="right-eye">
            <path
                    id="SvgjsPath5513"
                    d="m 137.849,82.523 c 0.506,-2.285 -5.191,-3.973 -12.711,-3.051 -7.518,0.923 -12.738,5.524 -12.052,7.844 0.38,1.286 10.639,3.245 14.253,2.847 3.664,-0.405 9.288,-2.123 10.51,-7.64 z"
                    fill="#ffffff"
                    opacity="1"
                    style="display:inline"/>
            <path
                    id="iris_right"
                    class="blue_eyes"
                    d="m 132,84 c 0,3.313 -2.687,6 -5.999,6 C 122.688,90 120,87.313 120,84 v 0 c 0,-3.314 2.688,-6 6.001,-6 3.312,-0.001 5.999,2.686 5.999,6 z"
                    stroke-width="0"
                    opacity="1"
                    style="display:inline"
                    transform="translate(-0.25,0.25)"/>
            <path
                    id="SvgjsPath5235"
                    d="m 125.328,78.066 c -0.023,0.003 -0.047,0.006 -0.071,0.009 0.029,0.135 0.058,0.271 0.085,0.406 -0.006,-0.137 -0.009,-0.277 -0.014,-0.415 z m 0.013,0.414 c 0.069,1.972 0.185,3.729 0.518,4.364 0.174,-0.696 -0.124,-2.43 -0.518,-4.364 z m 0.517,4.365 c -0.042,0.167 -0.108,0.281 -0.207,0.319 -0.101,0.038 -0.226,-0.006 -0.367,-0.103 0.04,0.167 0.036,0.297 -0.036,0.378 -0.072,0.081 -0.201,0.101 -0.372,0.078 0.112,0.13 0.171,0.249 0.146,0.353 -0.028,0.104 -0.134,0.182 -0.293,0.242 0.158,0.063 0.265,0.141 0.29,0.245 0.025,0.104 -0.032,0.223 -0.145,0.352 0.17,-0.021 0.3,10e-4 0.37,0.082 0.071,0.081 0.075,0.212 0.035,0.379 0.141,-0.097 0.266,-0.139 0.365,-0.1 0.102,0.038 0.166,0.152 0.206,0.32 0.08,-0.152 0.172,-0.249 0.279,-0.26 0.105,-0.014 0.217,0.059 0.329,0.188 0.002,-0.172 0.037,-0.299 0.128,-0.36 0.087,-0.061 0.219,-0.049 0.379,0.013 -0.078,-0.152 -0.104,-0.281 -0.056,-0.377 0.051,-0.095 0.174,-0.146 0.345,-0.166 -0.141,-0.099 -0.228,-0.2 -0.225,-0.308 -10e-4,-0.108 0.084,-0.209 0.227,-0.306 -0.171,-0.021 -0.291,-0.072 -0.342,-0.167 -0.05,-0.095 -0.022,-0.225 0.057,-0.377 -0.161,0.06 -0.291,0.072 -0.38,0.011 -0.089,-0.061 -0.124,-0.188 -0.125,-0.36 -0.111,0.128 -0.224,0.199 -0.33,0.185 -0.107,-0.014 -0.198,-0.108 -0.278,-0.261 z m 0.608,0.075 c 0.479,-0.535 1.021,-2.209 1.569,-4.104 -0.853,1.777 -1.567,3.386 -1.569,4.104 z m 1.569,-4.104 c 0.06,-0.122 0.121,-0.246 0.179,-0.37 -0.021,-0.007 -0.042,-0.017 -0.063,-0.026 -0.039,0.133 -0.077,0.266 -0.116,0.396 z m -1.063,4.454 c 0.673,-0.252 1.932,-1.483 3.298,-2.905 -1.582,1.176 -2.963,2.269 -3.298,2.905 z m 3.298,-2.905 c 0.1,-0.075 0.202,-0.15 0.305,-0.225 -0.015,-0.018 -0.03,-0.033 -0.042,-0.049 -0.088,0.09 -0.175,0.183 -0.263,0.274 z m -3.015,3.449 c 0.713,0.088 2.399,-0.417 4.271,-1.041 -1.948,0.308 -3.678,0.633 -4.271,1.041 z m 4.271,-1.04 c 0.11,-0.016 0.225,-0.034 0.337,-0.052 -0.005,-0.019 -0.009,-0.038 -0.014,-0.057 -0.107,0.036 -0.217,0.073 -0.323,0.109 z m -4.273,1.653 c 0.591,0.412 2.318,0.747 4.263,1.063 -1.866,-0.633 -3.549,-1.148 -4.263,-1.063 z m 4.263,1.063 c 0.095,0.033 0.19,0.067 0.285,0.098 0.005,-0.017 0.009,-0.033 0.013,-0.05 -0.098,-0.015 -0.2,-0.031 -0.298,-0.048 z m -4.551,-0.52 c 0.332,0.637 1.708,1.738 3.282,2.924 -1.358,-1.43 -2.609,-2.668 -3.282,-2.924 z m 3.283,2.922 c 0.059,0.062 0.119,0.126 0.178,0.189 0.01,-0.012 0.02,-0.021 0.031,-0.032 -0.07,-0.052 -0.142,-0.105 -0.209,-0.157 z m -3.787,-2.575 c -0.003,0.719 0.702,2.331 1.547,4.113 -0.54,-1.897 -1.071,-3.575 -1.547,-4.113 z m 1.547,4.114 c 0.021,0.075 0.043,0.152 0.063,0.229 0.015,-0.006 0.026,-0.01 0.039,-0.014 -0.034,-0.072 -0.069,-0.146 -0.102,-0.215 z m -2.157,-4.042 c -0.336,0.637 -0.461,2.39 -0.542,4.361 0.404,-1.93 0.713,-3.663 0.542,-4.361 z m -0.542,4.361 c -0.017,0.075 -0.031,0.151 -0.047,0.228 0.014,0.003 0.024,0.003 0.039,0.005 0.002,-0.077 0.006,-0.157 0.008,-0.233 z m -0.03,-4.581 c -0.596,0.407 -1.521,1.904 -2.508,3.61 1.255,-1.52 2.334,-2.912 2.508,-3.61 z m -2.508,3.61 c -0.052,0.063 -0.107,0.13 -0.161,0.193 0.013,0.008 0.024,0.014 0.037,0.024 0.041,-0.072 0.084,-0.145 0.124,-0.217 z m 2.103,-4.069 c -0.716,0.083 -2.23,0.978 -3.897,2.029 1.818,-0.762 3.418,-1.491 3.897,-2.029 z m -3.897,2.031 c -0.087,0.036 -0.175,0.072 -0.263,0.11 0.006,0.013 0.014,0.027 0.023,0.04 0.08,-0.049 0.16,-0.1 0.24,-0.15 z m 3.752,-2.628 c -0.672,-0.257 -2.43,-0.168 -4.396,-0.011 1.965,0.168 3.722,0.265 4.396,0.011 z m -4.396,-0.011 c -0.106,-0.01 -0.217,-0.02 -0.322,-0.029 -10e-4,0.019 -0.003,0.038 -10e-4,0.056 0.109,-0.01 0.218,-0.019 0.323,-0.027 z m 4.543,-0.583 c -0.474,-0.539 -2.069,-1.277 -3.882,-2.051 1.659,1.06 3.169,1.964 3.882,2.051 z m -3.882,-2.051 c -0.104,-0.067 -0.21,-0.134 -0.315,-0.201 -0.009,0.019 -0.019,0.038 -0.028,0.055 0.115,0.049 0.232,0.097 0.343,0.146 z m 4.29,1.593 c -0.169,-0.698 -1.241,-2.094 -2.485,-3.623 0.976,1.712 1.893,3.213 2.485,3.623 z m -2.485,-3.623 c -0.067,-0.115 -0.133,-0.232 -0.198,-0.349 -0.019,0.013 -0.039,0.026 -0.057,0.039 0.085,0.103 0.172,0.207 0.255,0.31 z"
                    fill="#ffffff"
                    opacity="0.7"
                    style="display:inline;fill:#ffffff;fill-opacity:0.455556"
                    transform="translate(-0.25,0.25)"/>
            <path
                    id="SvgjsPath5239"
                    d="m 126.886,78.086 c -0.024,-0.003 -0.047,-0.007 -0.07,-0.01 -0.008,0.138 -0.016,0.277 -0.024,0.414 0.029,-0.134 0.062,-0.27 0.094,-0.404 z m -0.095,0.403 c -0.443,1.922 -0.787,3.649 -0.63,4.35 0.35,-0.628 0.51,-2.38 0.63,-4.35 z m -0.63,4.35 c -0.084,0.15 -0.177,0.243 -0.283,0.254 -0.106,0.01 -0.216,-0.064 -0.327,-0.195 -0.004,0.171 -0.042,0.297 -0.133,0.356 -0.09,0.059 -0.221,0.045 -0.38,-0.021 0.075,0.155 0.101,0.285 0.049,0.378 -0.054,0.094 -0.176,0.142 -0.346,0.158 0.138,0.101 0.22,0.204 0.217,0.312 -0.002,0.107 -0.089,0.207 -0.23,0.302 0.17,0.024 0.289,0.079 0.337,0.174 0.048,0.096 0.018,0.225 -0.064,0.375 0.162,-0.057 0.293,-0.065 0.38,-0.002 0.087,0.063 0.12,0.19 0.115,0.363 0.117,-0.125 0.229,-0.196 0.337,-0.179 0.105,0.014 0.194,0.113 0.27,0.268 0.046,-0.167 0.113,-0.279 0.216,-0.315 0.101,-0.036 0.226,0.01 0.363,0.111 -0.035,-0.167 -0.028,-0.299 0.045,-0.378 0.072,-0.079 0.204,-0.096 0.375,-0.072 -0.11,-0.132 -0.168,-0.251 -0.138,-0.355 0.027,-0.104 0.136,-0.18 0.299,-0.237 -0.159,-0.064 -0.263,-0.145 -0.288,-0.25 -0.022,-0.105 0.038,-0.223 0.154,-0.349 -0.172,0.016 -0.302,-0.006 -0.37,-0.088 -0.07,-0.082 -0.072,-0.214 -0.027,-0.379 -0.143,0.094 -0.269,0.134 -0.368,0.093 -0.102,-0.041 -0.166,-0.156 -0.203,-0.324 z m 0.568,0.231 c 0.601,-0.394 1.557,-1.871 2.578,-3.558 -1.285,1.495 -2.391,2.863 -2.578,3.558 z m 2.578,-3.559 c 0.089,-0.102 0.18,-0.206 0.269,-0.311 -0.02,-0.013 -0.037,-0.028 -0.056,-0.042 -0.071,0.119 -0.142,0.238 -0.213,0.353 z m -2.18,4.027 c 0.715,-0.07 2.249,-0.934 3.937,-1.953 -1.833,0.727 -3.45,1.425 -3.937,1.953 z m 3.936,-1.954 c 0.116,-0.046 0.234,-0.092 0.354,-0.138 -0.01,-0.021 -0.021,-0.04 -0.028,-0.059 -0.108,0.066 -0.216,0.133 -0.326,0.197 z m -3.804,2.553 c 0.666,0.27 2.426,0.218 4.396,0.101 -1.963,-0.208 -3.717,-0.342 -4.396,-0.101 z m 4.395,0.1 c 0.111,0.013 0.226,0.025 0.339,0.037 0.001,-0.02 0.001,-0.039 0.002,-0.058 -0.113,0.007 -0.229,0.014 -0.341,0.021 z m -4.554,0.492 c 0.463,0.551 2.046,1.321 3.842,2.129 -1.639,-1.095 -3.131,-2.027 -3.842,-2.129 z m 3.841,2.129 c 0.082,0.057 0.167,0.114 0.25,0.168 0.009,-0.015 0.018,-0.03 0.024,-0.045 -0.089,-0.039 -0.183,-0.081 -0.274,-0.123 z m -4.26,-1.679 c 0.155,0.701 1.199,2.12 2.413,3.674 -0.943,-1.734 -1.829,-3.254 -2.413,-3.674 z m 2.414,3.671 c 0.041,0.075 0.082,0.153 0.124,0.229 0.012,-0.009 0.023,-0.016 0.037,-0.024 -0.054,-0.068 -0.11,-0.138 -0.161,-0.205 z m -2.992,-3.467 c -0.188,0.693 0.076,2.433 0.43,4.373 -0.031,-1.972 -0.109,-3.73 -0.43,-4.373 z m 0.429,4.373 c 0.001,0.078 0.003,0.158 0.003,0.238 0.015,-0.002 0.026,-0.004 0.04,-0.004 -0.013,-0.077 -0.028,-0.157 -0.043,-0.234 z m -1.037,-4.462 c -0.489,0.528 -1.064,2.189 -1.652,4.072 0.89,-1.759 1.637,-3.353 1.652,-4.072 z m -1.652,4.072 c -0.035,0.068 -0.069,0.138 -0.104,0.208 0.012,0.006 0.022,0.009 0.035,0.015 0.023,-0.073 0.047,-0.15 0.069,-0.223 z M 125,84.934 c -0.68,0.239 -1.961,1.446 -3.356,2.838 1.606,-1.144 3.008,-2.209 3.356,-2.838 z m -3.356,2.838 c -0.067,0.047 -0.138,0.098 -0.205,0.145 0.01,0.011 0.02,0.02 0.029,0.032 0.057,-0.059 0.118,-0.117 0.176,-0.177 z m 3.084,-3.387 c -0.713,-0.104 -2.406,0.368 -4.29,0.952 1.954,-0.266 3.688,-0.556 4.29,-0.952 z m -4.29,0.954 c -0.093,0.013 -0.188,0.024 -0.283,0.039 0.004,0.015 0.008,0.03 0.013,0.044 0.09,-0.026 0.18,-0.056 0.27,-0.083 z m 4.303,-1.567 c -0.582,-0.423 -2.303,-0.792 -4.242,-1.149 1.854,0.671 3.526,1.22 4.242,1.149 z m -4.242,-1.149 c -0.101,-0.037 -0.205,-0.075 -0.305,-0.112 -0.006,0.019 -0.011,0.037 -0.015,0.054 0.108,0.019 0.216,0.039 0.32,0.058 z m 4.539,0.612 c -0.318,-0.643 -1.669,-1.769 -3.22,-2.986 1.329,1.455 2.554,2.719 3.22,2.986 z m -3.22,-2.985 c -0.083,-0.091 -0.167,-0.183 -0.251,-0.275 -0.015,0.016 -0.028,0.031 -0.043,0.046 0.099,0.076 0.2,0.152 0.294,0.229 z m 3.733,2.649 c 0.017,-0.718 -0.656,-2.344 -1.464,-4.142 0.501,1.906 0.998,3.593 1.464,4.142 z m -1.464,-4.142 c -0.034,-0.128 -0.067,-0.259 -0.102,-0.389 -0.021,0.007 -0.043,0.015 -0.063,0.023 0.055,0.122 0.111,0.245 0.165,0.366 z"
                    fill="#ffffff"
                    opacity="0.4"
                    style="display:inline"
                    transform="translate(-0.25,0.25)"/>
            <path
                    id="SvgjsPath5244"
                    d="m 128.354,84 c 0,1.3 -1.054,2.353 -2.353,2.353 -1.3,0 -2.354,-1.053 -2.354,-2.353 0,-1.299 1.055,-2.354 2.354,-2.354 1.301,0 2.353,1.054 2.353,2.354 z"
                    fill="#000000"
                    stroke-width="0"
                    opacity="0.9"
                    style="display:inline"
                    transform="translate(-0.25,0.25)"/>
            <path
                    id="SvgjsPath5245"
                    d="m 122.718,86.748 c 0.448,-0.302 1.059,-0.18 1.359,0.268 0.302,0.449 0.183,1.059 -0.268,1.36 -0.45,0.303 -1.059,0.183 -1.359,-0.267 -0.302,-0.449 -0.182,-1.06 0.268,-1.361 z"
                    fill="#ffffff"
                    opacity="0.5"
                    style="display:inline;fill:url(#linearGradient2722);fill-opacity:1"
                    transform="translate(-0.25,0.25)"/>
            <path
                    id="SvgjsPath5249"
                    d="m 127.859,83.672 c -0.251,0.374 -0.969,0.331 -1.605,-0.096 -0.638,-0.427 -0.95,-1.078 -0.7,-1.451 l 0.001,-0.001 c 0.25,-0.374 0.969,-0.331 1.605,0.097 0.638,0.426 0.95,1.076 0.699,1.451 0,0 0,0 0,0 z"
                    fill="#ffffff"
                    opacity="0.5"
                    style="display:inline;fill:url(#linearGradient2730);fill-opacity:1"
                    transform="translate(-0.25,0.25)"/>
            <path
                    id="SvgjsPath5253"
                    d="m 130.717,82.673 c -0.569,0.873 -2.036,0.925 -3.276,0.117 -1.239,-0.808 -1.784,-2.17 -1.215,-3.043 0.568,-0.872 2.035,-0.924 3.275,-0.117 1.239,0.809 1.783,2.172 1.216,3.043 z"
                    fill="#ffffff"
                    opacity="0.75"
                    style="display:inline;fill:url(#linearGradient3476);fill-opacity:1"
                    transform="translate(-0.25,0.25)"/>

            <path
                    id="SvgjsPath5554"
                    d="m 137.849,82.523 c 0.506,-2.285 -5.191,-3.973 -12.711,-3.051 -7.518,0.923 -12.738,5.524 -12.052,7.844 0.38,1.286 10.639,3.245 14.253,2.847 3.664,-0.405 9.288,-2.123 10.51,-7.64 z"
                    fill="#fffffff"
                    opacity="1"
                    style="display:inline;fill:url(#radialGradient925);fill-opacity:1"/>

            <path
                    id="SvgjsPath5559"
                    d="m 136.832,78.02 c -0.88,-0.352 -4.065,-1 -5.456,-1.066 -1.687,-0.082 -5.073,0.125 -6.735,0.424 -3.374,0.608 -9.251,2.483 -11.678,7.184 -0.746,1.445 -0.074,2.456 0.123,2.675 -0.3,-2.426 4.838,-6.746 12.052,-7.604 7.52,-0.894 13.217,0.743 12.711,2.958 -1.222,5.348 -6.846,7.013 -10.51,7.405 -4.099,0.439 -11.684,-1.539 -12.686,-1.753 1.999,1.009 7.524,2.095 9.767,2.303 0.744,0.07 2.24,0.104 2.986,0.085 5.949,-0.158 10.169,-3.175 11.729,-7.26 1.002,-2.626 -0.094,-4.469 -2.303,-5.351 z"
                    fill="#000000"
                    stroke-width="0"
                    opacity="1"
                    style="display:inline"/>
        </g>
        <g
                id="left-eye"
                transform="translate(0.879486)">
            <path
                    id="path3638"
                    d="m 61.19456,82.523 c -0.506,-2.285 5.191,-3.973 12.711,-3.051 7.518,0.923 12.738,5.524 12.052,7.844 -0.38,1.286 -10.639,3.245 -14.253,2.847 -3.664,-0.405 -9.288,-2.123 -10.51,-7.64 z"
                    fill="#ffffff"
                    opacity="1"
                    style="display:inline"/>
            <path
                    id="iris_left"
                    d="m 79.449514,84.25 c 0,3.313 -2.687,6 -5.999,6 -3.313,0 -6.001,-2.687 -6.001,-6 v 0 c 0,-3.314 2.688,-6 6.001,-6 3.312,-0.001 5.999,2.686 5.999,6 z"
                    class="blue_eyes"
                    stroke-width="0"
                    opacity="1"
                    style="display:inline"/>
            <path
                    id="path3642"
                    d="m 72.777514,78.316 c -0.023,0.003 -0.047,0.006 -0.071,0.009 0.029,0.135 0.058,0.271 0.085,0.406 -0.006,-0.137 -0.009,-0.277 -0.014,-0.415 z m 0.013,0.414 c 0.069,1.972 0.185,3.729 0.518,4.364 0.174,-0.696 -0.124,-2.43 -0.518,-4.364 z m 0.517,4.365 c -0.042,0.167 -0.108,0.281 -0.207,0.319 -0.101,0.038 -0.226,-0.006 -0.367,-0.103 0.04,0.167 0.036,0.297 -0.036,0.378 -0.072,0.081 -0.201,0.101 -0.372,0.078 0.112,0.13 0.171,0.249 0.146,0.353 -0.028,0.104 -0.134,0.182 -0.293,0.242 0.158,0.063 0.265,0.141 0.29,0.245 0.025,0.104 -0.032,0.223 -0.145,0.352 0.17,-0.021 0.3,10e-4 0.37,0.082 0.071,0.081 0.075,0.212 0.035,0.379 0.141,-0.097 0.266,-0.139 0.365,-0.1 0.102,0.038 0.166,0.152 0.206,0.32 0.08,-0.152 0.172,-0.249 0.279,-0.26 0.105,-0.014 0.217,0.059 0.329,0.188 0.002,-0.172 0.037,-0.299 0.128,-0.36 0.087,-0.061 0.219,-0.049 0.379,0.013 -0.078,-0.152 -0.104,-0.281 -0.056,-0.377 0.051,-0.095 0.174,-0.146 0.345,-0.166 -0.141,-0.099 -0.228,-0.2 -0.225,-0.308 -0.001,-0.108 0.084,-0.209 0.227,-0.306 -0.171,-0.021 -0.291,-0.072 -0.342,-0.167 -0.05,-0.095 -0.022,-0.225 0.057,-0.377 -0.161,0.06 -0.291,0.072 -0.38,0.011 -0.089,-0.061 -0.124,-0.188 -0.125,-0.36 -0.111,0.128 -0.224,0.199 -0.33,0.185 -0.107,-0.014 -0.198,-0.108 -0.278,-0.261 z m 0.608,0.075 c 0.479,-0.535 1.021,-2.209 1.569,-4.104 -0.853,1.777 -1.567,3.386 -1.569,4.104 z m 1.569,-4.104 c 0.06,-0.122 0.121,-0.246 0.179,-0.37 -0.021,-0.007 -0.042,-0.017 -0.063,-0.026 -0.039,0.133 -0.077,0.266 -0.116,0.396 z m -1.063,4.454 c 0.673,-0.252 1.932,-1.483 3.298,-2.905 -1.582,1.176 -2.963,2.269 -3.298,2.905 z m 3.298,-2.905 c 0.1,-0.075 0.202,-0.15 0.305,-0.225 -0.015,-0.018 -0.03,-0.033 -0.042,-0.049 -0.088,0.09 -0.175,0.183 -0.263,0.274 z m -3.015,3.449 c 0.713,0.088 2.399,-0.417 4.271,-1.041 -1.948,0.308 -3.678,0.633 -4.271,1.041 z m 4.271,-1.04 c 0.11,-0.016 0.225,-0.034 0.337,-0.052 -0.005,-0.019 -0.009,-0.038 -0.014,-0.057 -0.107,0.036 -0.217,0.073 -0.323,0.109 z m -4.273,1.653 c 0.591,0.412 2.318,0.747 4.263,1.063 -1.866,-0.633 -3.549,-1.148 -4.263,-1.063 z m 4.263,1.063 c 0.095,0.033 0.19,0.067 0.285,0.098 0.005,-0.017 0.009,-0.033 0.013,-0.05 -0.098,-0.015 -0.2,-0.031 -0.298,-0.048 z m -4.551,-0.52 c 0.332,0.637 1.708,1.738 3.282,2.924 -1.358,-1.43 -2.609,-2.668 -3.282,-2.924 z m 3.283,2.922 c 0.059,0.062 0.119,0.126 0.178,0.189 0.01,-0.012 0.02,-0.021 0.031,-0.032 -0.07,-0.052 -0.142,-0.105 -0.209,-0.157 z m -3.787,-2.575 c -0.003,0.719 0.702,2.331 1.547,4.113 -0.54,-1.897 -1.071,-3.575 -1.547,-4.113 z m 1.547,4.114 c 0.021,0.075 0.043,0.152 0.063,0.229 0.015,-0.006 0.026,-0.01 0.039,-0.014 -0.034,-0.072 -0.069,-0.146 -0.102,-0.215 z m -2.157,-4.042 c -0.336,0.637 -0.461,2.39 -0.542,4.361 0.404,-1.93 0.713,-3.663 0.542,-4.361 z m -0.542,4.361 c -0.017,0.075 -0.031,0.151 -0.047,0.228 0.014,0.003 0.024,0.003 0.039,0.005 0.002,-0.077 0.006,-0.157 0.008,-0.233 z m -0.03,-4.581 c -0.596,0.407 -1.521,1.904 -2.508,3.61 1.255,-1.52 2.334,-2.912 2.508,-3.61 z m -2.508,3.61 c -0.052,0.063 -0.107,0.13 -0.161,0.193 0.013,0.008 0.024,0.014 0.037,0.024 0.041,-0.072 0.084,-0.145 0.124,-0.217 z m 2.103,-4.069 c -0.716,0.083 -2.23,0.978 -3.897,2.029 1.818,-0.762 3.418,-1.491 3.897,-2.029 z m -3.897,2.031 c -0.087,0.036 -0.175,0.072 -0.263,0.11 0.006,0.013 0.014,0.027 0.023,0.04 0.08,-0.049 0.16,-0.1 0.24,-0.15 z m 3.752,-2.628 c -0.672,-0.257 -2.43,-0.168 -4.396,-0.011 1.965,0.168 3.722,0.265 4.396,0.011 z m -4.396,-0.011 c -0.106,-0.01 -0.217,-0.02 -0.322,-0.029 -0.001,0.019 -0.003,0.038 -0.001,0.056 0.109,-0.01 0.218,-0.019 0.323,-0.027 z m 4.543,-0.583 c -0.474,-0.539 -2.069,-1.277 -3.882,-2.051 1.659,1.06 3.169,1.964 3.882,2.051 z m -3.882,-2.051 c -0.104,-0.067 -0.21,-0.134 -0.315,-0.201 -0.009,0.019 -0.019,0.038 -0.028,0.055 0.115,0.049 0.232,0.097 0.343,0.146 z m 4.29,1.593 c -0.169,-0.698 -1.241,-2.094 -2.485,-3.623 0.976,1.712 1.893,3.213 2.485,3.623 z m -2.485,-3.623 c -0.067,-0.115 -0.133,-0.232 -0.198,-0.349 -0.019,0.013 -0.039,0.026 -0.057,0.039 0.085,0.103 0.172,0.207 0.255,0.31 z"
                    fill="#ffffff"
                    opacity="0.7"
                    style="display:inline;fill:#ffffff;fill-opacity:0.455556"/>
            <path
                    id="path3644"
                    d="m 74.335514,78.336 c -0.024,-0.003 -0.047,-0.007 -0.07,-0.01 -0.008,0.138 -0.016,0.277 -0.024,0.414 0.029,-0.134 0.062,-0.27 0.094,-0.404 z m -0.095,0.403 c -0.443,1.922 -0.787,3.649 -0.63,4.35 0.35,-0.628 0.51,-2.38 0.63,-4.35 z m -0.63,4.35 c -0.084,0.15 -0.177,0.243 -0.283,0.254 -0.106,0.01 -0.216,-0.064 -0.327,-0.195 -0.004,0.171 -0.042,0.297 -0.133,0.356 -0.09,0.059 -0.221,0.045 -0.38,-0.021 0.075,0.155 0.101,0.285 0.049,0.378 -0.054,0.094 -0.176,0.142 -0.346,0.158 0.138,0.101 0.22,0.204 0.217,0.312 -0.002,0.107 -0.089,0.207 -0.23,0.302 0.17,0.024 0.289,0.079 0.337,0.174 0.048,0.096 0.018,0.225 -0.064,0.375 0.162,-0.057 0.293,-0.065 0.38,-0.002 0.087,0.063 0.12,0.19 0.115,0.363 0.117,-0.125 0.229,-0.196 0.337,-0.179 0.105,0.014 0.194,0.113 0.27,0.268 0.046,-0.167 0.113,-0.279 0.216,-0.315 0.101,-0.036 0.226,0.01 0.363,0.111 -0.035,-0.167 -0.028,-0.299 0.045,-0.378 0.072,-0.079 0.204,-0.096 0.375,-0.072 -0.11,-0.132 -0.168,-0.251 -0.138,-0.355 0.027,-0.104 0.136,-0.18 0.299,-0.237 -0.159,-0.064 -0.263,-0.145 -0.288,-0.25 -0.022,-0.105 0.038,-0.223 0.154,-0.349 -0.172,0.016 -0.302,-0.006 -0.37,-0.088 -0.07,-0.082 -0.072,-0.214 -0.027,-0.379 -0.143,0.094 -0.269,0.134 -0.368,0.093 -0.102,-0.041 -0.166,-0.156 -0.203,-0.324 z m 0.568,0.231 c 0.601,-0.394 1.557,-1.871 2.578,-3.558 -1.285,1.495 -2.391,2.863 -2.578,3.558 z m 2.578,-3.559 c 0.089,-0.102 0.18,-0.206 0.269,-0.311 -0.02,-0.013 -0.037,-0.028 -0.056,-0.042 -0.071,0.119 -0.142,0.238 -0.213,0.353 z m -2.18,4.027 c 0.715,-0.07 2.249,-0.934 3.937,-1.953 -1.833,0.727 -3.45,1.425 -3.937,1.953 z m 3.936,-1.954 c 0.116,-0.046 0.234,-0.092 0.354,-0.138 -0.01,-0.021 -0.021,-0.04 -0.028,-0.059 -0.108,0.066 -0.216,0.133 -0.326,0.197 z m -3.804,2.553 c 0.666,0.27 2.426,0.218 4.396,0.101 -1.963,-0.208 -3.717,-0.342 -4.396,-0.101 z m 4.395,0.1 c 0.111,0.013 0.226,0.025 0.339,0.037 10e-4,-0.02 10e-4,-0.039 0.002,-0.058 -0.113,0.007 -0.229,0.014 -0.341,0.021 z m -4.554,0.492 c 0.463,0.551 2.046,1.321 3.842,2.129 -1.639,-1.095 -3.131,-2.027 -3.842,-2.129 z m 3.841,2.129 c 0.082,0.057 0.167,0.114 0.25,0.168 0.009,-0.015 0.018,-0.03 0.024,-0.045 -0.089,-0.039 -0.183,-0.081 -0.274,-0.123 z m -4.26,-1.679 c 0.155,0.701 1.199,2.12 2.413,3.674 -0.943,-1.734 -1.829,-3.254 -2.413,-3.674 z m 2.414,3.671 c 0.041,0.075 0.082,0.153 0.124,0.229 0.012,-0.009 0.023,-0.016 0.037,-0.024 -0.054,-0.068 -0.11,-0.138 -0.161,-0.205 z m -2.992,-3.467 c -0.188,0.693 0.076,2.433 0.43,4.373 -0.031,-1.972 -0.109,-3.73 -0.43,-4.373 z m 0.429,4.373 c 10e-4,0.078 0.003,0.158 0.003,0.238 0.015,-0.002 0.026,-0.004 0.04,-0.004 -0.013,-0.077 -0.028,-0.157 -0.043,-0.234 z m -1.037,-4.462 c -0.489,0.528 -1.064,2.189 -1.652,4.072 0.89,-1.759 1.637,-3.353 1.652,-4.072 z m -1.652,4.072 c -0.035,0.068 -0.069,0.138 -0.104,0.208 0.012,0.006 0.022,0.009 0.035,0.015 0.023,-0.073 0.047,-0.15 0.069,-0.223 z m 1.157,-4.432 c -0.68,0.239 -1.961,1.446 -3.356,2.838 1.606,-1.144 3.008,-2.209 3.356,-2.838 z m -3.356,2.838 c -0.067,0.047 -0.138,0.098 -0.205,0.145 0.01,0.011 0.02,0.02 0.029,0.032 0.057,-0.059 0.118,-0.117 0.176,-0.177 z m 3.084,-3.387 c -0.713,-0.104 -2.406,0.368 -4.29,0.952 1.954,-0.266 3.688,-0.556 4.29,-0.952 z m -4.29,0.954 c -0.093,0.013 -0.188,0.024 -0.283,0.039 0.004,0.015 0.008,0.03 0.013,0.044 0.09,-0.026 0.18,-0.056 0.27,-0.083 z m 4.303,-1.567 c -0.582,-0.423 -2.303,-0.792 -4.242,-1.149 1.854,0.671 3.526,1.22 4.242,1.149 z m -4.242,-1.149 c -0.101,-0.037 -0.205,-0.075 -0.305,-0.112 -0.006,0.019 -0.011,0.037 -0.015,0.054 0.108,0.019 0.216,0.039 0.32,0.058 z m 4.539,0.612 c -0.318,-0.643 -1.669,-1.769 -3.22,-2.986 1.329,1.455 2.554,2.719 3.22,2.986 z m -3.22,-2.985 c -0.083,-0.091 -0.167,-0.183 -0.251,-0.275 -0.015,0.016 -0.028,0.031 -0.043,0.046 0.099,0.076 0.2,0.152 0.294,0.229 z m 3.733,2.649 c 0.017,-0.718 -0.656,-2.344 -1.464,-4.142 0.501,1.906 0.998,3.593 1.464,4.142 z m -1.464,-4.142 c -0.034,-0.128 -0.067,-0.259 -0.102,-0.389 -0.021,0.007 -0.043,0.015 -0.063,0.023 0.055,0.122 0.111,0.245 0.165,0.366 z"
                    fill="#ffffff"
                    opacity="0.4"
                    style="display:inline"/>
            <path
                    id="path3646"
                    d="m 75.803514,84.25 c 0,1.3 -1.054,2.353 -2.353,2.353 -1.3,0 -2.354,-1.053 -2.354,-2.353 0,-1.299 1.055,-2.354 2.354,-2.354 1.301,0 2.353,1.054 2.353,2.354 z"
                    fill="#000000"
                    stroke-width="0"
                    opacity="0.9"
                    style="display:inline"/>
            <path
                    id="path3648"
                    d="m 70.167514,86.998 c 0.448,-0.302 1.059,-0.18 1.359,0.268 0.302,0.449 0.183,1.059 -0.268,1.36 -0.45,0.303 -1.059,0.183 -1.359,-0.267 -0.302,-0.449 -0.182,-1.06 0.268,-1.361 z"
                    fill="#ffffff"
                    opacity="0.5"
                    style="display:inline;fill:url(#linearGradient3684);fill-opacity:1"/>
            <path
                    id="path3650"
                    d="m 75.308514,83.922 c -0.251,0.374 -0.969,0.331 -1.605,-0.096 -0.638,-0.427 -0.95,-1.078 -0.7,-1.451 l 0.001,-0.001 c 0.25,-0.374 0.969,-0.331 1.605,0.097 0.638,0.426 0.95,1.076 0.699,1.451 0,0 0,0 0,0 z"
                    fill="#ffffff"
                    opacity="0.5"
                    style="display:inline;fill:url(#linearGradient3686);fill-opacity:1"/>
            <path
                    id="path3652"
                    d="m 78.166514,82.923 c -0.569,0.873 -2.036,0.925 -3.276,0.117 -1.239,-0.808 -1.784,-2.17 -1.215,-3.043 0.568,-0.872 2.035,-0.924 3.275,-0.117 1.239,0.809 1.783,2.172 1.216,3.043 z"
                    fill="#ffffff"
                    opacity="0.75"
                    style="display:inline;fill:url(#linearGradient3688);fill-opacity:1"/>
            <path
                    id="path3656"
                    d="m 61.19456,82.523 c -0.506,-2.285 5.191,-3.973 12.711,-3.051 7.518,0.923 12.738,5.524 12.052,7.844 -0.38,1.286 -10.639,3.245 -14.253,2.847 -3.664,-0.405 -9.288,-2.123 -10.51,-7.64 z"
                    fill="#fffffff"
                    opacity="1"
                    style="display:inline;fill:url(#radialGradient3670);fill-opacity:1"/>
            <path
                    id="path3660"
                    d="m 62.21156,78.02 c 0.88,-0.352 4.065,-1 5.456,-1.066 1.687,-0.082 5.073,0.125 6.735,0.424 3.374,0.608 9.251,2.483 11.678,7.184 0.746,1.445 0.074,2.456 -0.123,2.675 0.3,-2.426 -4.838,-6.746 -12.052,-7.604 -7.52,-0.894 -13.217,0.743 -12.711,2.958 1.222,5.348 6.846,7.013 10.51,7.405 4.099,0.439 11.684,-1.539 12.686,-1.753 -1.999,1.009 -7.524,2.095 -9.767,2.303 -0.744,0.07 -2.24,0.104 -2.986,0.085 -5.949,-0.158 -10.169,-3.175 -11.729,-7.26 -1.002,-2.626 0.094,-4.469 2.303,-5.351 z"
                    fill="#000000"
                    stroke-width="0"
                    opacity="1"
                    style="display:inline"/>
        </g>
        <g
                id="eyebrows_right"
                transform="matrix(1.0090037,0.17472585,-0.10487141,1.4292818,6.6095584,-52.650714)"
                class="black_hair">
            <path
                    id="SvgjsPath5354-5-0"
                    d="m 143.25,69.181522 c -4.35402,-0.356397 -8.24777,-0.780603 -14.19479,-0.02949 -1.58902,0.200695 -3.32462,0.485301 -5.25477,0.877531 -5.0282,0.84004 -11.57891,4.557284 -12.59527,3.30075 -0.82714,-1.035237 5.30872,-4.027931 13.32057,-5.245649 3.59208,-0.545957 7.56126,-0.735121 11.44908,-0.231111 3.58884,0.485337 3.08498,0.430631 7.27518,1.327965 z"
                    stroke-width="0"
                    opacity="1"/>
        </g>
        <g
                id="eyebrows_left"
                transform="matrix(-1.0090037,0.17472585,0.10487141,1.4292818,193.49919,-52.78568)"
                class="black_hair">
            <path
                    id="SvgjsPath5354-5"
                    d="m 143.25,69.181522 c -4.35402,-0.356397 -8.24777,-0.780603 -14.19479,-0.02949 -1.58902,0.200695 -3.32462,0.485301 -5.25477,0.877531 -5.0282,0.84004 -11.57891,4.557284 -12.59527,3.30075 -0.82714,-1.035237 5.30872,-4.027931 13.32057,-5.245649 3.59208,-0.545957 7.56126,-0.735121 11.44908,-0.231111 3.58884,0.485337 3.08498,0.430631 7.27518,1.327965 z"
                    stroke-width="0"
                    opacity="1"/>
        </g>
    </g>

    <use id="haircut" href="0h.svg#0h" class="black_hair"/>
</svg>
