<?xml version="1.0" encoding="UTF-8" standalone="no"?>
<?xml-stylesheet type="text/css" href="avatarpage_style.css" ?>
<svg
        id="0h"
        viewBox="0 0 205 247"
        width="205"
        height="247"
        preserveAspectRatio="xMinYMin"
        version="1.1"
        xml:space="preserve"
        xmlns="http://www.w3.org/2000/svg">
    <defs
            id="SvgjsDefs1136"/>
        <g class="black_hair">
            <path
                id="SvgjsPath5368"
                d="m 160.78697,51.66796 c -18.43,-46.09 -58.43,-40.92 -58.43,-40.92 0,0 -39.999993,-5.169 -58.429993,40.92 -9.245,23.12 2.158,50.324 2.158,50.324 h 5.826 c 0,0 -2.881,-12.303 -1.722,-16.915 0.281,-1.118 2.791,-3.66 2.898,-4.807 0.118,-1.255 -0.3,-3.367 -0.421,-4.622 -0.592,-6.112 1.982,-18.029 5.245,-23.173 1.603,-2.526 5.369,-6.659 8.174,-7.699 3.8,-1.408 10.327,-1.739 14.312,-1 2.276,0.422 6.297,1.857 8.542,2.421 3.269,0.822 13.417993,0.868 13.417993,0.868 0,0 10.148,-0.046 13.418,-0.867 2.245,-0.563 6.267,-1.898 8.543,-2.321 3.984,-0.739 10.512,-0.408 14.312,1 2.806,1.04 6.871,4.972 8.474,7.499 3.263,5.144 5.537,16.16 4.945,22.272 -0.121,1.255 -0.539,4.367 -0.422,5.623 0.107,1.147 2.617,3.689 2.898,4.807 1.16,4.612 -1.722,16.915 -1.722,16.915 h 5.825 c 0,-10e-4 11.405,-27.205 2.159,-50.325 z"
                stroke-width="none"
                opacity="1"
                style="display:inline"/>
        </g>
    </svg>