<?xml version="1.0" encoding="UTF-8" standalone="no"?>
<?xml-stylesheet type="text/css" href="avatarpage_style.css" ?>
<svg
        id="2h"
        viewBox="0 0 204.8632 251.4375"
        width="204.8632"
        height="251.4375"
        preserveAspectRatio="xMinYMin"
        version="1.1"
        xml:space="preserve"
        xmlns="http://www.w3.org/2000/svg">
    <defs
            id="SvgjsDefs1136"/>
    <g
            id="svga-group-hair-front-9"
            transform="translate(2.6622,18.122782)"
            style="display:inline"
            class="black_hair">
        <path
                id="SvgjsPath3185"
                d="M 152.983,98.604 C 148.42,86.169 153.7,67.098 144.778,52.989 140.714,46.227 137.181,41.58 137.828,33.713 l -0.368,-0.124 c -0.862,1.352 -1.994,2.82 -2.745,3.76 0.427,-1.091 1.123,-2.762 1.753,-4.023 l -0.332,-0.218 c -2.585,3.073 -4.805,4.649 -7.859,5.5 3.3,-2.32 6.949,-6.357 8.546,-8.595 l -0.271,-0.284 C 125.233,37.012 112.388,37.111 101.056,37.2 90.829,37.276 84.477,37.045 77.103,32.759 71.782,34.523 67.592,34.298 62.987,31.124 48.573,59.071 54.977,45.081 46.36,96.888 41.356,90.218 39.902,85.976 38.718,79.621 38.405,77.594 38.099,74.467 38.289,72.406 l -0.063,-0.065 c -4.452,-9.77 -6.553,-15.333 -5.495,-34.712 0.785,-8.04 2.533,-14.076 7.574,-20.398 -0.665,-3.435 -0.729,-6.898 -0.277,-10.21 -2.64,-4.827 -4.457,-9.795 -5.165,-11.57 3.688,2.823 3.993,2.986 7.07,3.957 0.704,-1.937 1.73,-3.861 2.387,-4.865 0.297,2.238 0.533,3.75 1.203,5.925 0.228,0.055 1.313,0.349 1.66,0.442 -0.199,-1.324 -0.381,-1.938 -0.353,-3.125 0.571,1.302 1.053,1.604 2.71,3.626 1.834,0.385 1.394,0.328 1.944,0.328 -2.669,-4.183 -4.47,-7.885 -4.927,-13.515 3.653,2.081 8.764,3.27 14.101,3.27 12.539,0 25.369,-9.412 43.169,-9.412 15.425,0 28.771,8.558 34.683,18.303 -0.006,-2.514 -0.113,-4.594 0.794,-7.178 0,0 0.105,3.705 0.105,6.592 l 0.396,0.037 c 0.62,-3.301 1.928,-6.115 4.088,-8.773 -1.918,5.158 -1.188,2.404 -3.334,8.702 l 0.348,0.187 c 1.431,-1.839 2.603,-3.139 6.019,-4.862 -2.468,2.473 -4.355,3.89 -5.522,5.639 l 0.301,0.259 c 1.456,-1.32 2.971,-1.82 4.512,-0.613 -2.481,-0.902 -3.946,0.679 -5.648,2.675 6.619,1.091 10.21,4.91 14.864,10.015 10.712,12.352 13.533,24.411 7.723,41.506 2.435,5.263 2.06,17.125 -3.375,26.686 -0.002,5.61 -3.84,12.532 -6.798,17.347 z"
                stroke-width="0"
                opacity="1"
                style="display:inline"/>
        <path
                id="SvgjsPath3186"
                d="m 62.299,30.371 c 0.359,0.334 0.718,0.668 1.074,1.004 C 63.244,31.29 63.115,31.211 62.985,31.122 48.571,59.069 54.975,45.079 46.358,96.886 41.354,90.216 39.9,85.974 38.716,79.619 38.403,77.592 38.097,74.465 38.287,72.404 L 38.224,72.339 C 33.772,62.569 31.671,57.006 32.729,37.627 33.514,29.587 35.262,23.551 40.303,17.229 39.649,13.851 39.583,10.447 40.01,7.185 40.607,8.059 41.233,8.91 41.873,9.75 42.304,12.374 42.669,14.933 42,17 32.461,46.478 38,60 44,81 41.536,65.069 36.858,44.815 49.619,33 44.168,46.096 45.673,52.034 47,61 47.917,49.082 52.195,37.996 62.299,30.371 Z M 155.432,13.06 c -0.376,-0.412 -0.742,-0.812 -1.106,-1.207 -0.382,0.255 -0.774,0.489 -1.159,0.737 14.956,30.661 0.594,27.717 4.017,41.409 C 161.183,63.999 156,70 156,80 156,65 155.319,54.561 147.04,42.825 144.244,38.862 143.459,25.402 141.575,18.751 118.373,33 84.002,35.981 47.916,7.183 c 17,6 51.649,1.35 63.543,-6.316 -13.558,2.461 -41.862,2.608 -54.59,-2.631 30.5,-2.37 30.131,-12.16 56.131,-14 -12.5,-4.667 -39.804,7.254 -52.342,7.254 -5.336,0 -10.447,-1.188 -14.101,-3.27 0.457,5.63 2.258,9.333 4.927,13.515 -0.551,0 -0.11,0.057 -1.944,-0.328 -1.658,-2.022 -2.14,-2.325 -2.71,-3.626 -0.029,1.187 0.154,1.801 0.353,3.125 -0.347,-0.093 -1.433,-0.387 -1.66,-0.442 -0.67,-2.175 -0.906,-3.687 -1.203,-5.925 -0.656,1.004 -1.683,2.928 -2.387,4.865 -3.078,-0.971 -3.382,-1.134 -7.07,-3.957 0.708,1.775 2.525,6.744 5.165,11.57 -0.007,0.055 -0.009,0.111 -0.016,0.166 6.305,9.235 15.169,16.471 23.363,24.192 4.454,2.924 8.558,3.096 13.729,1.382 7.374,4.286 13.727,4.517 23.953,4.441 11.332,-0.088 24.177,-0.188 35.496,-7.471 l 0.271,0.284 c -1.597,2.238 -5.246,6.275 -8.546,8.595 3.055,-0.852 5.274,-2.428 7.859,-5.5 l 0.332,0.218 c -0.63,1.262 -1.326,2.932 -1.753,4.023 0.751,-0.94 1.883,-2.408 2.745,-3.76 l 0.368,0.124 c -0.646,7.868 2.886,12.514 6.95,19.276 8.922,14.109 3.643,33.181 8.205,45.615 2.958,-4.815 6.796,-11.736 6.796,-17.352 5.435,-9.561 5.81,-21.423 3.375,-26.686 5.81,-17.093 2.989,-29.152 -7.723,-41.504 z m 0.733,25.649 c -0.33,-9.524 -6.633,-21.612 -6.633,-21.612 -2.946,-5.204 -5.579,-7.687 -9.996,-8.695 12.426,0.619 17.306,19.179 16.769,28.875 -0.051,0.9 -0.14,1.432 -0.14,1.432 z M 127.907,-1.507 c 3.283,2.663 4.067,3.423 7.296,7.909 -16.653,-29.889 -49.333,-7.27 -59.667,-8 10.505,2.171 34.257,-13.192 52.371,0.091 z m 8.462,12.992 C 116.408,28.033 85.929,21.023 61,13.21 c 24.827,11.371 56.435,17.524 75.369,-1.725 z m -78.5,18 c -6.539,3.425 -9.616,12.05 -9.9,17.75 1.221,-4.919 4.885,-13.944 9.9,-17.75 z m -8.25,-4.75 C 40.26,30.434 38.445,43.506 39.369,54.485 40.353,44.343 42.181,31.11 49.619,24.735 Z M 117.064,12.34 c -1.006,0.215 -7.259,1.072 -10.672,1.195 -2.661,0.155 -13.037,0.328 -22.391,-0.048 9.655,2.069 15.454,2.454 22.496,2.045 8.106,-0.293 15.36,-1.898 21.371,-6.796 -4.235,2.331 -6.04,2.663 -10.804,3.604 z m 33.545,26.545 c 0,0 -0.256,-0.441 -0.588,-1.102 -0.911,-1.527 -1.945,-5.681 -5.938,-18.736 2.966,24.195 7.817,19.782 9.991,32.283 10e-4,-4.496 -0.313,-6.801 -3.465,-12.445 z"
                filter="brightness(0.8)"
                stroke-width="0"
                opacity="1"
                style="display:inline"/>
        <path
                id="SvgjsPath3187"
                d="m 157.853,68.131 c 0.364,-3.246 0.217,-1.758 0.257,-3.61 0.306,-6.244 -3.426,-11.479 -1.154,-18.987 1.854,-5.453 2.925,-6.308 2.113,-15.801 -0.119,-1.37 -0.474,-4.774 -1.102,-5.998 0.856,1.489 1.422,4.245 1.725,5.934 1.687,9.543 0.268,10.992 -1.521,16.267 -2.39,7.97 2.197,11.486 -0.318,22.195 z m -16.278,-49.38 c 1.117,30.37 7.276,23.316 12.717,41.752 -3.694,-21.746 -7.111,-3.717 -12.717,-41.752 z M 48.369,34.235 c -9.19,11.563 -8.262,19.899 -6,37 -0.204,-17.31 -2.314,-23.88 6,-37 z M 41.772,17.714 C 36.498,34.033 35.343,41.398 37.875,58.999 37.406,41.353 37.518,37.458 41.772,17.714 Z m 20.18,12.927 C 52.322,37.56 47.295,50.217 47,61 48.482,50.695 54.012,37.697 61.952,30.641 Z m 66.903,-6.047 C 116.804,29.031 97.188,30.219 82.867,25.916 71.706,22.661 54.279,11.723 44.905,4.845 c 8.498,6.765 23.471,16.807 33.926,20.776 10.863,4.059 27.887,5.567 41.081,2.245 9.248,-2.324 14.041,-4.52 21.663,-9.114 -3.393,1.86 -8.391,4.49 -12.72,5.842 z m -26.042,-36.188 c 12.167,-2.285 26.509,5.558 34.057,14.83 -7.897,-11.318 -20.837,-16.949 -28.562,-17.083 -12.679,-0.22 -25.795,10.643 -51.439,11.582 24.113,1.062 35.704,-7.671 45.944,-9.329 z m 9.556,12.829 C 95.08,7.378 81.729,8.848 63.562,9.815 82.325,10.97 95.739,9.15 112.369,1.235 Z m 18.167,3.503 c -10.662,5.027 -15.33,5.851 -37.337,7.191 13.797,0.557 26.686,-0.16 37.337,-7.191 z M 95.248,20.023 c 10.644,1.237 29.289,-0.105 38.621,-9.788 -11.27,9.494 -32.119,9.154 -48.38,8.508 6.224,0.971 5.101,0.809 9.759,1.28 z m 45.621,-9.288 c 7.629,2.809 9.489,16.193 12.5,27 -1.347,-9.579 -3.648,-24.922 -12.5,-27 z"
                filter="brightness(1.5)"
                stroke-width="0"
                opacity="1"
                style="display:inline"/>
        <path
                id="SvgjsPath3188"
                d="m 155.579,12.925 c -4.348,-4.769 -8.252,-8.97 -14.63,-10.02 2.094,-2.463 3.566,-3.379 6.25,-1.85 -1.59,-1.871 -3.417,-2.226 -5.63,-0.22 1.271,-1.905 3.468,-3.46 6.3,-6.43 -4.231,1.985 -5.503,3.34 -7.12,5.42 2.285,-6.703 1.3,-3.128 3.72,-9.75 -2.529,2.836 -4.146,5.92 -4.859,9.72 0,-5.903 -0.185,-5.14 -0.07,-7.72 -1.387,3.089 -1.229,5.81 -1.229,7.59 -2.233,-3.682 -5.514,-6.8 -9.051,-9.35 -25.054,-18.289 -50.039,-1.456 -63.58,0.58 -5.489,0.927 -13.714,0.338 -19.35,-3.04 0.398,5.764 2.183,9.592 4.79,13.68 -10e-4,0 -1.47,-0.31 -1.47,-0.31 -2.019,-2.434 -2.214,-2.356 -2.96,-4.33 -0.191,1.763 0.101,2.74 0.25,3.74 -0.498,-0.13 -0.957,-0.268 -1.26,-0.34 -0.743,-2.414 -0.958,-4.25 -1.23,-6.29 -0.614,0.785 -1.922,3.18 -2.64,5.15 -2.999,-0.948 -3.214,-1.099 -7.43,-4.33 0.5,1 2.309,6.461 5.44,12.23 -0.47,3.534 -0.328,7.06 0.27,10.12 -5.025,6.312 -6.77,12.346 -7.56,20.44 -1.041,19.059 0.867,24.611 5.53,34.82 0.01,0.01 0.01,0.03 0.02,0.04 -0.177,1.971 0.119,5.102 0.44,7.18 1.179,6.332 2.625,10.693 7.91,17.65 0.02,0.02 0.03,0.05 0.05,0.07 3.395,-20.368 3.045,-20.867 3.77,-25.89 3.572,-25.712 3.417,-21.872 12.81,-40.07 3.813,2.628 8.035,3.552 14.02,1.56 4.342,2.524 8.776,4.45 21.06,4.45 12.171,-0.152 26.176,0.412 38.52,-7.53 -1.87,2.622 -6.118,7.154 -9.46,9.18 3.479,-0.736 5.975,-2.137 9.09,-5.84 -0.957,1.915 -2.083,4.814 -2.17,5.16 0.15,-0.18 2.15,-2.57 3.51,-4.7 -0.653,7.945 2.894,12.597 6.98,19.4 8.956,14.163 3.511,33.521 8.33,45.96 3.09,-4.996 7.04,-12.086 7.04,-17.75 5.21,-9.086 5.956,-21.111 3.39,-26.75 5.217,-15.631 4.163,-27.847 -7.791,-41.63 z M 46.789,-2.465 c 0.488,1.389 0.595,1.359 2.49,3.61 -0.94,-0.195 -1.565,-0.332 -2.13,-0.46 -0.219,-1.056 -0.36,-2.06 -0.36,-3.15 z m -2.51,-2.66 c 0.094,1.532 0.459,3.542 0.99,5.31 -2.865,-0.737 -1.8,-0.504 -2.8,-0.8 0.823,-2.474 1.133,-3.1 1.81,-4.51 z m 1.72,100.22 c -4.216,-7.605 -5.323,-10.191 -6.49,-17.89 -0.114,-0.886 -0.472,-3.446 -0.49,-4.67 -6.07,-13.88 -8.352,-40.236 1.21,-54.74 0,-0.01 0,-0.01 0,-0.01 0,0 0.399,-0.624 1.12,-1.52 -0.267,-1.344 -0.531,-4.18 -0.44,-7.28 0.74,1.32 1.58,2.52 2.33,3.67 0,-0.003 0.59,0.781 0.59,0.8 4.551,5.79 8.754,10.604 18.92,17.75 C 50.544,50.979 51.301,44.3 45.999,95.095 Z m 117.64,-46.889 c -0.356,2.358 -1.123,5.583 -1.539,6.99 2.78,7.068 -0.257,20.417 -3.061,26.38 -1.226,7.093 -2.545,8.521 -6.01,15.59 -2.477,-11 2.583,-30.519 -6.76,-45.08 -6.059,-10.044 -8.657,-11.36 -7.23,-23.77 0,0 0.061,-0.675 0.08,-0.85 -12.628,7.721 -26.576,8.594 -44.97,8.2 -5.317,0 -12.5,-0.668 -16.98,-3.44 -9.081,2.583 -12.45,-1.437 -20.01,-7.34 -8.163,-6.937 -13.709,-12.994 -20.55,-27.27 3.843,3.118 11.537,4.689 16.39,5.5 -3.273,-4.363 -5.199,-8.349 -6.07,-14 3.48,2.32 11.82,4.603 19.17,3.79 13.534,-1.271 32.484,-15.167 55.77,-4.63 10.804,4.767 16.286,11.476 17.57,15 0.01,0 0.02,0.01 0.04,0.01 0.06,0.02 0.12,0.03 0.189,0.04 0.017,0.018 0.332,0.09 0.36,0.09 6.976,2.325 7.443,2.759 14.2,10.64 3.798,4.659 12.94,13.96 9.411,34.15 z"
                filter="brightness(0.3)"
                stroke-width="0"
                opacity="1"
                style="display:inline"/>
    </g>
</svg>
