<?xml version="1.0" encoding="UTF-8" standalone="no"?>
<?xml-stylesheet type="text/css" href="avatarpage_style.css" ?>
<svg
        id="3h"
        viewBox="0 0 204.8632 247.21555"
        width="204.8632"
        height="247.21555"
        preserveAspectRatio="xMinYMin"
        version="1.1"
        xml:space="preserve"
        xmlns="http://www.w3.org/2000/svg">
    <defs
            id="SvgjsDefs1136"/>
    <g
            id="hair3"
            class="color_hair">
    <g
            id="coda"
            transform="matrix(0.7790677,0,0,0.5933144,12.799876,80.836807)">
        <path
                id="SvgjsPath1465"
                d="m 19.273,278.474 c -2.987,0 -5.493,-0.846 -7.277,-2.449 0.26,0.058 0.551,0.086 0.869,0.086 3.453,0 9.151,-3.228 11.324,-7.389 0.217,-2.067 -0.396,-4.376 -1.812,-6.896 -3.315,-5.838 -8.82,-7.466 -14.648,-9.189 -4.849,-1.434 -9.862,-2.916 -13.504,-7.058 -9.954,-10.596 -9.202,-23.263 2.233,-37.651 -0.092,-0.686 -0.144,-1.071 -0.196,-1.463 -3.866,-7.445 -4.552,-14.183 -2.053,-20.081 3.215,-7.589 11.649,-13.6 24.39,-17.383 l 0.078,-0.022 -0.006,-0.081 c -0.188,-2.399 0.79,-5.015 2.684,-7.174 2.575,-2.938 6.422,-4.685 10.832,-4.919 l 0.178,-0.009 -0.101,-0.147 c -2.886,-4.215 -3.457,-8.688 -1.566,-12.274 1.472,-2.79 4.241,-4.593 7.055,-4.593 1.668,0 3.204,0.638 4.439,1.846 0.103,0.064 0.497,0.535 0.59,0.659 1.017,1.34 1.395,2.912 1.182,4.919 -0.374,-3.863 -2.871,-5.271 -5.219,-5.271 -2.852,0 -5.581,1.867 -6.489,4.44 -0.638,1.809 -0.888,5.502 4.603,9.93 l 0.146,-0.134 c -1.75,-2.598 -2.347,-5.018 -1.775,-7.19 0.577,-2.192 2.337,-4.074 5.237,-5.6 -2.102,3.184 -0.972,7.345 1.311,9.902 2.368,2.658 7.015,4.122 13.083,4.121 9.51,0 19.561,-3.474 22.882,-7.908 2.887,-3.866 2.608,-10.002 2.232,-12.271 3.171,3.053 4.943,8.707 4.871,15.585 -0.113,10.844 -5.03,26.601 -18.489,38.301 -5.133,4.465 -10.948,8.174 -16.572,11.762 -1.728,1.103 -3.456,2.205 -5.167,3.329 -21.479,14.074 -16.134,26.021 -10.476,38.668 0.681,1.521 1.385,3.096 2.029,4.654 5.482,7.098 4.38,13.164 2.493,17.009 -3.674,7.474 -12.743,11.941 -19.391,11.941 z"
                stroke-width="0"
                opacity="1"/>
        <path
                id="SvgjsPath1466"
                d="m 12.475,191.111 c 0.852,-1.361 2.349,-3.862 4.827,-6.614 12.467,-14.117 39.351,-14.11 51.802,-22.074 4.492,-2.792 13.153,-11.878 5.33,-3.896 -7.607,7.618 -16.997,10.345 -36.132,15.341 -19.646,5.101 -23.722,15.032 -25.852,17.167 0.013,-0.658 0.016,-0.924 0.025,0.076 z m 29.59,-5.067 c 18.531,-10.538 27.64,-4.63 40.413,-28.171 1.319,-2.504 2.089,-4.04 1.927,-3.741 -14.254,28.508 -25.318,17.027 -51.257,37.2 -1.104,0.854 -4.972,3.886 -4.727,5.26 0,0 -1.025,-2.159 13.644,-10.548 z m 18.271,-24.363 c 8.71,-1.954 14.749,-6.304 13.749,-5.729 -20.646,10.732 -50.717,-0.626 -52.951,17.25 3.043,-14.031 19.984,-6.666 39.202,-11.521 z m -45.665,81.293 c 1.967,2.627 5.455,6.543 7.947,11.192 1.007,2.038 1.655,3.269 1.536,3.021 -0.15,-0.233 -0.734,-1.797 -1.758,-3.979 C 16.877,242.285 -3.7,220.801 12.513,205.089 0.955,215.395 5.45,230.647 14.671,242.974 Z m 22.477,-89.766 c 1.112,1.929 3.154,3.298 4.97,3.814 3.627,1.172 -5.838,-1.214 -4.942,-7.852 0.154,-1.678 0.952,-3.258 1.145,-3.711 -1.683,2.793 -2.337,4.868 -1.173,7.749 z"
                filter="brightness(0.5)"
                stroke-width="0"
                opacity="1"/>
        <path
                id="SvgjsPath1467"
                d="m 24.172,184.311 c -14.06,5.821 -44.699,43.764 -21.156,59.208 l 1.699,1.207 c 16.558,9.814 13.79,8.106 20.289,15.289 -4.825,-5.396 -11.641,-8.378 -18.119,-11.143 -2.706,-1.175 -5.711,-2.516 -8.177,-4.419 -5.273,-3.865 -7.719,-8.127 -8.96,-13.253 -4.119,-14.397 19.45,-41.539 34.424,-46.889 z m -5.182,28.413 c -2.208,7.286 -2.518,14.654 0.167,22.124 1.798,3.846 -0.713,-7.868 -0.577,-9.888 0.646,-9.091 4.533,-16.651 10.343,-23.616 8.475,-11.28 20.252,-14.138 34.692,-21.842 -18.447,7.838 -37.363,10.155 -44.625,33.222 z m 52.575,-54.262 c -2.912,1.841 -5.708,3.029 -5.574,2.941 -20.028,7.146 -49.126,4.403 -56.009,31.838 0,0 0.205,-0.613 0.567,-1.694 0.548,-1.896 2.616,-6.506 5.634,-9.749 8.07,-8.863 21.092,-10.477 29.116,-12.297 4.584,-1.002 10.72,-2.457 15.161,-3.974 11.71,-4.021 17.587,-10.996 19.145,-15.144 0.121,-0.286 0.216,-0.501 0.292,-0.666 -0.7,1.313 -3.382,5.74 -8.332,8.745 z m 8.331,-8.744 c 0.25,-0.47 0.245,-0.536 0,0 z M 47.45,160.992 c 9.354,0.252 18.606,-0.313 27.512,-6.406 5.241,-3.517 7.248,-8.298 6.702,-13.057 -0.076,-0.789 -0.115,-1.153 -0.104,-0.972 -0.027,0.342 0.266,2.631 -0.726,5.634 -0.648,1.879 -1.709,3.466 -3.079,4.816 0.37,-0.723 0.602,-1.56 0.62,-2.501 -0.194,0.341 -0.401,0.674 -0.636,0.988 -3.322,4.435 -13.373,7.908 -22.882,7.908 -6.068,0.001 -10.714,-1.463 -13.083,-4.121 -2.282,-2.558 -3.413,-6.719 -1.311,-9.902 -0.345,0.182 -0.672,0.369 -0.985,0.561 -0.983,3.555 -1.464,6.757 0.521,9.06 2.653,3.077 6.233,4.825 10.177,5.602 -5.993,0.279 -11.489,0.254 -15.006,0.646 -14.071,1.387 -14.16,8.158 -14.964,10.815 3.344,-9.759 9.123,-9.686 27.244,-9.071 z M 31,146 c 1.601,-4.003 5.766,-5.438 9.929,-5.34 -0.963,-0.574 -2.038,-0.879 -3.179,-0.879 -2.814,0 -5.583,1.803 -7.055,4.593 -1.89,3.586 -1.319,8.06 1.566,12.274 l 0.101,0.147 -0.178,0.009 c -4.41,0.234 -8.257,1.981 -10.832,4.919 -1.894,2.159 -2.872,4.774 -2.684,7.174 l 0.006,0.081 -0.078,0.022 c -12.741,3.783 -21.175,9.794 -24.39,17.383 -2.143,5.058 -1.937,10.734 0.602,16.943 -2.575,-15.776 6.479,-28.02 24.293,-32.77 -0.505,-1.557 1.681,-5.714 3.897,-8.558 1.298,-1.666 7,-6 12,-4 C 32,155 30,151 31,146 Z"
                filter="brightness(1.5)"
                stroke-width="0"
                opacity="1"/>
        <path
                id="SvgjsPath1468"
                d="m 79.819,136.945 c 0.458,2.279 0.748,8.596 -2.16,12.49 -5.553,7.413 -29.061,11.355 -35.81,3.78 -2.465,-2.763 -3.387,-7.021 -1.07,-10.11 -6.617,3.309 -7.218,8.135 -3.86,13.12 -14.194,-11.442 6.99,-20.876 6.99,-7.99 0.402,-2.144 0.317,-4.209 -1.02,-5.97 0,-0.011 -0.01,-0.03 -0.03,-0.04 -0.071,-0.095 -0.506,-0.624 -0.6,-0.67 -6.176,-6.035 -18.103,3.432 -10.08,15.149 -8.822,0.469 -14.027,6.88 -13.61,12.2 -20.399,6.058 -32.254,18.669 -22.41,37.55 0.053,0.4 0.104,0.791 0.22,1.41 -10.107,12.719 -13.392,25.898 -2.23,37.78 7.915,8.998 22.008,5.433 28.14,16.229 1.13,2.011 2.05,4.44 1.81,6.801 -2.576,4.933 -9.791,8.206 -12.48,7.13 9.597,9.559 39.416,-7.206 24.64,-26.32 -5.823,-14.095 -15.662,-27.427 8.41,-43.2 7.38,-4.85 15.06,-9.28 21.75,-15.1 20.3,-17.645 22.519,-45.971 13.4,-54.239 z m -61.22,32.22 c 0.025,0.389 0.171,1.045 0.26,1.38 -16.569,7.271 -24.051,21.227 -22.81,34.94 -8.403,-17.972 3.563,-30.356 22.55,-36.32 z m -21.93,38.24 c 0.02,0.021 0.03,0.04 0.04,0.061 0,0 -0.02,0.01 -0.02,0.02 -0.01,-0.02 -0.02,-0.05 -0.02,-0.081 z m 75.23,-23.62 c -15.535,17.703 -45.832,24.573 -43.55,45.75 1.207,11.019 10.133,22.296 11.35,27.311 3.174,13.123 -17.963,26.659 -27.43,19.31 4.433,0.477 9.54,-2.942 11.94,-6.96 0.302,-1.101 0.302,-4.294 -1.93,-8.06 -5.682,-9.708 -17.007,-7.609 -25.5,-14.44 -3.81,-3.06 -6.81,-7.27 -8.18,-12 -3.542,-12.195 5.291,-22.773 8.35,-27.4 0,0 -0.357,-0.704 -0.4,-0.79 -1.744,-13.806 8.071,-30.664 22.64,-35.979 -0.044,-0.089 -0.22,-1.106 -0.22,-1.74 -0.058,-6.386 7.545,-11.939 13.5,-11.939 -7.29,-12.228 3.765,-20.163 9.51,-15.08 0.046,0.022 0.415,0.359 0.58,0.58 0.02,0.01 0.04,0.029 0.04,0.05 0.97,1.14 1.33,2.56 1.35,4.03 -0.25,-1.46 -0.85,-2.78 -2.03,-3.721 -3.075,-4.464 -20.004,4.023 -3.53,14.99 -4.196,-5.593 -4.388,-10.792 1.97,-14.22 -1.868,2.829 -1.264,6.942 1.13,9.819 5.876,7.062 22.977,4.923 30.75,1.011 5.573,-2.813 9.361,-6.896 7.93,-16.73 9.537,11.063 1.383,35.223 -8.27,46.208 z"
                filter="brightness(0.3)"
                stroke-width="1"
                opacity="1"/>
    </g>
        <g
                id="front"
                transform="translate(1.478388,14.109051)">
        <path
                id="SvgjsPath1470"
                d="M 163.476,45.849 C 157.957,11.071 51.814,-21.979 45.016,30.572 c -0.885,18.136 -10.912,73.919 -11.9,84.041 6.018,-18.799 20.431,-5.47 38.764,-49.857 4.9,-11.864 11.813,-39.917 31.311,-41.801 9.464,-0.893 16.743,3.867 19.483,12.72 8.666,-4.414 8.823,13.935 10.045,23.533 1.612,12.513 0.039,18.399 7.431,27.51 0.063,0.161 1.351,1.595 1.363,1.609 11.489,12.621 22.998,12.145 25.989,24.744 1.173,4.932 -5.766,-67.708 -4.026,-67.222 z"
                stroke-width="0"
                opacity="0.1"
                style="display:inline"/>
            <path
                    id="SvgjsPath1471"
                    d="m 10.679,67.989 c -0.08,0.52 -0.14,1.05 -0.18,1.58 -3.683,6.71 -0.19,17.072 7.2,19.07 3.015,2.597 6.918,4.146 10.19,4.51 C 12.352,96.056 3.486,80.156 10.679,67.989 Z m 130.31,82.813 c 1.873,11.332 -8.278,12.377 -17.511,19.258 l -0.136,-0.146 c 3.56,-4.151 8.838,-4.812 12.242,-8.592 5.51,-6.138 -0.258,-14.435 1.428,-20.549 2.926,-10.847 21.597,-10.767 21.597,-24.554 -0.088,-11.4 -10.183,-10.74 -13.68,-25.996 3.991,4.223 8.235,7.215 14.113,9.352 2.064,2.779 5.38,10.297 2.086,14.754 l -0.133,-0.071 c 1.018,-3.279 0.099,-7.181 -1.637,-9.489 -1.885,-2.487 -3.539,-2.963 -5.204,-3.87 6.479,8.318 6.148,15.227 6.144,15.296 0,18.127 -24.507,11.586 -19.896,31.825 0.395,1.726 0.462,2.093 0.595,2.789 z M 28.074,93.072 c -0.721,0.188 -1.471,0.338 -2.282,0.473 -19.331,17.736 8.183,44.458 20.79,26.081 l -0.148,-0.132 c -1.512,1.33 -3.145,2.004 -4.854,2.004 h -10e-4 c -4.978,-0.002 -9.098,-5.829 -7.713,-10.782 2.755,-9.938 16.66,-13.418 22.715,-21.969 3.322,-4.667 7.244,-13.057 9.402,-18.934 L 65.802,69.73 C 56.737,86.019 42.105,94.836 28.074,93.072 Z m 26.672,-1.239 c -2.594,6.695 -17.633,13.882 -13.478,23.168 l 0.189,-0.06 c -0.4,-2.134 0.236,-4.373 1.944,-6.846 5.659,-8.237 14.417,-8.034 16.256,-22.935 l -0.188,-0.059 c -1.45,2.741 -2.006,3.88 -4.723,6.732 z m 114.68,15.73 c 1.005,1.093 2.341,3.133 3.048,5.467 l 0.195,-0.025 c 0.314,-7.889 -6.813,-11.093 -13.422,-13.359 0.99,1.468 13.351,10.311 5.77,21.729 -6.407,9.553 -20.878,9.986 -24.507,22.293 0.191,2.607 1.072,5.197 1.342,8.249 1.865,3.505 1.438,5.546 0.955,6.777 l 0.176,0.092 c 2.649,-3.987 0.84,-6.468 -0.039,-8.81 -4.883,-13.385 11.86,-17.55 21.416,-26.186 7.449,-7.448 7.023,-12.846 5.066,-16.227 z m 3.785,-19.889 c 4.254,-0.131 8.963,-2.941 9.957,-8.197 l -0.181,-0.076 c -3.981,5.667 -9.384,4.417 -10.994,3.249 4.146,-3.207 6.866,-7.883 7.496,-13.841 0.855,-8.086 -2.466,-16.957 -6.196,-21.562 0.679,-4.414 -0.745,-5.51 -3.217,-7.753 l -0.149,0.131 c 2.775,4.03 -1.925,10.404 -7.444,2.045 1.132,1.552 2.68,3.229 4.529,3.746 C 161.146,8.458 137.41,-4.324 123.985,0.435 79.132,-29.613 36.629,3.565 29.402,59.413 20.748,52.766 12.169,57.911 11.119,68.669 c -2.856,27.867 36.579,37.724 57.34,-6.717 5.763,-12.363 13.758,-38.861 34.479,-40.863 0.731,-0.07 1.461,-0.106 2.166,-0.106 8.938,0 15.002,5.705 17.664,14.319 9.215,-4.692 12.382,13.048 13.681,23.25 1.714,13.297 0.041,19.554 7.897,29.234 0.067,0.171 1.436,1.697 1.448,1.711 12.213,13.413 23,8.257 26.729,19.893 1.64,5.134 -1.395,9.365 -4.83,13.418 1.683,-0.594 5.142,-0.965 8.508,-2.992 10.803,-6.517 12.52,-21.241 -2.99,-32.142 z"
                    stroke-width="0"
                    opacity="1"/>
            <path
                    id="SvgjsPath1472"
                    d="m 80.007,36.444 c 3.484,-8.505 13.429,-16.407 28.114,-15.8 7.039,0.291 15.361,8.612 14.549,15.101 -9.122,-8.453 -29.394,-8.453 -42.663,0.699 z"
                    filter="brightness(0.5)"
                    stroke-width="0"
                    opacity="1"
                    style="display:inline"/>
            <path
                    id="SvgjsPath1473"
                    d="m 170.429,39.816 c 2.258,2.056 3.086,2.956 2.981,5.889 -1.468,6.625 -9.488,4.38 -13.608,0.529 7.969,4.011 13.608,-0.529 10.627,-6.418 z m 12.739,39.662 -0.05,-0.021 c -0.736,1.761 -1.699,3.408 -3.118,4.827 -7,5 -16,2 -22,-3 4.172,4.768 9.765,6.677 15.508,6.609 -0.101,-0.072 -0.195,-0.147 -0.297,-0.219 4.254,-0.131 8.963,-2.941 9.957,-8.196 z M 21,106.283 c 0.924,-5.081 3.351,-9.303 6.474,-13.071 0,0 -0.799,0.187 -1.682,0.333 -13.494,12.38 -4.18,29.248 7.159,31.901 C 25.569,121.724 20.294,114.754 21,106.283 Z M 65.802,69.73 c -1.389,5.293 -6.815,15.637 -9.221,19.017 -6.055,8.55 -19.96,12.031 -22.715,21.969 -1.832,6.554 5.961,14.591 12.568,8.778 l 0.148,0.132 c -0.396,0.577 -0.815,1.104 -1.248,1.604 C 33.783,130.141 24.835,112.424 34,103.284 43.878,93.434 57.354,93.212 65.802,69.73 Z M 27.801,93.135 C 13.971,96.547 2.939,81.082 10.679,67.989 c -0.08,0.52 -0.14,1.05 -0.18,1.58 -3.683,6.71 -0.19,17.072 7.2,19.07 2.989,2.574 6.848,4.115 10.102,4.496 z m 141.387,29.254 c -1.076,0.251 -1.021,0.252 -1.494,0.419 3.436,-4.053 6.47,-8.284 4.83,-13.418 -3.797,-11.849 -14.94,-6.297 -27.454,-20.715 -0.021,-0.132 -0.021,-0.132 0,0 -8.636,-9.933 -6.913,-16.879 -8.62,-30.123 -1.299,-10.201 -4.466,-27.941 -13.681,-23.25 -3.2,-10.356 -10.696,-15.091 -19.83,-14.213 -20.72,2.001 -28.716,28.5 -34.479,40.863 -17.827,38.158 -49.375,36.244 -56.151,17.442 2.157,2.185 8.936,7.523 11.927,8.292 C 40.55,91.879 52,82.284 59,67.284 c 10,-22 21,-60 51,-52 6,2 13,8 14,16 1,-4 5.137,-1.504 6,-1 7.536,4.402 8,31 12,47 2,8 8,13 14,16 9,4 25,10 19,22 6.769,-4.062 8.493,-11.33 7.043,-18.394 5.822,10.061 1.611,22.135 -12.855,25.499 z m -8.059,-8.06 -0.133,-0.071 c 1.017,-3.275 0.104,-7.174 -1.637,-9.489 -1.885,-2.487 -3.539,-2.963 -5.204,-3.87 4.465,5.581 6.358,12.247 6.144,15.296 0,8.941 -6.206,12.02 -11.986,15.351 4.062,-3.166 8.695,-5.614 10.688,-10.262 1.146,-3.44 1.423,-9.372 -2.048,-13.682 C 145.289,93.118 145.7,93.265 145.013,90.31 c 3.938,3.995 7.768,6.989 14.031,9.265 2.063,2.779 5.379,10.297 2.085,14.754 z m 11.54,-1.325 -0.195,0.025 c -0.707,-2.334 -2.043,-4.374 -3.048,-5.467 1.957,3.382 2.383,8.779 -5.066,16.228 -9.556,8.636 -26.299,12.801 -21.416,26.186 0.879,2.342 2.688,4.822 0.039,8.81 l -0.176,-0.092 c 0.483,-1.231 0.91,-3.272 -0.955,-6.777 -0.27,-3.052 -1.15,-5.642 -1.342,-8.249 3.629,-12.307 18.1,-12.74 24.507,-22.293 7.571,-11.404 -4.733,-20.192 -5.77,-21.729 6.608,2.265 13.736,5.469 13.422,13.358 z M 138.919,11.468 c 1.651,-0.094 6.902,0.992 11.702,5.47 0.264,0.246 1.177,0.876 1.267,1.242 -0.053,-0.213 -0.432,-0.529 -0.565,-0.695 -8.649,-10.731 -20.844,-10.137 -26.215,1.18 3.729,-5.926 7.352,-7.427 13.811,-7.197 z M 125.292,12.5 c 3.131,-6.863 6.52,-8.033 11.678,-9.144 -2.425,0.7 -4.488,1.909 -6.559,3.308 -2.207,1.491 -3.769,3.584 -5.119,5.836 z M 98.428,-3.456 c 6.193,0.112 9.726,0.061 15.894,2.858 3.988,1.808 8.072,6.634 9.125,10.58 0.092,0.343 0.146,0.956 0.357,1.247 -0.157,-0.216 -0.236,-0.559 -0.338,-0.802 -0.903,-2.179 -2.23,-4.043 -3.886,-5.615 -3.045,-2.892 -9.305,-6.081 -13.272,-7.017 -2.595,-0.612 -5.238,-0.923 -7.88,-1.251 z M 85.466,8.464 c 8.818,-2.963 18.533,-4.691 27.102,-0.052 7.246,3.922 12.452,15.885 12.019,21.152 0.035,-0.425 -0.144,-0.972 -0.211,-1.389 -0.442,-2.74 -1.213,-5.677 -3.733,-9.784 C 112.622,5.322 100.155,4.512 85.466,8.464 Z m 39.622,16.872 c 4.646,-5.594 9.915,-8.012 15.557,-3.422 3.039,2.473 5.411,7.471 7.541,12.139 0.311,0.68 1.049,1.718 1.128,2.47 -0.023,-0.226 -3.622,-5.88 -3.745,-6.071 C 137.46,18.09 132.274,18.675 125.088,25.336 Z m 3.79,2.894 c 2.147,-0.928 5.885,-2.564 10.627,3.72 8.927,11.829 8.434,30.24 9.228,31.829 0,0 -2.488,-11.189 -5.874,-20.503 -2.357,-6.943 -6.085,-18.386 -13.981,-15.046 z m 0.627,-27.289 c -5.084,7.857 -4.512,12.572 -4.862,14.069 0,-4.912 -0.396,-7.672 4.862,-14.069 z M 51.946,19.75 C 56.418,12.484 62.261,5.563 69.609,1.06 c 8.727,-4.957 20.542,-5.78 22.963,-5.192 -0.413,-0.1 -1.087,0.085 -1.501,0.125 C 79.942,-2.928 67.39,4.184 60.268,10.735 57.229,13.53 54.565,16.566 51.946,19.75 Z M 84.603,10.169 C 74.279,13.372 68.061,21.799 63.199,31.794 54.049,50.6 52.301,58.256 50.5,65.223 c 0.259,-1 5.646,-49.053 34.103,-55.054 z M 22.081,63.668 c -3.561,8.263 7.553,11.926 16.005,5.157 1.625,-1.303 3.44,-3.105 4.366,-5.016 -8.112,16.739 -25.89,9.267 -20.371,-0.141 z m -2.396,12.686 c 3.221,6.726 11.029,8.173 17.526,5.532 C 47.338,77.77 48.468,69.088 49.138,67.6 c -0.467,1.039 -0.135,3.909 -2.753,8.552 -7.062,12.519 -23.269,10.289 -26.7,0.202 z M 151.572,46.991 c 5.011,7.583 12.652,33.006 27.642,15.851 -1.259,1.44 -7.862,12.561 -17.513,4.278 -2.713,-2.719 -4.492,-6.374 -6.011,-9.85 -0.768,-1.759 -4.118,-10.279 -4.118,-10.279 z"
                    filter="brightness(0.5)"
                    stroke-width="0"
                    opacity="1"/>
            <path
                    id="SvgjsPath1474"
                    d="m 11.021,72.976 c -0.083,-1.398 -0.053,-2.837 0.098,-4.307 0.713,-7.312 4.967,-12.225 10.584,-12.225 2.024,0 4.145,0.678 6.218,1.957 -9.528,-3.028 -15.498,5.236 -16.9,14.575 z m 15.437,15.026 c 0.412,0.124 0.996,0.163 1.375,0.362 -1.165,-0.611 -2.362,-1.095 -3.475,-1.823 -8.705,-5.689 -9.406,-16.603 -5.602,-22.126 2,-2.904 4.856,-4.222 8.06,-5.354 C 10.56,60.979 8.307,82.551 26.458,88.002 Z M 68.477,36.558 c 8.522,-15.251 18.99,-26.346 36.584,-25.088 8.769,0.627 12.573,5.472 13.573,6.249 -0.695,-0.54 -1.208,-1.363 -1.875,-1.952 C 106,6.247 83.032,6.989 67.955,31.316 53.86,54.056 59.573,79.009 36.972,88.124 58.752,80.897 55.694,59.44 68.477,36.558 Z m 72.078,-20.624 c 4.046,2.542 6.225,7.406 8.431,11.449 3.468,6.355 11.339,20.026 18.525,19.247 -0.817,0.088 -2.025,-0.526 -2.74,-0.868 -6.921,-3.315 -10.014,-14.387 -13.951,-20.79 -7.076,-11.503 -13.41,-15.536 -23.121,-6.073 3.662,-2.801 8.314,-5.82 12.856,-2.965 z m 10.119,39.165 c 0.313,0 1.294,3.863 1.411,4.243 3.23,10.488 5.633,20.354 13.769,24.604 3.326,1.738 7.543,1.937 11.065,0.615 -1.68,0.63 -6.101,0.697 -9.473,-1.113 C 159.407,79 154.645,62.505 150.674,55.099 c -0.001,0 0.347,0.649 0,0 z m 12.122,8.94 c 8.201,8.268 16.567,-2.15 16.567,-2.15 -0.07,-0.044 -1.289,0.962 -1.435,1.061 -5.791,3.958 -11.011,5.188 -19.353,-9.521 -1.483,-2.614 -2.706,-5.6 -4.612,-7.941 2.535,5.343 4.491,14.173 8.833,18.551 z m -2.517,25.263 c 9.286,3.633 14.87,4.469 17.569,14.461 0.243,0.9 0.716,2.036 0.731,2.972 -0.015,-0.868 -0.262,-1.837 -0.415,-2.689 -2.922,-16.191 -16.892,-13.159 -24.917,-22.424 -7.583,-8.756 -6.702,-24.363 -14.525,-44.845 8.576,29.401 2.06,44.893 21.557,52.525 z m -88.25,-92.48 c 1.241,-1.198 3.136,-1.921 4.725,-2.482 7.571,-2.674 15.332,-1.807 21.078,-1.52 13.311,0.664 19.81,4.694 25.242,10.029 C 109.762,-14.638 80.875,-11.717 72.029,-3.178 Z M 44.67,22.597 c -1.168,2.621 -2.494,5.509 -3.051,8.347 0.083,-0.421 0.374,-0.872 0.547,-1.259 2.896,-6.466 5.574,-10.3 9.528,-15.151 C 55.493,8.966 61.074,3.465 67.481,1.095 59.604,3.042 50.129,10.354 44.67,22.597 Z m -5.631,33.18 c -0.198,1.042 -0.562,2.207 -0.573,3.274 0.009,-0.869 0.568,-1.976 0.821,-2.793 2.163,-7.005 3.842,-10.827 6.375,-17.01 C 48.093,33.311 49.3,27.893 56.283,18.543 45.945,29.388 41.813,41.125 39.039,55.777 Z M 55.375,27.942 c -2.789,4.838 -6.141,16.149 -6.712,20.02 0.157,-1.067 2.891,-7.599 3.657,-9.29 1.558,-3.547 3.591,-6.816 5.289,-10.283 C 63.771,15.815 69.966,12.988 72.103,11.473 65.062,14.781 60.126,19.601 55.375,27.942 Z M 32.739,77.635 c 3.527,0.049 6.748,-1.36 9.404,-3.594 4.966,-4.177 5.505,-15.654 5.311,-16.667 0.115,0.6 -0.32,1.634 -0.458,2.207 -2.021,8.361 -5.425,11.157 -6.411,12.335 -5.188,6.198 -12.555,4.282 -16.445,4.018 2.678,0.871 5.732,1.998 8.599,1.701 z M 135.581,7.312 c 2.286,-0.523 5.451,-1.355 8.763,0.376 0.767,0.4 1.354,0.956 2.052,1.447 -0.68,-0.478 -1.141,-1.345 -1.83,-1.865 -4.273,-3.233 -12.625,-4.116 -18.211,7.018 2.263,-3.269 5.224,-6.061 9.226,-6.976 z m 5.783,24.535 c 5.162,8.297 6.934,15.202 6.99,16.202 -0.257,-4.489 -2.794,-13.511 -5.681,-17.594 -4.828,-6.831 -10.648,-9.3 -16.343,-2.971 6.1,-5.485 10.664,-2.661 15.034,4.363 z M 115.443,7.317 c 4.175,3.956 6.33,6.555 8.45,11.981 0.154,0.395 0.785,1.475 0.709,1.904 0.18,-1 -2.36,-12.5 -8.289,-16.704 -5.316,-3.771 -11.695,-5.085 -18.12,-4.544 6.495,0.628 12.454,2.819 17.25,7.363 z M 26.531,114.318 c 0.908,3.285 3.005,5.68 5.192,8.166 -2.104,-2.392 -3.806,-5.666 -4.187,-8.842 C 26.282,103.188 41.719,94.018 45.772,91.179 35.697,96.374 23.477,103.265 26.531,114.318 Z M 159,121.284 c 0.902,-2.707 1.123,-5.713 0.253,-8.457 -1.509,-4.762 -10.313,-12.876 -13.038,-18.543 2.083,9.288 12.847,11.595 12.382,22.561 -0.573,13.472 -20.439,13.494 -21.831,25.208 -0.852,7.131 5.628,15.771 -4.449,21.886 -2.313,1.404 -4.846,2.436 -6.994,4.104 -1.688,1.312 -2.598,2.547 -1.235,1.572 6.083,-4.354 11.355,-5.69 14.86,-9.83 5.911,-6.979 -2.328,-15.025 2.204,-22.31 3.188,-5.123 14.697,-8.842 17.848,-16.191 1.102,-3.305 -1.992,4.648 0,0 z"
                    filter="brightness(1.5)"
                    stroke-width="0"
                    opacity="1"/>
            <path
                    id="SvgjsPath1475"
                    d="m 173.609,87.849 c 5.387,-0.243 8.898,-3.05 9.87,-9.46 -3.175,4.882 -8.078,5.779 -11.181,4.17 11.266,-8.857 8.878,-24.411 1.141,-35.03 0.742,-3.228 0.077,-6.223 -4.45,-8.89 2.911,2.471 1.497,7.196 -1.66,6.74 -4.094,-36.541 -26.934,-49.917 -43.39,-45.29 -13.518,-9.722 -28.565,-14.841 -45.87,-10.29 -34.667,9.075 -43.87,39.112 -48.83,69.36 -2.077,-1.411 -4.948,-3.106 -7.42,-3.13 -6.215,-0.062 -10.224,5.815 -11.05,11.39 -8.445,12.359 0.59,28.023 14.71,26.25 -16.989,15.276 1.356,38.655 15.81,30.931 2.886,-1.545 5.02,-4.014 6,-6.07 -4.84,6.229 -13.562,0.649 -13.23,-5.819 0.458,-8.869 13.948,-13.878 20.28,-20.321 -2.623,5.241 -18.354,13.693 -12.89,23.1 0.005,0 0.197,0.315 0.2,0.32 -2.039,-12.234 16.625,-11.175 18.2,-31.201 11.19,-20.805 16.276,-50.683 34.67,-60.46 10.764,-5.729 23.353,-3.221 28.26,11.44 12.934,-7.735 13.381,35.532 13.93,38.91 0.96,6.084 4.058,11.426 8.271,15.91 2.857,13.654 9.712,13.542 12.34,21.32 0.77,2.29 0.88,4.98 0.319,7.32 -2.92,12.169 -24.624,10.664 -21.47,27.59 0.858,4.641 3.469,11.16 -2.5,15.92 -3.733,2.997 -8.958,4.384 -11.45,8.729 9.444,-7.482 20.484,-8.248 19.74,-19.079 1.473,3.192 1.471,5.439 -0.27,8.369 0.026,-0.029 0.779,-0.87 0.779,-0.909 6.333,-7.552 -4.379,-11.542 2.33,-20.29 5.887,-7.674 30.81,-16.702 25.37,-30.301 0.769,1.268 1.858,3.806 2.29,5.04 -0.467,3.046 -2.945,6.55 -4.96,8.811 2.138,-0.488 5.975,-1.001 9.36,-3.101 11.603,-7.217 11.673,-21.985 -3.249,-31.979 z m -156.51,0.25 c -5.549,-2.098 -9.671,-11.194 -6.64,-18.01 -0.363,6.421 1.901,13.634 6.64,18.01 z m -6.42,-20.11 c -0.08,0.52 -0.14,1.05 -0.18,1.58 -3.683,6.71 -0.19,17.072 7.2,19.07 3.015,2.597 6.918,4.146 10.19,4.51 C 12.352,96.056 3.486,80.156 10.679,67.989 Z m 32.64,40.05 c -1.445,2.091 -2.427,4.432 -1.96,6.921 -4.132,-9.234 10.863,-16.337 13.48,-23.091 2.703,-2.825 3.257,-3.958 4.72,-6.72 -1.83,14.831 -10.581,14.655 -16.24,22.89 z m 13.18,-19.35 c -6.028,8.513 -19.968,12.038 -22.73,22 -1.855,6.634 6.043,14.762 12.73,8.88 -12.518,18.248 -39.865,-8.311 -20.64,-25.95 0.76,-0.11 1.51,-0.26 2.24,-0.45 9.674,1.281 22.187,-2.964 31.63,-14.32 0.01,0 0.02,-0.01 0.02,-0.02 2.33,-2.8 4.37,-5.87 6.14,-9.05 -2.105,5.733 -6.063,14.236 -9.39,18.91 z m 66.92,81.29 c 3.541,-4.132 8.822,-4.794 12.24,-8.59 5.546,-6.178 -0.225,-14.516 1.45,-20.59 2.91,-10.792 21.6,-10.715 21.6,-24.58 -0.088,-11.373 -10.232,-11.034 -13.6,-25.661 4.459,4.709 9.038,7.344 13.899,9.11 1.941,2.641 5.329,10.15 2.04,14.601 1.165,-3.166 0.117,-7.266 -1.609,-9.561 -2.066,-2.728 -3.826,-3.043 -5.681,-4.15 6.864,8.566 6.44,15.63 6.44,15.63 0,17.419 -23.907,12.546 -20.25,30.23 0.196,1 0.624,2.692 0.89,4.09 -0.01,-0.01 -0.029,-0.021 -0.05,-0.03 0.021,0.01 0.03,0.021 0.05,0.04 2.09,11.542 -8.069,12.493 -17.419,19.461 z m 38.32,-45.75 c -6.924,6.401 -17.294,8.011 -21.15,18.88 -0.306,-10.538 13.433,-10.289 18.5,-19.979 1.69,-3.222 1.953,-7.32 1.601,-8.061 0,-2.538 -1.591,-7.867 -6.271,-13.88 7.516,4.415 7.361,11.318 6.431,13.481 2.209,-1.546 3.365,-7.719 -0.98,-14.281 8.169,7.525 9.98,15.73 1.869,23.84 z m 7.16,-17.31 c 2.592,3.737 2.784,9.406 -4.61,16.801 -9.573,8.647 -26.357,12.809 -21.439,26.29 0.885,2.365 2.672,4.772 0.05,8.72 0.597,-1.519 0.777,-3.598 -0.96,-6.86 -0.248,-2.982 -1.139,-5.604 -1.33,-8.21 3.622,-12.24 18.049,-12.624 24.49,-22.229 7.605,-11.455 -4.923,-20.591 -5.601,-21.591 2.891,1.01 13.438,3.935 13.07,13.161 -0.821,-2.712 -2.574,-5.2 -3.67,-6.082 z m 7.25,12.81 c -3.326,2.004 -7.141,2.506 -8.141,2.86 3.398,-4.015 6.219,-8.195 4.61,-13.23 -3.758,-11.723 -14.523,-6.502 -26.75,-19.93 -0.112,-0.122 -1.376,-1.544 -1.43,-1.68 -7.846,-9.677 -6.185,-15.976 -7.891,-29.21 -1.295,-10.17 -4.581,-28.055 -13.72,-23.38 -2.851,-9.242 -9.671,-15.153 -19.9,-14.17 -20.827,2.012 -28.627,28.2 -34.56,40.92 0,0.01 0,0.02 -0.01,0.03 -20.624,44.127 -59.998,34.618 -57.14,6.74 1.021,-10.465 9.459,-15.968 18.26,-9.08 7.36,-57.481 50.768,-88.344 94.45,-59.08 14.854,-4.919 37.499,9.926 42.96,44.76 -2.972,-0.829 -6.056,-5.883 -6.72,-8.19 0.49,1.76 1.42,3.45 2.44,4.95 5.747,8.061 10.12,1.48 7.399,-2.47 2.901,2.632 3.636,3.35 3.19,7.63 0.01,0.03 0.01,0.05 -0.01,0.08 5.651,6.941 11.34,25.178 -1.101,35.17 h -0.01 c -0.08,0.07 -0.17,0.14 -0.25,0.2 1.095,0.924 6.884,3.011 11.24,-3.19 -0.965,5.104 -5.571,8.12 -10.17,8.12 15.754,10.895 14.015,25.66 3.254,32.15 z"
                    filter="brightness(0.3)"
                    stroke-width="0"
                    opacity="1"/>
    </g>
</g>
</svg>
