<?xml version="1.0" encoding="UTF-8" standalone="no"?>
<?xml-stylesheet type="text/css" href="avatarpage_style.css" ?>
<svg
        id="4h"
        viewBox="0 0 204.8632 247.21555"
        width="204.8632"
        height="247.21555"
        preserveAspectRatio="xMinYMin"
        version="1.1"
        xml:space="preserve"
        xmlns="http://www.w3.org/2000/svg">
    <defs
            id="SvgjsDefs1136"/>
    <g
            id="hair4"
            class="color_hair"
            transform="translate(2.6622,8.122782)">

            <path
                id="SvgjsPath1514"
                d="M 49.325,111.57124 C 43.907,108.53104 40.183,105.1282 36.432,96.840817 35.923,95.587598 34.539,91.409879 34.539,90.440555 32.349,88.68566 29.931,83.498754 28.874,80.931066 25.872,70.920873 26.257,59.055644 28.367,53.379701 l -0.355,-0.172087 c -2.585,3.849102 -3.283,7.416254 -3.899,10.863821 -2.751,-8.814337 -1.237,-18.829391 5.766,-27.476502 -3.219,0.783626 -4.477,1.400999 -7.395,0.871128 5.609,-2.84186 22.364,-14.652644 26.957,-22.662937 -3.952,0.98488 -8.211,3.010058 -11.467,5.095515 4.119,-12.6099655 20.856,-23.0100272 34.419,-21.8647273 -2.447,-2.1136519 -4.562,-4.8125928 -6.305,-7.4191708 3.691,1.178356 10.025,3.5836802 16.204,5.059542 21.252,4.33133347 15.286,2.4160188 34.942,-4.4586971 -0.811,2.8311657 -0.804,2.9847798 -2.543,7.0030517 14.207,-5.4581608 27.89,0.2236154 32.18,7.9908485 h 0.009 c 0.062,0.1118077 0.122,0.2255599 0.182,0.3383398 -1.924,-0.6290399 -3.58,-0.7923763 -5.581,-0.9032118 3.554,5.951087 5.933,6.508181 17.512,9.860468 1.198,0.365562 3.149,0.84585 4.78,1.12391 -2.419,1.680033 -4.111,2.100041 -7.047,2.46852 4.662,1.928926 7.377,5.404688 9.431,9.979082 2.974,6.898049 3.489,12.445656 2.96,18.795362 -1.288,-1.919204 -3.025,-4.760092 -4.785,-7.097359 l -0.343,0.196393 c 4.382,9.198371 2.86,16.806157 19.494,27.850814 -1.435,0.31209 -3.059,0.475426 -4.729,0.475426 v 0 c -2.914,0 -5.43,-0.462787 -7.888,-1.259052 0.702,8.440024 0.171,12.566215 -0.7,16.197535 -2.029,7.429865 -6.055,12.744134 -13.631,14.533058 -4.42,5.615659 -8.943,7.943209 -12.081,8.467249 2.207,-3.54674 7.364,-13.230258 8.248,-17.045331 l -0.418,-0.722375 c -9.509,-2.284767 -16.209,-9.296569 -17.565,-19.329123 -1.947,2.842832 -3.769,4.964262 -9.482,9.225594 -0.465,-11.237161 -6.145,-25.675911 -13.25,-34.727475 -0.038,3.13645 0.066,3.37951 0.888,7.615564 h 0.007 c 1.052,4.968151 4.22,11.268273 5.277,14.309442 -3.106,-1.721838 -5.685,-2.878805 -9.079,-8.084183 -1.651,-2.52491 -3.648,-6.804715 -4.548,-9.741855 l -0.39,0.03208 c -0.232,1.857953 -0.205,3.026586 -0.191,3.653682 0,2.07379 2.814,12.517602 4.655,15.554883 -6.57,-3.217145 -9.514,-8.501275 -11.7,-13.73582 l -0.385,0.06125 c -0.212,3.217145 0.151,10.405895 1.586,15.866972 -5.281,-1.546835 -8.449,-3.784934 -11.229,-7.911124 -1.839,-3.350343 -1.922,-4.790232 -2.316,-8.089045 -5.93,7.656397 -15.644,14.085827 -22.28,16.099338 -0.031,0.0087 -0.094,0.02625 -0.169,0.04667 0.9,-1.731561 1.845,-3.430066 2.76,-5.077042 2.511,-4.516059 3.927,-7.129443 5.656,-11.315912 -16.04,10.776318 -19.196,27.288859 -15.051,45.572823 -2.798,-1.744201 -3.247,-2.096152 -5.58,-4.500504 0.542,3.555485 0.365,8.868781 -1.793,13.798051 l -0.033,0.0758 0.033,0.0758 c 1.204,2.75922 0.804,1.98532 1.22,2.627 z"
                stroke-width="0.986023"
                opacity="1"/>
            <path
                id="SvgjsPath1515"
                d="m 125.204,78.911721 c -0.578,-10.879376 -5.923,-24.591863 -12.679,-33.552036 14.042,3.724655 17.75,25.441602 12.679,33.552036 z M 106.011,38.49372 c -3.612,7.021524 -0.428,21.098601 12.146,28.069569 -5.632,-6.50332 -10.538,-13.031918 -12.146,-28.069569 z m 2.442,29.207091 C 101.261,59.88691 98.097,49.059062 98.106,39.27929 c -3.515,6.080395 -2.14,22.51224 10.499,28.698609 -0.049,-0.0807 -0.101,-0.18667 -0.152,-0.277088 z M 89,39.084842 C 84.634,45.99067 79.542,64.733531 98.106,70.170303 87.048,61.306382 87,51.63064 89,39.084842 Z M 62.11,70.316139 c 0.075,-0.02042 0.138,-0.03889 0.169,-0.04667 6.428,-1.949343 16.639,-9.302401 22.606,-16.639904 0.386,-2.453936 0.36,-4.354667 0.876,-6.765825 C 81.137,55.133624 67.663,66.563289 62.11,70.316139 Z M 52.691,89.784292 C 45.784,79.261728 51.501,59.228703 54,57.144218 49.975,59.552459 41.291,81.760387 52.691,89.784292 Z M 163.003,72.672851 c -0.902,14.782924 -9.329,25.03326 -18.371,34.527189 10.352,-1.92212 21.403,-18.313127 18.371,-34.527189 z M 124.746,15.758837 c 14.4,7.719593 18.058,11.57939 23.254,29.159451 0,-12.675106 -7.973,-30.152109 -23.254,-29.159451 z m -15.002,-2.924501 c -3.342,13.222477 2.781,22.361542 12.857,26.444954 -6.607,-6.042477 -13.156,-17.026856 -12.857,-26.444954 z M 35.291,58.221461 C 42.033,58.58994 52.027,54.945981 54,46.86277 49.325,52.899414 45.258,56.279896 35.291,58.221461 Z M 118.932,9.4314926 C 133.557,3.9548592 143.057,5.1030758 147.061,6.5478258 143.588,4.3807007 129.869,0.66674023 118.932,9.4314926 Z M 38.819,18.70181 C 48.945,12.662249 53.474,13.56935 59.072,13.251427 51.421,10.183035 45.744,12.229602 38.819,18.70181 Z m 99.604,-6.799853 c 10.748,6.016227 12.979,9.418098 25.349,4.727035 C 157,18.825285 148,16.543435 138.423,11.901957 Z M 86.739,9.388714 c 6.239,0.00292 10.235,2.267266 13.261,4.479114 -1.65,-2.907 -8.287,-6.8970773 -13.261,-4.479114 z m 57.067,39.728683 c -1.848,10.954239 5.017,15.635579 14.445,17.102691 -5.972,-1.760729 -12.597,-7.854735 -14.445,-17.102691 z M 60.555,45.99067 C 69.357,41.684614 80.916,31.657893 80.916,22.458549 76.744,30.44162 70.447,39.084842 60.555,45.99067 Z M 183.241,68.657496 C 171.046,69.718211 164.456,59.879132 157,51.723975 c 2.801,7.260695 8.217,11.979953 14.619,16.530041 2.223,0.653346 4.515,1.043214 7.134,1.043214 1.67,0 3.294,-0.163336 4.729,-0.475426 -0.084,-0.05542 -0.159,-0.108891 -0.241,-0.164308 z M 37.509,68.392074 C 33.889,80.068688 31.452,98.390569 49.325,111.57124 39.134,100.33602 35.743,82.126922 37.509,68.392074 Z M 84.497,14.474506 C 72.32,14.718539 62.5,15.751059 56.397,30.44162 69.522,18.286663 75.298,17.438869 84.497,14.474506 Z M 24.119,59.228703 c 1.73,-6.468319 6.276,-10.934794 13.078,-13.39262 -8.591,0.154587 -11.718,4.124247 -13.078,13.39262 z m 113.711,1.281413 c -6.883,10.657706 0.74,24.259357 14.349,28.579024 C 138.508,75.396098 138.111,71.792973 137.83,60.510116 Z m 31.055,-13.412064 c -2.825,-11.902174 -8.303,-18.479384 -16.606,-13.90499 8.591,-2.751442 10.483,6.086228 16.606,13.90499 z m -37.439,25.752719 c 10.059,-9.858524 6.667,-24.524779 -1.631,-30.758788 6.558,12.981362 4.979,20.04372 1.631,30.758788 z"
                filter="brightness(0.8)"
                stroke-width="0.986023"
                opacity="1"/>
            <path
                id="SvgjsPath1516"
                d="m 110.203,31.04927 c -7.752,-5.191766 -11.439,-9.366569 -17,-16.20434 5.304,4.669674 11.901,11.155493 17,16.20434 z m 13.666,-5.184961 c 12.675,2.69408 10.384,1.384472 18.667,9.073925 -5.952,-8.283493 -7.595,-8.535303 -18.667,-9.073925 z m 4,9.72241 c 7.079,3.209368 11.655,15.48391 13,22.685299 0.083,-8.555721 -4.482,-20.415116 -13,-22.685299 z m 12.334,26.574262 c -0.438,8.329189 3.08,11.603696 7.333,21.065546 -2.085,-8.870727 -6.134,-11.775783 -7.333,-21.065546 z m 18.666,7.130416 c -0.707,8.187241 0.23,14.220968 -3.666,20.740816 5.265,-6.061922 4.413,-12.873442 3.666,-20.740816 z m 9,-0.324729 c 2.15,5.806223 -0.532,16.93741 -3.666,22.037786 5.013,-5.71386 7.226,-15.936974 3.666,-22.037786 z m -15,-33.056193 c 11.648,1.973649 4.693,17.654924 19.334,26.574263 -12.787,-11.841895 -6.96,-26.754127 -19.334,-26.574263 z m -6.333,-13.935129 c 10.708,1.278496 15.663,5.240378 19.667,13.611373 -2.496,-9.904219 -9.627,-14.222913 -19.667,-13.611373 z m -31.333,21.065545 c 9.562,6.20873 13.174,17.119219 13.333,28.194988 2.284,-11.052436 -1.665,-23.662401 -13.333,-28.194988 z M 114.869,1.8820414 c 13.246,-1.42433298 13.697,-1.87739727 22.334,0.3237563 -6.088,-3.1131156 -10.744,-4.0338278 -22.334,-0.3237563 z M 74.536,-3.9514044 c 9.174,6.592766 29.321,12.2784312 37.667,-0.9722409 -8.907,9.7632438 -25.635,6.7492968 -37.667,0.9722409 z M 91.869,7.391731 c 5.054,-0.7291807 7.943,0.5279269 13.334,7.454172 C 102.484,8.9366219 98.11,5.1409932 91.869,7.391731 Z m -9.333,3.888964 C 74.02,10.321093 66.412,10.582626 62.869,19.382379 67.811,12.145017 72.223,12.261686 82.536,11.280695 Z M 47.869,10.956939 C 52.552,7.0232517 62.067,1.0925818 70.202,2.2067699 62.43,-0.58161717 52.913,4.5022308 47.869,10.956939 Z m -13,21.064572 c 8.239,-2.548243 16.719,-6.584988 20.667,-13.935129 -4.691,5.474689 -12.222,9.168232 -20.667,13.935129 z m 15,-0.647512 c -1.195,12.344544 -8.067,15.666691 -14,24.954509 9.767,-9.545462 15.31,-13.82235 14,-24.954509 z M 68.536,48.874336 C 56.244,50.10811 51.173,66.81121 51.869,78.69005 53.818,67.705672 57.941,52.269402 68.536,48.874336 Z m 6.667,-7.130415 c -1.015,7.434727 -1.94,11.157437 -5.333,20.41706 4.901,-7.566951 5.851,-13.410119 5.333,-20.41706 z m 21.333,-3.888964 c -2.42,8.019044 -4.131,16.334621 -0.667,23.982268 -1.513,-7.17611 -0.244,-12.610937 0.667,-23.982268 z M 87.869,18.086382 c -2.639,10.642149 -4.018,14.683755 -9,21.713057 6.776,-6.265121 8.68,-12.343571 9,-21.713057 z m 17.334,17.824093 c -4.181,6.328317 -4.464,11.807867 -2.667,19.121063 -0.156,-7.691398 -0.064,-12.135511 2.667,-19.121063 z m 5.666,2.592967 c -2.494,6.231092 -2.027,11.03299 0.667,16.20434 -1.448,-5.323991 -1.857,-8.625722 -0.667,-16.20434 z m -62,19.768576 c -5.414,5.820806 -4.846,14.247219 -4,22.037786 1.027,-9.124482 0.2,-15.689053 4,-22.037786 z m -8.666,7.130415 c -2.677,7.35792 -3.156,17.39728 1.333,24.306024 C 38.938,82.795824 39.361,72.272288 40.203,65.402433 Z M 32.869,49.846577 c -4.311,9.685465 -5.28,17.469226 -0.667,29.490986 -1.618,-10.43409 -2.057,-16.691433 0.667,-29.490986 z m -6.666,0 C 37.259,32.737081 44.045,38.277882 48.536,29.753273 41.92,37.222028 33,31.930121 26.203,49.846577 Z m 46,-27.871231 c 0.119,5.990948 -2.69,10.52548 -5,17.176581 3.319,-5.411494 6.455,-11.072853 5,-17.176581 z M 139.869,7.391731 c 2.816,5.782889 9.814,8.803642 16,8.750169 -4.906,-0.987797 -12.358,-4.098968 -16,-8.750169 z m 5.667,41.157877 c -0.258,5.244268 3.563,10.612982 8,13.287617 -2.889,-2.535604 -7.209,-8.513914 -8,-13.287617 z"
                filter="brightness(1.5)"
                stroke-width="0.986023"
                opacity="1"/>
            <path
                id="SvgjsPath1517"
                d="m 183.969,68.908334 c -6.263,-4.137858 -7.33,-5.316214 -10.979,-9.294624 0,0 -0.13,-0.145836 -0.36,-0.398619 -6.695,-9.112814 -4.181,-9.344208 -8.46,-18.326742 1.892,2.513243 3.736,5.578719 5.101,7.564035 0.21,-2.929362 1.227,-9.808939 -2.931,-19.454542 -1.825,-4.063967 -4.68,-8.0696 -8.859,-9.800189 4.107,-0.51626 5.81,-2.040734 6.81,-2.683385 -1.729,-0.259588 -3.954,-0.804043 -5.24,-1.195856 -11.193,-3.248257 -13.854,-3.845213 -17.21,-9.459905 2.593,0.1438917 4.093,0.4890372 5.62,1.0305754 -0.14,-0.2819499 -0.3,-0.5833446 -0.46,-0.8750168 h -0.01 c -1.685,-3.0470032 -5.694,-6.544154 -10.811,-8.4682189 -6.66,-2.1039294 -13.447,-2.6240784 -21.119,0.3208395 1.653,-3.8111846 1.639,-4.083412 2.47,-6.9612453 -20.085,6.9738845 -13.869,8.92419986 -35.19,4.579255 -6.461,-1.5429464 -13.197,-4.1417466 -16.72,-5.220934 1.142,1.7646173 3.804,5.4639942 6.19,7.5251451 -12.222,-1.0344644 -30.117,8.9310055 -34.19,22.575435 3.924,-2.596855 8.58,-4.55106 11.42,-5.259823 -4.303,7.499866 -21.63,19.864827 -27.16,22.439321 3.367,0.734042 4.777,0.035 7.48,-0.622234 -5.514,6.805687 -8.194,15.863084 -5.92,25.424101 0,0.0097 0,0.0097 0,0.0097 0.251,1.036409 0.398,1.538085 0.73,2.537549 0.655,-3.657571 1.25,-7.469728 4.01,-11.57939 -1.983,5.333714 -2.645,17.175609 0.51,27.689422 1.14,2.769915 3.531,7.808068 5.65,9.527962 0,0.386952 0.873,3.833546 1.91,6.387623 3.745,8.271827 7.459,11.829257 13.64,15.186407 -1.071,-1.79087 -0.152,0.0836 -1.6,-3.23756 1.533,-3.50201 2.02,-6.4654 2.02,-9.965475 0.024,-1.034465 -0.082,-3.074226 -0.12,-3.325064 2.12,2.186569 2.849,2.628939 5.59,4.336194 -6.552,-28.097764 6.73,-40.367445 14.314,-45.46296 -2.402,5.822752 -5.563,10.720902 -8.364,16.16934 0.16,-0.03986 0.52,-0.140975 0.6,-0.165281 0,0 0,0 0.01,0 7.426,-2.25171 17.112,-9.370459 22.08,-15.779471 0.347,2.903112 0.478,4.389668 2.29,7.690426 2.991,4.437308 6.373,6.588877 11.68,8.089045 -1.555,-5.662331 -1.87,-13.106781 -1.67,-16.1392 2.399,5.744972 5.43,10.786041 12.06,13.941935 h 0.01 c 0.14,0.06806 0.29,0.136114 0.42,0.204171 -1.721,-1.685866 -5.06,-13.676514 -5.06,-16.041976 -0.016,-0.68543 -0.036,-1.818091 0.189,-3.626459 0.945,3.08881 2.972,7.345281 4.57,9.790467 3.576,5.482467 6.229,6.500403 9.6,8.400162 -1.11,-3.443678 -3.387,-7.354031 -5.149,-13.621096 -0.221,-0.777793 -0.311,-1.302803 -0.32,-1.302803 -0.69,-3.571041 -0.889,-4.270083 -0.86,-6.854299 6.238,7.944181 12.493,22.531684 12.87,34.543722 3.443,-2.558939 6.896,-5.214129 9.54,-9.071009 1.357,9.997554 8.577,16.780879 17.561,18.958699 0.109,0.194448 0.229,0.388897 0.34,0.583345 -0.824,3.585624 -6.054,13.553037 -8.43,17.267007 3.147,-0.35001 7.957,-2.67853 12.59,-8.546006 7.616,-1.794757 11.667,-7.179999 13.71,-14.661394 0.768,-3.199645 1.446,-7.441532 0.729,-15.964196 4.59,1.488501 9.511,1.419472 12.878,0.593067 z M 50.089,94.342158 c -0.188,-2.213793 -0.54,-4.480087 -1.04,-6.708463 0.877,0.972241 1.603,1.746145 3.63,3.305619 0.161,2.179764 0.458,4.489809 0.96,6.77652 -1,-0.847794 -2.626,-2.010595 -3.55,-3.373676 z m 100.37,-12.882193 c 1.277,2.042678 2.995,3.603125 2.311,7.398753 -0.479,-0.972241 -1.522,-3.879241 -2.311,-7.398753 z M 170.52,68.081929 c -0.455,12.081066 -1.084,25.707023 -13.381,30.226972 7.956,-10.86771 5.978,-15.696831 6.301,-22.128205 -0.814,4.449947 -0.103,1.292108 -0.99,8.176547 -1.297,6.45568 -8.454,18.984947 -16.7,22.176817 0.611,-0.83418 1.893,-2.85644 2.71,-4.11161 4.354,-6.874714 5.899,-11.018405 6.04,-15.760024 -0.02,-0.330562 -0.06,-0.52501 -0.06,-0.52501 -0.336,-2.593939 -2.538,-5.209267 -4.44,-7.058469 -0.239,-1.453501 -1.114,-7.492089 -1.52,-13.883601 -0.269,3.597291 -0.338,8.720029 0.199,12.639132 l 0.011,0.0097 c 0.862,5.725527 2.244,9.924635 3.029,10.966878 -1.551,-0.605706 -1.77,-0.759321 -2.77,-1.283358 -8.722,-4.686202 -11.62,-9.597963 -13.46,-18.35591 1.596,-2.648384 1.738,-4.254526 2.22,-6.300121 0,-0.0097 0,-0.0097 0,-0.01944 0.514,-1.523502 -0.56,-9.324763 -0.56,-10.315477 0,-0.116669 0.02,-0.194448 0.029,-0.213893 -0.085,0.08458 -0.096,0.785571 -0.1,0.904184 -0.229,6.98069 0.566,9.211983 -2.78,15.565578 -0.279,0.437509 -0.52,0.933351 -0.85,1.380582 -2.167,2.708664 -2.007,2.744637 -7.78,8.011266 0.679,-10.934794 -5.389,-26.239812 -13.479,-33.785374 0.11,-3.636181 -0.079,-4.832037 -0.681,-5.804278 0.706,1.684893 0.238,3.645903 0,5.794556 -0.573,4.591894 0.177,11.342163 5.37,21.010127 -6.189,-4.638562 -10.123,-12.363988 -12.12,-19.483709 0.563,-3.42326 0.906,-4.496614 1.38,-8.439051 -1.36,5.798445 -3.1,9.049618 -3.1,14.97251 0.134,3.339648 2.431,10.734513 4.84,14.612782 -4.119,-2.875889 -8.768,-8.826003 -10.95,-16.42115 0.597,-7.715704 1.488,-12.032454 2.14,-16.148922 -3.518,11.094241 -3.571,15.272933 -3.85,20.242057 -0.02,1.244468 0.01,2.498659 0.01,3.43201 0.01,0.466676 0.01,0.855572 0.02,1.137522 0.03,0.272228 0.04,0.427786 0.04,0.427786 0.545,5.290936 1.496,8.44683 2.04,9.7613 -4.951,-2.115597 -9.931,-6.744436 -11.1,-12.512742 -1.616,-7.320974 2.373,-17.130886 2.68,-18.103126 -0.853,1.658643 -4.395,7.74001 -4.51,14.554447 -2.026,2.194348 -4.629,4.618144 -5.63,5.483439 -5.605,4.941901 -10.98,8.463358 -15.96,10.879376 0.13,-0.194448 0.27,-0.408341 0.41,-0.622234 l -0.01,0.02917 c 6.144,-8.792947 9.965,-16.211146 10.18,-26.785238 -0.58,4.120357 -1.601,7.680703 -2.866,10.943544 -10.46,5.32788 -18.753,18.054515 -17.924,36.20042 -0.15,-0.165281 -0.31,-0.320839 -0.47,-0.48612 -7.064,-6.766797 -4.696,-13.898185 -2.67,-21.8657 2.321,-8.976701 3.71,-9.246011 4.71,-10.218252 -3.46,2.011566 -5.596,8.574193 -6.82,12.493296 -2.729,8.548915 -1.479,13.146643 0.28,16.187812 1.366,8.909617 2.228,14.305554 0.21,22.157365 -1.216,-2.65908 -2.888,-9.511426 -3.12,-12.969688 -0.673,-5.800389 -0.763,-7.74001 -1.25,-14.836397 -0.494,7.199445 -1.295,19.484682 3.62,29.040835 -10.349,-9.582404 -14.864,-24.260326 -9.27,-41.670245 -3.354,7.082776 -4.874,13.483038 -3.84,21.155964 -6.401,-10.85021 -7.021,-26.231062 -4.14,-37.411833 2.612,-3.061587 5.684,-4.441197 7.68,-5.415382 -6.141,2.175875 -7.106,3.309508 -9.64,6.018172 -1.762,2.392685 -2.938,4.574393 -3.84,7.894596 -0.536,-7.942236 1.545,-15.711414 7.4,-23.304616 5.653,-1.466139 10.804,-4.54231 15.4,-7.894596 -6.775,3.632292 -10.945,5.689554 -17.88,7.593201 -0.886,0.254728 -3.403,0.974186 -4.34,1.08891 7.457,-3.758683 21.268,-13.357618 25.05,-22.176816 3.97,-1.153078 6.349,-1.295997 9.04,-1.61392 -7.141,0 -12.19,0.589178 -19.89,5.376492 4.617,-8.8085027 19.642,-20.1642772 33.96,-20.1642772 2.847,2.15156921 6.718,3.522429 10.19,5.4445494 -2.169,-1.8015625 -7.413,-4.51119812 -9.28,-5.9403923 0,-0.00972 0,-0.00972 -0.01,0 -1.191,-0.923629 -1.73,-0.9547407 -5.89,-6.0959509 9.406,4.3488338 12.744,5.1625995 16.57,6.027894 18.733,4.143691 17.219,0.9702965 31.89,-5.6584424 -0.354,0.9839078 -2.504,6.77943622 -3.28,7.51542264 -2.076,3.56715216 -4.594,6.37012286 -8.51,8.27377066 4.48,-1.4437779 7.663,-4.5918941 9.87,-8.75989115 0.65,-0.31597831 4.727,-1.32710895 6.37,-1.49725105 8.218,-0.8614055 11.799,-0.1400027 17.64,2.43060238 1,0.53959374 4.702,2.37129572 7.261,5.25982362 -6.718,-2.0426783 -17.275,0.6757075 -23.921,2.8389436 1.711,-0.3169505 10.455,-2.0961515 15.62,-2.469492 1.891,-0.1555586 3.761,-0.077779 3.761,-0.087502 0.09,0 0.18,0.00972 0.27,0.00972 2.622,5.2996857 4.2,7.2101387 17.53,10.3640887 1.372,0.309172 2.838,0.480287 3.83,0.602789 -2.315,0.997519 -3.594,1.242524 -6.32,1.468084 -10.533,0.20806 -12.152,-4.667729 -18.6,-6.572349 6.802,2.946862 6.574,7.58348 18.97,7.58348 3.643,1.317386 6.84,6.607349 8.439,10.198807 2.288,5.332742 3.317,11.260495 3.57,17.033662 -1.612,-2.862277 -7.708,-12.037315 -11.07,-13.19331 -0.761,-0.288755 -1.4,-0.295561 -2.14,-0.223615 2.067,0 3.499,1.207523 4.71,2.848666 h 0.01 c 2.547,3.607986 3.938,8.848365 5.25,13.222477 0,0 0.061,0.194448 0.16,0.52501 2.532,8.569332 8.096,14.664311 15.771,18.793418 -16.134,0.69418 -17.671,-9.263512 -25.601,-17.811455 4.574,6.098868 6.914,14.206385 14.682,17.411864 z m -13.291,-3.159783 c -2.577,-6.062895 -1.016,-3.685766 -4.221,-9.868246 3.521,4.29925 3.78,7.632092 5.73,11.443276 -7.248,-1.882258 -14.8,-9.104064 -15,-17.091996 -0.04,-0.758348 -0.061,-1.225024 -0.061,-1.225024 1.422,8.274743 6.287,13.235117 13.552,16.74199 z m -8.68,-16.400733 c -1.18,-3.491317 -8.053,-17.095885 -14.279,-19.065645 -1.982,-0.829322 -4.928,-1.325165 -7.24,-1.856981 8.267,0.701958 12.23,0.484176 18.76,12.503019 0.59,1.108355 1.18,2.362546 1.75,3.655626 -1.69,-13.200115 -6.567,-19.719963 -12.76,-24.383803 -4.292,-2.785471 -7.618,-3.138394 -10.29,-3.577847 2.949,0.07875 6.466,0.0807 11,2.518104 4.633,2.88075 7.719,5.876224 10.82,13.484982 0.22,0.505566 0.369,0.943074 0.46,1.254191 0.1,0.301395 0.159,0.476398 0.159,0.476398 1.694,5.273435 1.789,9.418098 1.62,14.991956 z m -27.85,-10.297004 c -6.086,-6.076506 -11.09,-13.996381 -10.61,-22.429599 0.697,8.972812 7.345,17.562561 13.82,24.315746 -12.517,-1.619753 -21.022,-9.783661 -28.2,-19.357317 10.698,11.469526 17.767,15.006539 24.99,17.47117 z M 87.299,8.823842 c -0.01,0.00972 -0.01,0.019445 -0.02,0.029167 3.177,-1.2133567 9.33,-0.1186134 12.08,4.200081 -2.801,-3.4485388 -8.862,-4.9973186 -12.62,-3.6653485 1.205,-3.8082679 6.946,-4.8427322 10.93,-4.2973051 -2.532,0 -6.33,0.5891781 -8.54,1.9736492 -1.022,0.6183453 -1.22,1.0014082 -1.83,1.7597564 z m -28.39,38.578522 c 5.625,-8.196964 4.559,-3.929798 8.75,-15.264184 0.465,-1.304747 1.924,-5.405659 2.9,-7.534867 -0.02,0.09722 -0.14,0.515288 -0.32,1.156967 -3.206,12.466073 -4.09,14.414444 -8.8,19.755936 8.872,-5.172322 14.373,-9.95672 19,-18.997588 -3.091,10.098667 -11.86,17.192137 -21.53,20.883736 z m -3.19,-16.294759 c 0,0 0,0 0,-0.0097 0,-12.55552 7.494,-25.7974423 19.37,-24.3546367 -13.802,0 -18.42,19.0549507 -18.42,23.2365587 6.221,-7.250973 17.108,-13.568595 28.27,-15.546133 -9.501,2.847694 -21.763,9.585324 -29.23,17.383669 0.01,-0.233338 0.01,-0.476398 0.01,-0.709736 z m -19.68,26.989409 c 6.452,0.201254 12.076,-2.82436 16.42,-7.398754 -3.988,6.098868 -12.402,9.613519 -18.82,7.54459 9.583,-3.112143 16.521,-11.789394 18.58,-21.583749 -0.775,9.406431 -5.943,16.605876 -14.12,20.650398 -1.754,0.78946 -1.06,0.370424 -2.06,0.787515 z"
                filter="brightness(0.3)"
                stroke-width="0"
                opacity="1"/>
        </g>
</svg>
