<?xml version="1.0" encoding="UTF-8" standalone="no"?>
<?xml-stylesheet type="text/css" href="avatarpage_style.css" ?>
<svg
        id="5h"
        viewBox="0 0 204.8632 247.21555"
        width="204.8632"
        height="247.21555"
        preserveAspectRatio="xMinYMin"
        version="1.1"
        xml:space="preserve"
        xmlns="http://www.w3.org/2000/svg">
    <defs
            id="SvgjsDefs1136"/>
    <g
            id="hair5"
            class="black_hair"
            transform="translate(2.6622,8.122782)">
        <path
                id="SvgjsPath1455"
                d="m 137.933,141.731 c 16.512,-55.946 -2.844,-86.784 -5.085,-96.474 -0.461,-1.994 -2.839,-7.675 -2.839,-7.675 -8.857,-4.884 -13.91,-5.96 -24.344,-5.96 -7.02,0 -10.784,0.161 -17.606,2.384 -7.164,7.132 -27.936,32.674 -36.394,51.778 4.185,15.866 6.826,68.128 4.833,72.716 -15.408,0.498 -9.962,-129.099 -9.962,-129.099 5.36,0 103.2,-4.161 108.719,-4.161 0,0.001 5.888,114.61 -17.322,116.491 z"
                stroke-width="none"
                opacity="0.1"/>
        <path
                id="SvgjsPath1456"
                d="m 129.421,235.813 c 7.562,-15.873 5.54,-26.495 3.584,-36.774 -1.463,-7.688 -2.978,-15.637 -0.401,-25.709 -0.845,-13.438 2.629,-24.662 6.307,-36.547 7.017,-22.68 14.97,-48.384 -6.036,-96.463 l -0.026,-0.062 -0.061,-0.033 C 123.931,35.341 113.733,32.76 103.3,32.76 c -7.02,0 -14.039,1.127 -20.861,3.351 -7.164,7.132 -24.063,29.375 -32.521,48.479 0.245,3.976 0.862,8.197 1.927,13.381 4.34,21.321 4.5,38.71 4.654,55.53 0.23,25.185 0.45,48.987 15.491,81.027 -1.855,-1.622 -3.654,-3.18 -5.397,-4.688 -18.63,-16.117 -30.938,-26.765 -34.354,-51.049 l -0.398,0.021 c 0,0 -0.33,9.248 -0.47,13.14 C 21.141,141.693 19.924,101.158 25.877,60.5 30.869,26.402 62.752,-6.334 88.302,-6.334 c 5.36,0 10.53,0.952 15.365,2.83 l 0.073,0.028 0.072,-0.029 c 6.084,-2.401 11.969,-3.619 17.488,-3.619 16.125,0 29.904,7.554 39.849,27.521 11.614,23.322 17.796,59.631 16.534,97.126 -1.229,36.535 -9.174,68.096 -21.295,84.732 0.656,-3.462 0.867,-5.002 1.26,-8.908 l -0.388,-0.089 c -7.468,20.085 -17.243,30.866 -26.698,41.292 -0.38,0.424 -0.762,0.844 -1.141,1.263 z"
                stroke-width="none"
                opacity="1"/>
        <path
                id="SvgjsPath1457"
                d="m 50.023,86.038 c 0.295,3.558 0.885,7.374 1.822,11.934 4.341,21.321 4.5,38.712 4.654,55.53 0.231,25.185 0.45,48.987 15.491,81.027 -1.855,-1.623 -3.654,-3.18 -5.397,-4.688 -9.569,-8.279 -17.466,-15.118 -23.351,-23.1 -9.281,-17.978 -12.373,-31.131 -12.373,-60.673 4.5,24.167 5.667,36.329 23.74,60.667 C 36.699,171.857 29.855,120.033 50.023,86.038 Z m 125.479,35.804 C 173.57,134.101 170.613,161.006 166,173 c 2.684,-17.925 2.144,-23.32 2,-41 -4,23 -9.352,50.397 -20,68 3.834,-15.765 7.255,-28.928 7.255,-48.595 -5.053,18.667 -13.773,21.669 -15.255,35.595 3.888,-36.515 20.87,-75.267 3.842,-113.642 5.986,28.08 0.275,46.59 -4.933,63.424 -3.679,11.885 -7.15,23.11 -6.308,36.547 -2.574,10.071 -1.061,18.021 0.402,25.709 1.956,10.28 3.979,20.901 -3.584,36.773 0.379,-0.419 0.76,-0.839 1.143,-1.261 9.455,-10.426 19.23,-21.207 26.698,-41.292 l 0.388,0.089 c -0.393,3.906 -0.604,5.446 -1.26,8.908 11.641,-15.977 17.426,-45.72 19.114,-80.413 z M 37.27,72.427 c -2.445,5.423 -6.514,62.265 -3.284,74.552 0.046,0.17 -0.056,-0.172 -0.268,-0.912 -4.901,-15.835 0.726,-68.465 3.552,-73.64 z m -8.275,77.231 c 0.151,1.726 0.322,2.77 0.297,2.562 -0.132,-0.51 -1.95,-44.056 -1.492,-44.315 0.1,-0.021 0.069,0.018 0.102,0.025 -1.07,0.285 -0.127,28.786 1.093,41.728 z m 132.818,-16.343 c -1.464,16.704 -5.294,35.469 -2.028,18.988 5.737,-27.943 7.126,-52.795 0.201,-80.288 2.879,13.749 4.79,24.585 1.827,61.3 z"
                filter="brightness(0.8)"
                stroke-width="none"
                opacity="1"/>
        <path
                id="SvgjsPath1458"
                d="m 127,29 c 16.888,6.402 32,75 26,115 10.155,-44 7.566,-81.265 -11,-119 16.968,27.907 24.125,38.909 26.371,82.435 3.32,-19.596 2.846,-43.368 -0.37,-69.895 -2.007,-6.258 -4.298,-12.015 -6.852,-17.143 -9.943,-19.967 -23.722,-27.521 -39.847,-27.521 -5.521,0 -11.403,1.218 -17.489,3.619 l -0.071,0.029 -0.073,-0.028 C 98.834,-5.382 93.664,-6.334 88.304,-6.334 75.72,-6.334 61.2,1.94 49.302,14.243 32.418,39.738 27.122,71.139 28,101 29,77 41,53 56,35 45,61 37,88 36,116 42,77 71.469,27.735 94,20 c 6.9,-2.369 15.467,-1.286 17.615,6.42 1.188,1.846 1.794,4.125 1.385,6.58 1.407,-1.126 2.791,-1.964 4.165,-2.536 3.339,-2.641 6.943,-2.56 9.835,-1.464 z"
                filter="brightness(1.5)"
                stroke-width="none"
                opacity="1"/>
        <path
                id="SvgjsPath1459"
                d="m 113,33 c 1,-6 -5,-11.6 -10,-11.6 -8.118,0 -16.148,7.781 -21.182,15.339 0.212,-0.22 0.42,-0.433 0.619,-0.63 6.822,-2.224 13.841,-3.351 20.861,-3.351 10.435,0 20.63,2.582 29.488,7.465 l 0.06,0.033 0.027,0.062 c 0.054,0.123 0.102,0.24 0.152,0.362 -0.271,-3.492 -4.157,-7.681 -6.063,-9.05 -4.998,-3 -9.081,-3.222 -13.962,1.37 z"
                filter="brightness(0.3)"
                stroke-width="none"
                opacity="1"/>
        <path
                id="SvgjsPath1460"
                d="m 123.605,15.551 c 14.693,2.885 21.418,18.935 25.36,33.284 0.721,2.709 -6.705,-28.88 -25.36,-33.284 z M 167.8,60.71 C 165.179,39.1 156.251,17.059 137.312,6.332 163.85,22.934 168.197,63.544 167.8,60.71 Z M 91.438,18.545 C 93.356,18.119 79.053,19.766 68.06,33.581 60.896,42.291 54.502,55.567 51.922,60.741 59.841,44.582 73.947,22.662 91.438,18.545 Z M 75.803,6.583 C 59.858,11.72 49.913,23.31 44.498,37.629 55.194,12.346 80.312,5.185 75.803,6.583 Z M 111.399,5.315 C 107.242,-3.4 99.008,-7.734 86.591,-6.171 c 12.168,-0.83 20.242,4.56 23.477,11.712 -6.828,-7.43 -19.214,1.181 -18.223,0.847 0.978,-0.692 13.933,-4.741 18.745,0.193 2.196,4.651 3.396,10.396 3.765,16.96 0.41,8.729 0.354,-4.552 -0.186,-8.375 -0.458,-3.457 -1.292,-6.551 -2.495,-9.251 4.005,-5.099 11.348,-5.508 17.675,-2.897 l 0.041,-0.091 c -6.237,-3.149 -15.333,-3.206 -17.991,2.388 z"
                stroke-width="none"
                opacity="1"/>
        <path
                id="SvgjsPath1461"
                d="m 114.04,32.379 c 5.321,-4.434 12.993,-3.73 18.039,6.7 l 0.61,1.32 c 31.857,72.917 -2.776,93.617 -0.28,132.88 -6.107,23.896 10.536,35.066 -3.79,63.72 9.811,-10.893 20.781,-22.021 28.83,-43.67 -0.429,4.271 -0.652,5.762 -1.42,9.75 38.854,-51.466 30.84,-240.344 -52.29,-206.77 -26.87,-12.574 -69.464,14.093 -78.06,64.16 -7.504,43.708 -3.863,86.184 5.83,133.16 0.025,-0.661 0.53,-14.811 0.53,-14.811 3.785,26.906 18.251,36.949 40.54,56.49 -25.454,-53.516 -9.508,-83.19 -20.54,-137.379 -0.9,-4.38 -1.64,-8.8 -1.94,-13.26 8.343,-18.843 25.079,-41.048 32.4,-48.37 l 1.21,-1.21 c 0.099,-0.095 5.39,-5.147 5.63,-5.37 8.201,-3.25 17.274,-4.018 22.341,3.593 -3.037,-7.992 -13.058,-8.04 -20.73,-5.043 8.445,-7.445 18.682,-10.292 22.191,4.081 0.103,0.419 0.082,1.196 0.082,1.196 0,0 0.442,-0.854 0.817,-1.167 z m 61.037,85.682 c -0.38,12.364 -2.541,54.771 -17.658,82.27 1.066,-4.51 1.76,-8.328 2.021,-12.801 4.745,-14.82 5.854,-26.1 6.028,-27.1 -5.55,27.37 -15.529,51.351 -34.619,73.569 13.535,-29.831 -2.641,-35.97 1.67,-59.33 0.967,11.022 4.291,21.701 7.739,32.05 0.49,-9.871 2.533,-21.996 7.271,-30.71 -1.799,2.479 -7.063,14.054 -7.93,26.21 -14.464,-50.55 5.344,-49.98 8.17,-108.66 2.604,21.148 -0.119,28.44 -0.119,28.44 5.72,-19.17 0.543,-32.426 -0.826,-43.12 C 145.131,65.663 136.469,44.702 135.17,41.889 130.305,31.72 122.973,25.386 114.04,31.499 105.666,7.341 84.746,30.936 78.581,37.709 c -8.888,9.765 -22.52,28.087 -29.211,44.29 0,0.01 -0.01,0.02 -0.01,0.03 -4.833,11.717 -6.102,20.844 -7.32,28.84 2.306,-11.387 4.596,-18.222 7.43,-24.77 0.18,3.31 0.57,6.61 1.08,9.87 8.997,57.645 -6.818,82.899 20.06,136.78 -34.449,-32.043 -38.365,-41.664 -39.7,-80.58 -0.238,24.988 0.937,10.513 -0.14,30.7 -5.768,-39.082 -10.682,-67.553 -2.5,-118.52 9.267,-57.727 52.276,-77.212 75.43,-67.42 30.296,-12.349 48.97,5.949 61.2,35.04 2.775,6.604 10.469,37.291 5.6,62.41 0,0 2.195,-6.328 3.66,-18.7 1.405,13.628 1.345,28.448 0.917,42.382 z"
                filter="brightness(0.3)"
                stroke-width="none"
                opacity="1"/>
        <path
                filter="brightness(0.3)"
                d="m 55.975575,136.65335 c 0.201895,0.54498 5.212566,7.96316 8.238631,11.46154 2.922858,3.37906 9.543081,9.27427 9.543081,9.27427 l 0.569838,8.25478 c 0,0 0.04164,4.4133 -1.091619,6.16638 -1.949991,3.01651 -9.069359,6.28525 -9.069359,6.28525 l -0.865056,-1.43346 -6.371208,2.54564 c 0,0 -1.559745,-44.18868 -0.954308,-42.5544 z"
                id="path1545"
                transform="translate(0,-2)"/>
        <path
                filter="brightness(0.3)"
                d="m 128.3356,163.70436 -0.33982,9.05262 c 0,0 -0.15952,4.01641 1.07882,5.49366 1.73074,2.06464 5.78566,4.43275 5.78566,4.43275 l 0.67966,-12.95851 c 0,0 4.58742,-17.46421 3.9614,-16.77704 -2.72508,2.99123 -11.16572,10.75652 -11.16572,10.75652 z"
                id="path1562"
                transform="translate(-2.5,-8)"/>
    </g>
</svg>