<?xml version="1.0" encoding="UTF-8" standalone="no"?>
<?xml-stylesheet type="text/css" href="avatarpage_style.css" ?>
<svg
        id="6h"
        viewBox="0 0 204.8632 247.21555"
        width="204.8632"
        height="247.21555"
        preserveAspectRatio="xMinYMin"
        version="1.1"
        xml:space="preserve"
        xmlns="http://www.w3.org/2000/svg">
    <defs
            id="SvgjsDefs1136"/>
    <g
            id="hair6"
            class="black_hair"
            transform="translate(2.051502,8.1588421)">
        <path
                filter="brightness(0.5)"
                d="m 128.71419,163.50181 c 0,0 5.70187,-4.92209 8.3444,-7.82722 2.51052,-2.76001 7.07395,-9.03077 7.07395,-9.03077 0,0 -1.98726,15.33773 -2.17423,17.33993 -0.60736,6.50391 -1.45827,18.99057 -1.45827,18.99057 l -1.58564,-0.6973 -0.90153,2.07871 c 0,0 -7.0202,-3.76056 -9.20316,-6.11968 -1.47962,-1.59902 -0.0955,-14.73424 -0.0955,-14.73424 z"
                id="path1202"
                transform="translate(-2.051502,-8.2239969)"/>
        <path
                filter="brightness(0.5)"
                d="m 61.095755,146.97769 c 0,0 4.40378,6.09397 7.174947,9.07739 2.346774,2.52653 8.370771,7.77286 8.370771,7.77286 0,0 0.849601,4.77291 0.597912,7.82722 -0.138329,1.67865 -0.0097,4.46576 -1.25018,6.35961 -1.002262,1.53013 -5.326855,4.07667 -5.326855,4.07667 l -3.587473,2.446 -1.087112,-1.57631 -1.141469,-13.64327 -1.521959,-11.19726 z"
                id="path1200"
                transform="translate(-2.051502,-8.2239969)"/>
        <path
                id="SvgjsPath1502"
                d="m 38.854,237.82 9.88,-202.719 105.496,1.162 1.025,203.314 c 0,0 -105.203,-0.463 -116.401,-1.757 z m 98.252,-2.541 c -4.241,-47.633 1.152,-84.777 5.499,-114.713 2.44,-16.806 4.572,-31.486 4.458,-44.428 -2.542,1.415 -21.941,1.903 -21.941,1.903 C 110.609,80.379 99.789,78.428 99.34,78.479 97.358,66.144 97.043,64.223 96.614,61.431 95.281,72.666 96.259,75.101 95.244,76.68 92.371,77.393 72.44,76.513 71.438,76.443 65.96,78.478 62.403,74.249 59.011,75.202 c -1.982,1.505 -5.386,1.669 -6.386,1.42 -1.023,20.123 2.42,35.283 6.058,51.303 9,39.633 8.399,50.872 5.508,104.881 10e-4,0 62.261,2.128 72.915,2.473 z"
                stroke-width="none"
                opacity="0.1"/>
        <path
                id="SvgjsPath1503"
                d="M 177.393,209.541 C 162.286,149.197 180.945,101.47 168.214,58.515 162.151,38.088 149.818,11.551 125.49,1.129 119.007,-1.658 112.889,-2.078 106.03,-1.127 102.159,-2.304 97.966,-2.9 93.568,-2.9 c -30.232,0 -49.746,25.833 -59.244,54.789 -5.943,18.135 -7.341,33.902 -5.755,64.884 3.633,70.935 -3.103,88.369 -14.274,117.075 17.224,0.024 36.536,4.694 63.515,4.779 22.28,0.08 102.989,0.006 109.574,-0.733 -6.407,-14.509 -7.435,-18.125 -9.991,-28.353 z m -38.087,27.813 c -44.235,-1.525 -58.379,0.504 -77.335,-0.458 3.085,-57.769 3.929,-68.17 -5.236,-108.528 -3.815,-16.8 -7.374,-32.516 -5.986,-53.916 1.84,-0.071 3.204,0.365 4.861,1.224 v 0.005 c 0.079,0.043 0.154,0.086 0.23,0.131 0.05,-0.268 0.105,-0.577 0.162,-0.836 l 0.118,-0.089 -0.098,-0.02 c 0.638,-3.158 1.735,-6.719 3.175,-10.297 l 0.191,0.054 c -0.49,2.876 -0.772,5.765 -0.838,8.586 l -0.03,0.053 c 3.296,-0.917 7.163,1.845 10.161,1.845 0.87,-0.06 1.588,-0.369 2.394,-0.662 1.102,-15.937 2.326,-22.387 4.625,-27.361 l 0.188,0.063 c -1.329,6.207 -1.753,14.946 -1.297,26.715 l -0.012,0.016 c 2.685,-0.26 5.862,0.912 8.171,0.815 0,-3.915 0.676,-9.192 0.94,-12.385 l 0.199,0.002 c 0.403,6.263 1.163,10.374 1.782,13.256 5.281,-1.185 5.041,-0.413 7.762,-0.57 0.189,-0.009 0.377,-0.028 0.556,-0.064 l 0.03,-0.046 -0.1,0.008 c -0.677,-8.054 2.333,-25.156 3.102,-29.187 l 0.198,0.019 c -0.008,7.96 0.718,11.325 3.793,30.548 1.722,-0.197 4.705,0.844 6.717,1.081 0,-3.986 -0.013,-3.709 0.01,-5.85 h 0.199 c 0.033,2.019 0.142,3.989 0.735,5.933 3.159,0.066 5.395,-1.403 8.343,-1.122 0.369,-16.421 -1.055,-25.078 -1.897,-32.829 l 0.196,-0.037 c 4.08,15.22 5.452,31.663 5.565,33.095 0.38,-0.028 1.758,-0.133 2.461,-0.246 0.431,-3.141 2.143,-21.364 1.309,-26.247 l 0.194,-0.046 c 2.643,8.591 2.331,15.253 2.524,25.565 2.552,-0.785 6.706,0.343 9.615,0.015 -0.4,-7.699 -0.557,-14.668 -2.451,-21.243 l 0.189,-0.063 c 2.292,5.971 4.105,13.197 4.986,20.951 l 0.045,-0.025 c 6.444,0.5 5.332,-0.919 9.239,-2.14 1.388,36.867 -17.048,86.646 -9.685,164.287 z"
                stroke-width="none"
                opacity="1"/>
        <path
                id="SvgjsPath1504"
                d="m 180.326,238.184 c -13.273,0.212 -38.624,-0.278 -41.021,-0.829 -2.923,-30.82 -1.775,-57.236 0.579,-80.211 3.563,-34.778 9.895,-61.65 9.112,-83.836 0.153,-1.482 2.837,-0.396 3.497,-1.095 -4.5,-29.25 -14.214,-47.686 -29.494,-59.91 64.384,45.135 14.583,132.535 23.191,167.176 1.473,-18.377 13.012,-69.387 15.809,-79.376 -5,36 -17,78 3,112 -2.631,-14.907 -2.954,-30.583 -2.994,-45.681 0.771,25.114 10.241,48.194 18.321,71.762 z M 58.674,65.947 c 0.174,-0.459 0.336,-0.917 0.522,-1.377 l 0.191,0.054 c -0.49,2.876 -0.772,5.765 -0.838,8.586 l -0.03,0.053 c 0.829,-0.23 1.694,-0.228 2.572,-0.096 C 61.551,60.655 63.933,47.818 71,38.102 62.39,45.146 60.52,55.867 58.674,65.947 Z M 101,31.102 c -4.32,7.921 -5.012,16.878 -5.807,25.753 0.705,-4.999 1.486,-9.358 1.828,-11.146 l 0.198,0.019 c -0.008,7.96 0.718,11.325 3.793,30.548 0.581,-0.066 1.31,0.014 2.092,0.15 C 99.585,61.645 97.306,46.8 101,31.102 Z m 6.107,46.153 c 0.21,0.036 0.428,0.078 0.622,0.101 0,-3.986 -0.013,-3.709 0.01,-5.85 h 0.199 c 0.033,2.019 0.142,3.989 0.735,5.933 0.322,0.007 0.628,-0.012 0.933,-0.033 C 109.008,70.885 109,64.846 109,58.102 c -1.919,6.715 -1.081,12.512 -1.893,19.153 z m 9.565,-0.95 c 0.116,0.006 0.227,0 0.345,0.012 0.369,-16.421 -1.055,-25.078 -1.897,-32.829 l 0.196,-0.037 c 4.08,15.22 5.452,31.663 5.565,33.095 0.274,-0.02 1.071,-0.081 1.757,-0.156 -1.144,-16.075 -3.59,-31.982 -11.638,-46.289 3.768,15.072 3.988,31.03 5.672,46.204 z m 19.307,-0.659 c 0.347,-0.006 0.685,-0.021 1.005,-0.058 -0.4,-7.699 -0.557,-14.668 -2.451,-21.243 l 0.189,-0.063 c 2.292,5.971 4.105,13.197 4.986,20.951 l 0.045,-0.025 c 0.782,0.061 1.449,0.092 2.031,0.1 -1.098,-13.198 -6.537,-25.602 -12.785,-37.206 3.852,12.514 6.768,25.029 6.98,37.544 z M 124.84,56.501 c 0.076,-2.761 0.039,-5.108 -0.189,-6.448 l 0.194,-0.046 c 2.643,8.591 2.331,15.253 2.524,25.565 0.555,-0.17 1.193,-0.239 1.87,-0.264 0.08,-12.715 -1.994,-25.322 -6.239,-37.208 0.654,5.894 1.731,12.213 1.84,18.401 z M 86,50.102 c -3.781,7.562 -3.098,16.018 -4.701,24.521 0.509,0.058 0.997,0.089 1.45,0.07 0,-3.915 0.676,-9.192 0.94,-12.385 l 0.199,0.002 c 0.403,6.263 1.163,10.374 1.782,13.256 0.642,-0.144 1.2,-0.258 1.694,-0.35 C 85.62,67.168 84.213,59.034 86,50.102 Z m -7,-10 c -8.426,9.362 -8.087,23.107 -8.83,34.67 0.297,-0.103 0.594,-0.213 0.904,-0.326 1.102,-15.937 2.326,-22.387 4.625,-27.361 l 0.188,0.063 c -1.329,6.207 -1.753,14.946 -1.297,26.715 l -0.012,0.016 c 0.748,-0.072 1.534,-0.029 2.329,0.063 C 76.446,62.338 74.534,50.821 79,40.102 Z m 2,-23 c -25.15,16.485 -39,47 -35,75 5,37 11,73 6,110 3,-31 -2,-62 -8,-93 5,34 5,68 -4,101 3.177,-16.681 0.047,-32.73 -1.376,-49.151 0.141,25.13 -5.941,50.009 -14.846,73.181 16.549,0.846 36.42,3.267 38.192,2.766 3.085,-57.769 3.929,-68.17 -5.236,-108.528 -3.815,-16.8 -7.374,-32.516 -5.986,-53.916 0,-10e-4 2.159,-29.259 30.252,-57.352 z"
                filter="brightness(0.8)"
                stroke-width="none"
                opacity="1"/>
        <path
                id="SvgjsPath1505"
                d="M 64.672,42.118 C 74.59,24.24 80.38,19.473 94.632,11.415 94.808,11.311 93.93,11.854 92.485,12.745 78.576,21.306 72.058,29.883 64.672,42.118 Z m 71.07,-5.005 c 9.163,18.181 9.775,30.657 9.025,24.705 -0.8,-4.99 -1.419,-10.855 -6.312,-22.197 -5.369,-11.776 -14.072,-23.532 -25.283,-30.441 6.265,4.251 13.787,10.928 22.57,27.933 z m -44.215,6.623 c -1.861,13.125 -1.499,23.37 -1.487,22.57 0.06,-9.996 2.285,-23.7 4.771,-33.506 2.673,-9.599 5.599,-14.82 6.494,-16.746 -3.897,7.315 -8.106,16.715 -9.778,27.682 z m 19.918,15.555 c 0.067,1.53 0.117,2.458 0.109,2.274 -0.562,-6.037 1.766,-16.643 -5.494,-38.71 3.005,10.557 4.782,19.543 5.385,36.436 z m 18.82,4.629 c 0.329,2.116 0.547,3.4 0.509,3.145 -1.188,-7.196 -0.94,-20.108 -7.805,-34.964 -4.252,-9.161 -8.862,-13.611 -10.668,-15.707 6.751,8.26 13.186,16.734 17.964,47.526 z M 79.303,60.814 c 0.534,-8.417 1.123,-9.623 1.675,-12.166 3.557,-14.121 5.869,-18.655 10.179,-25.844 -13.126,20.091 -11.854,38.01 -11.854,38.01 z m -41.798,2.559 c -0.024,0.471 -0.016,2.812 -0.008,2.419 C 38.081,45.747 61.782,11.076 77.827,5.21 62.315,10.191 39.336,38.968 37.505,63.373 Z m 0.683,39.976 c 0.687,5.613 1.616,9.97 1.536,9.472 -3.8,-17.919 1.102,-58.568 12.54,-73.07 -8.319,9.994 -16.889,36.062 -14.076,63.598 z m -3.931,54.972 c -0.697,3.996 -0.614,3.458 -0.165,1.388 3.824,-18.365 0.212,-50.656 -1.332,-66.366 0.001,-1.006 2.915,49.069 1.497,64.978 z M 145.164,23.022 c 2.272,3.198 7.384,9.497 12.905,23.33 4.216,10.549 -1.739,-5.479 -3.84,-10.089 -7.777,-18.021 -18.42,-26.645 -36.157,-33.313 15.418,6.636 19.979,11.373 27.092,20.072 z m 15.185,77.712 c -1.174,11.388 1.192,-7.638 1.439,-10.115 2.257,-19.967 -1.41,-33.458 -8.753,-46.237 6.236,12.022 10.295,23.795 7.314,56.352 z m 6.256,71.737 c 0.702,3.44 1.178,5.512 1.091,5.1 -4.749,-24.438 -0.502,-87.206 -0.472,-89.487 -0.281,6.191 -7.091,54.755 -0.619,84.387 z"
                filter="brightness(1.5)"
                stroke-width="none"
                opacity="1"/>
        <path
                id="SvgjsPath1506"
                d="m 177.489,209.517 c -15.15,-60.52 3.6,-107.91 -9.18,-151.03 -7.061,-23.79 -20.16,-47.76 -42.78,-57.45 -6.84,-2.94 -13.17,-3.16 -19.47,-2.26 -7.271,-2.21 -16.46,-2.55 -25.811,0.07 -24.32,6.79 -38.6,30.39 -46.02,53.01 -5.61,17.12 -7.43,32.3 -5.76,64.92 3.57,69.692 -2.795,87.556 -14.32,117.17 17.259,0 36.599,4.694 63.66,4.779 22.157,0.084 104.198,0.003 109.72,-0.75 -6.386,-14.459 -7.451,-18.108 -10.039,-28.459 z m -50.48,27.379 c -28.229,-0.85 -46.33,0.71 -64.63,-0.079 -0.101,-0.005 -0.202,-0.62796 -0.303,-0.63196 0.586,-10.989 1.823,-25.09804 2.103,-50.42904 C 64.631,136.857 48.133,116.654 50.843,74.548 51.07,74.54 51.3,74.526 51.52,74.536 c 0.25,0.01 0.49,0.04 0.72,0.08 1.22,0.17 2.3,0.61 3.27,1.12 0,0.03 0,0.06 -0.01,0.08 0.02,-0.02 0.03,-0.04 0.04,-0.06 0.13,0.07 0.25,0.14 0.38,0.22 0,-0.05 0.01,-0.1 0.02,-0.15 0.05,-0.27 0.1,-0.55 0.16,-0.83 0,-0.04 0.01,-0.07 0.02,-0.11 0.66,-3.27 1.79,-6.85 3.17,-10.28 -0.54,3.17 -0.78,6.05 -0.84,8.6 0,0.06 -0.01,0.12 0,0.18 0.24,-0.07 0.48,-0.13 0.72,-0.16 3.13,-0.44 6.75,2.02 9.58,1.98 0.67,-0.05 1.31,-0.28 1.95,-0.51 0.16,-0.07 0.31,-0.12 0.47,-0.18 0.31,-4.51 0.82,-9.25 1.05,-11.59 0.53,-5.39 1.31,-10.91 3.57,-15.8 -1.09,5.09 -1.83,13.05 -1.3,26.74 0,0.04 0.01,0.08 0.01,0.12 0.2,-0.02 0.41,-0.04 0.62,-0.04 0.82,-0.03 1.67,0.06 2.52,0.19 0.1,0.01 0.2,0.03 0.29,0.04 1.53,0.25 3.07,0.6 4.57,0.62 0.12,0 0.23,0 0.35,-0.01 v -0.11 c 0.01,-2.05 0.18,-4.74 0.59,-8.73 0.14,-1.21 0.25,-2.42 0.35,-3.63 0.39,6.06 1.1,10.09 1.79,13.3 0,0.02 0.01,0.05 0.01,0.07 0.14,-0.03 0.27,-0.06 0.39,-0.09 1.93,-0.49 2.02,-0.59 4.55,-0.58 1.16,0 2.06,0.13 2.91,0.08 0.2,-0.01 0.4,-0.03 0.59,-0.07 0,-0.05 -0.01,-0.1 -0.01,-0.14 -0.17,-2.02 -0.24,-3.89 -0.18,-5.14 0.14,-3.1 1.56,-15 3.28,-24.02 -0.01,9.93 1.6,15.67 2.9,24.94 0.26,1.86 0.52,3.71 0.88,5.53 0.01,0.06 0.02,0.12 0.029,0.19 0.131,-0.02 0.271,-0.03 0.41,-0.03 1.84,-0.03 4,0.75 6.11,1.06 0.13,0.02 0.26,0.04 0.38,0.05 v -0.43 -2.24 c -0.01,-1.27 0,-2.36 0.01,-3.29 0.04,2.49 0.19,3.89 0.63,5.58 0.04,0.14 0.08,0.29 0.131,0.45 0.159,0 0.319,0.01 0.47,0.01 0.149,-0.01 0.29,-0.01 0.43,-0.02 1.79,-0.11 3.5,-0.72 5.26,-1.02 0.62,-0.11 1.2,-0.15 1.75,-0.12 0.2,0 0.4,0.02 0.601,0.04 0.01,-0.08 0.01,-0.17 0,-0.25 0.029,-1.56 0.029,-3.4 0.01,-5.6 -0.13,-14.33 -0.6,-15.11 -1.9,-27.1 4.295,16.023 5.57,33.176 5.57,33.176 0,0 1.846,-0.128 2.642,-0.266 0.438,-3.102 2.152,-21.467 1.318,-26.35 2.63,8.55 2.33,15.2 2.521,25.58 0.01,0.03 0.01,0.06 0.01,0.09 0.18,-0.06 0.359,-0.11 0.54,-0.14 2.67,-0.55 5.96,0.38 9,0.14 l 0.27,-0.03 c 0,-0.03 -0.01,-0.06 -0.01,-0.1 -0.4,-8.32 -0.64,-14.98 -2.45,-21.26 2.181,5.68 4.08,13 4.95,20.66 0,0.02 0.01,0.04 0.01,0.07 0,0.05 0.011,0.1 0.011,0.15 0.01,0.03 0.01,0.06 0.02,0.1 0.08,0.01 0.16,0.01 0.25,0.02 1.23,0.11 2.47,0.19 3.65,0.05 1.994,-0.247 3.513,-1.582 5.379,-2.165 0.667,15.533 -3.643,42.797 -5.319,54.003 -0.839,5.757 -1.671,11.249 -2.304,16.2 -4.776,36.774 -4.17013,70.59278 -2.00313,93.38478 -3.753,-0.104 -7.87787,0.24022 -12.26687,0.10722 z m 34.02252,-1.1845 c -1.8,-7.09 -2.81443,-13.05885 -3.41443,-15.84885 -4.78,-22.08 -6.68,-57.7 -2.35,-79.69 -4.511,19.601 -5.551,53.73 1.359,80.94 0.95,3.74 1.43007,7.94511 3.41107,14.43511 -5.631,-0.109 -10.96358,0.33996 -19.40458,0.10494 -0.994,-13.384 -2.15249,-32.59407 -0.6095,-55.19107 2.255,-36.467 10.913,-86.177003 9.76,-107.737003 0.274,-0.075 0.549,-0.15 0.834,-0.203 0.24,-0.05 -0.0581,0.294353 0.18191,0.254353 0.96,-0.15 1.94,-0.25 2.9,-0.38 0.12,-0.02 0.25,-0.04 0.37,-0.06 -0.021,-0.09 -0.03,-0.18 -0.03,-0.28 -0.74,-6.93 -2.86,-22.16 -9.47,-35.44 -1.13,-2.28 -2.32,-4.61 -3.88,-6.63 -3.04,-3.91 -13.34,-16.09 -17.87,-17.71 5.41,2.95 13.46,13.25 17.09,18.32 3.9,5.53 11.52,24.85 13.56,40.08 0.061,0.47 0.131,0.95 0.19,1.42 -0.97,0.08 -1.96,0.1 -2.93,0.23 -0.24,0.03 -0.471,0.06 -0.7,0.11 -0.42,0.08 -0.83,0.18 -1.23,0.32 -1.93,0.68 -3.449,2.17 -5.54,2.4 -1.109,0.13 -2.26,0.1 -3.399,0.05 0,-0.09 -0.01,-0.18 -0.021,-0.27 0.011,-0.01 0.03,-0.01 0.04,-0.02 -0.01,0 -0.029,0 -0.04,0.01 -0.279,-4.54 -0.79,-8.8 -1.95,-13.38 -0.579,-2.27 -2.67,-7.84 -5.1,-12.25 -0.4,-0.72 -0.8,-1.4 -1.21,-2.04 0.3,0.67 0.59,1.35 0.85,2.05 2.421,6.29 3.271,14.06 4.381,26.28 -2.79,0.02 -6.21,-0.83 -8.98,-0.13 0.23,-8.92 0.4,-16.72 -3.11,-26.27 -0.09,-0.27 -0.189,-0.53 -0.29,-0.8 v 0.65 c 0.018,10.723 -0.445,18.599 -1.341,27.3 -0.002,0 -1.868,0.208 -1.868,0.208 -0.281,-6.221 -0.846,-14.428 -1.7,-19.028 -1.32,-7.09 -2.931,-12.55 -4.62,-17.04 -0.29,-0.8 -0.58,-1.55 -0.88,-2.28 0.02,0.47 0.05,0.94 0.08,1.41 0.02,0.3 0.039,0.59 0.06,0.89 1.37,19.23 2.05,29.71 2.33,35.64 -0.43,-0.02 -0.91,-0.01 -1.45,0.05 -1.93,0.2 -3.81,0.71 -5.75,0.89 -0.1,0.01 -0.2,0.02 -0.31,0.01 -0.641,-3.39 -0.811,-6.35 -0.92,-9.67 -0.011,-0.01 -0.011,-0.03 0,-0.04 -0.011,-0.19 -0.021,-0.37 -0.021,-0.56 -0.08,0.39 -0.15,0.79 -0.21,1.18 -0.36,2.21 -0.51,4.46 -0.47,6.73 0.01,0.39 0.04,1.22 0.08,2.26 -1.971,-0.27 -4.221,-1 -6.13,-0.84 -0.41,-2.81 -0.541,-5.15 -0.601,-5.79 -0.5,-5.21 -2.49,-17.76 -2.67,-28.99 -0.01,-0.83 -0.01,-1.65 0,-2.46 -0.03,0.08 -0.06,0.17 -0.09,0.26 -0.24,0.73 -0.49,1.52 -0.73,2.38 -2.43,8.47 -4.82,22.83 -3.8,33.37 -1.58,0.02 -2.19,-0.74 -7.46,0.6 -0.66,-4.44 -1.37,-9.72 -1.83,-16.91 -0.05,-0.68 -0.09,-1.39 -0.12,-2.11 -0.13,0.69 -0.27,1.39 -0.4,2.12 -0.85,4.72 -1.57,10.17 -1.12,16.04 -1.97,-0.09 -3.37,-0.38 -4.54,-0.6 -0.09,-0.02 -0.19,-0.04 -0.28,-0.06 -0.91,-0.17 -1.7,-0.29 -2.55,-0.22 0.04,-9.19 0.5,-23.44 1.29,-27.48 l 0.15,-0.72 c 0.04,-0.19 0.08,-0.38 0.13,-0.57 -0.24,0.37 -0.46,0.73 -0.67,1.11 v 0.01 c -2.87,5.07 -4,11.09 -4.68,16.86 -0.26,2.15 -0.57,6.99 -0.64,11.66 -0.66,0.18 -1.32,0.34 -1.98,0.36 -2.37,0.18 -5.19,-2.63 -9.53,-1.96 0.26,-2.61 0.69,-5.89 1.39,-10.11 0.13,-0.77 0.27,-1.54 0.43,-2.3 0.12,-0.56 0.24,-1.12 0.37,-1.68 1.53,-6.51 4.05,-12.69 7.29,-18.56 -4.84,7.94 -7.48,15.26 -8.86,21.6 -2.1,4.37 -3.69,9.15 -4.28,13.58 -0.96,-0.58 -2.05,-1.07 -3.28,-1.24 -0.23,-0.05 -0.46,-0.07 -0.7,-0.07 -0.67,-0.05 -1.38,0.01 -2.14,0.2 1.06,-5.01 2.81,-10.72 4.72,-16.16 0.05,-0.14 0.1,-0.27 0.14,-0.41 2.31,-6.51 4.81,-12.58 6.62,-16.49 4.05,-8.76 9.38,-13.92 17.64,-22.9 -7.84,7.83 -14.29,13.62 -18.31,21.5 -2.34,4.59 -4.76,9.25 -6.34,14.17 -1.32,4.14 -3.99,12.8 -5.18,20.49 -0.02,0.08 -0.03,0.16 -0.04,0.23 0.24,-0.08 0.47,-0.13 0.7,-0.18 0.484,-0.101 0.939,-0.145 1.384,-0.166 -1.706,21.073 1.026,39.395 7.971,68.821 0,0 1.324,6.811 2.002,12.007 2.208,19.151 1.688,29.073 1.495,63.551 0.009,5.47 -0.384129,11.29617 -0.637129,17.14717 -5.923,-0.293 -11.897871,-0.13817 -17.794871,-0.70917 0.91,-2.79 1.93,-5.59 2.73,-8.08 4.77,-14.79 7.95,-48.95 1.23,-86.431 4.23,28.811 3.22,58.641 -0.75,81.271 -0.67,3.82 -2.34,8.6 -3.64,13.2 -6.5,-0.63 -12.99,-1.271 -19.51,-1.61 -3.19,-0.17 -6.16,-0.24 -9.08,-0.29 16.37,-39.41 18.46,-57.8 16.27,-124.56 -0.68,-20.86 -1.4,-40.54 8.37,-65.61 16.17,-41.49 46.03,-49.89 65.84,-44.35 0.189,0.04 0.38,0.1 0.57,0.15 0.27,-0.03 0.54,-0.07 0.81,-0.1 9.23,-1.1 16.92,0.36 26.6,7.13 23.62,16.52 35.21,48.19 36.87,76.97 1.65,28.58 -4.13,64.52 0.98,100.85 1.78,12.64 5.04,24.949 8.85,37.12 0.44,1.51 2.98442,7.80259 6.11442,14.99159 -3.54,0.361 -8.6819,0.003 -25.0019,-0.30709 z"
                filter="brightness(0.4)"
                stroke-width="none"
                opacity="1"/>
    </g>
</svg>
