<?xml version="1.0" encoding="UTF-8"?>
<svg
        id="star"
        xmlns="http://www.w3.org/2000/svg"
        version="1.1"
        width="600px"
        height="572px"
        xml:space="preserve"
        style="shape-rendering:geometricPrecision; text-rendering:geometricPrecision; image-rendering:optimizeQuality; fill-rule:event; clip-rule:event">
    <g>
        <path
            opacity="0.995"
            fill="#ffda44"
            d="M 293.5,-0.5 C 297.5,-0.5 301.5,-0.5 305.5,-0.5C 309.428,1.59151 312.594,4.59151 315,8.5C 342.705,64.7439 370.539,120.911 398.5,177C 458.713,186.554 519.046,195.554 579.5,204C 588.159,204.791 594.825,208.624 599.5,215.5C 599.5,219.167 599.5,222.833 599.5,226.5C 597.705,229.404 595.872,232.404 594,235.5C 548.862,278.971 504.029,322.804 459.5,367C 470.592,428.551 481.259,490.218 491.5,552C 492.089,560.313 489.089,566.813 482.5,571.5C 477.833,571.5 473.167,571.5 468.5,571.5C 412.38,541.938 356.047,512.605 299.5,483.5C 242.746,512.875 186.079,542.209 129.5,571.5C 125.167,571.5 120.833,571.5 116.5,571.5C 108.962,565.74 106.128,558.073 108,548.5C 118.129,487.893 128.629,427.393 139.5,367C 94.0286,323.196 48.862,279.029 4,234.5C 2.60349,231.646 1.10349,228.98 -0.5,226.5C -0.5,222.833 -0.5,219.167 -0.5,215.5C 2.90559,209.958 7.90559,206.458 14.5,205C 76.5921,196.035 138.592,186.701 200.5,177C 228.461,120.911 256.295,64.7439 284,8.5C 286.406,4.59151 289.572,1.59151 293.5,-0.5 Z M 299.5,85.5 C 322.536,130.404 345.202,175.571 367.5,221C 417.564,228.176 467.564,235.676 517.5,243.5C 481.998,278.835 446.165,313.835 410,348.5C 409.333,351.167 409.333,353.833 410,356.5C 418.442,404.486 426.442,452.486 434,500.5C 389.579,476.706 345.079,453.039 300.5,429.5C 299.5,314.835 299.167,200.169 299.5,85.5 Z"/>
    </g>
</svg>
