<?xml version="1.0" encoding="UTF-8" standalone="no"?>
<?xml-stylesheet type="text/css" href="avatarpage_style.css" ?>
<svg
        id="type1n"
        viewBox="0 0 204.8632 247.21555"
        width="204.8632"
        height="247.21555"
        preserveAspectRatio="xMinYMin"
        version="1.1"
        xml:space="preserve"
        xmlns="http://www.w3.org/2000/svg">
    <defs
            id="nose"/>
    <g
            class="skin11"
            transform="translate(2.5699229,11.219994)">
        <path
                id="SvgjsPath3437"
                d="m 100.089,111.999 c 0.607,0 1.742,-0.74 1.792,-2.23 0.201,-6.008 -0.956,-23.833 -1.792,-23.77 -0.78,0.059 -2.267,17.637 -1.948,23.77 0.079,1.502 1.263,2.23 1.948,2.23 z"
                filter="brightness(1) saturate(1)"
                stroke-width="0"
                opacity="0.2"/>
        <path
                id="SvgjsPath3435"
                d="m 91.115,115.499 c -0.878,2.064 5.934,4.292 8.519,4.429 2.8,0.147 10.646,-2.9 9.316,-4.992 -1.399,-2.195 -6.643,-0.286 -8.906,-0.286 -2.252,-0.001 -7.753,-1.905 -8.929,0.849 z"
                stroke-width="0"
                opacity="0.5"/>
        <path
                id="SvgjsPath3436"
                d="m 101.857,117.058 c -0.23,-0.759 1.876,-1.584 2.657,-1.694 1.101,-0.16 3.36,0.802 3.158,1.592 -0.184,0.698 -2.148,-0.533 -2.86,-0.429 -0.734,0.107 -2.737,1.242 -2.955,0.531 z m -6.883,-0.247 c 0.968,0 2.404,0.623 2.668,0.074 0.315,-0.655 -2.139,-1.461 -2.86,-1.372 -0.596,0.07 -2.733,1.315 -2.439,1.839 0.274,0.481 1.355,-0.541 2.631,-0.541 z"
                stroke-width="0"
                opacity="1"/>
    </g>
</svg>
