<?xml version="1.0" encoding="UTF-8" standalone="no"?>
<?xml-stylesheet type="text/css" href="avatarpage_style.css" ?>
<svg
        id="type1m"
        viewBox="0 0 204.8632 247.21555"
        width="204.8632"
        height="247.21555"
        preserveAspectRatio="xMinYMin"
        version="1.1"
        xml:space="preserve"
        xmlns="http://www.w3.org/2000/svg">
    <defs
            id="mouth"/>
    <g
            class="skin11"
            transform="matrix(0.9499999,0,0,0.9499999,5.0001506,6.8585926) translate(2.5699229,11.219994)">
            <path
                    id="SvgjsPath3820"
                    d="m 96.227,139.237 8.297,-0.207 c -0.961,4.47 -7.64,3.828 -8.297,0.207 z"
                    opacity="0.3"/>
            <path
                    id="SvgjsPath3824"
                    d="m 96.343,139.52 c -0.371,-0.05 -0.315,-0.579 0.08,-0.542 0.043,0.006 4.308,0.546 7.878,-0.215 0.386,-0.075 0.5,0.455 0.13,0.534 -2.797,0.598 -6.416,0.458 -8.088,0.223 z m 3.74,-3.57 c -1.503,0 -2.96,-0.521 -4.424,-0.776 -1.64,-0.287 -3.274,-0.041 -4.915,0.104 -1.676,0.149 -5.333,-0.013 -6.365,-0.666 -0.578,-0.367 -0.47,-1.221 0.181,-1.449 0.614,-0.22 1.571,0.236 2.191,0.347 2.872,0.515 4.384,-0.034 6.902,-0.118 3.851,-0.116 4.26,1.501 9.064,0.53 5.165,-1.044 7.491,-0.254 11.197,-1.37 0.508,-0.154 1.112,-0.56 1.645,-0.286 0.615,0.318 0.585,1.185 -0.049,1.464 -3.406,1.502 -7.174,0.895 -10.955,1.526 -1.482,0.246 -2.959,0.694 -4.472,0.694 z"
                    stroke-width="0"
                    opacity="1"/>
    </g>
</svg>
