<?xml version="1.0" encoding="UTF-8" standalone="no"?>
<?xml-stylesheet type="text/css" href="avatarpage_style.css" ?>
<svg
        id="type4n"
        viewBox="0 0 204.8632 247.21555"
        width="204.8632"
        height="247.21555"
        preserveAspectRatio="xMinYMin"
        version="1.1"
        xml:space="preserve"
        xmlns="http://www.w3.org/2000/svg">
    <defs
            id="nose"/>
    <g
            class="skin11"
            transform="translate(2.5699229,11.219994)">
        <path id="SvgjsPath2699"
              d="M100.729 120.838c-0.354 0.161-1.185 0.161-1.448-0.103 0 0-6.296-2.153-5.498-4.215 1.264-3.262 12.727-0.761 12.717 0C106.475 118.462 100.729 120.838 100.729 120.838z"
              filter="brightness(1) saturate(1)"
              stroke-width="none" opacity="0.2"/>
        <path id="SvgjsPath2700"
              d="M92.215 113.609c0 0 5.448-18.624 6.008-22.61 1.063 6.47-1.503 20.873-1.774 23.812 -0.329 3.569 3.455 5.688 3.455 5.688 0.293 0.371-0.061 0.602-0.516 0.456l-6.631-2.559C91.186 117.061 91.186 115.79 92.215 113.609zM103.176 116.911c0.915 0.207 1.106 0.576 1.035 0.957 -0.069 0.385-0.462 0.911-1.288 0.43 -0.907-0.526-2.619-0.767-2.619-0.767S102.261 116.701 103.176 116.911z"
              stroke-width="none" opacity="1"/>
    </g>
</svg>
